<?xml version="1.0" encoding="UTF-8" standalone="no"?>
<svg xmlns:dc="http://purl.org/dc/elements/1.1/" xmlns:cc="http://creativecommons.org/ns#" xmlns:rdf="http://www.w3.org/1999/02/22-rdf-syntax-ns#" xmlns:svg="http://www.w3.org/2000/svg" xmlns="http://www.w3.org/2000/svg" xmlns:xlink="http://www.w3.org/1999/xlink" xmlns:sodipodi="http://sodipodi.sourceforge.net/DTD/sodipodi-0.dtd" xmlns:inkscape="http://www.inkscape.org/namespaces/inkscape" height="64" width="64" version="1.1" id="svg60" sodipodi:docname="user-desktop.svg" inkscape:version="0.92.5 (2060ec1f9f, 2020-04-08)">
    <metadata id="metadata64">
        <rdf:RDF>
            <cc:Work rdf:about="">
                <dc:format>
                    image/svg+xml
                </dc:format>
                <dc:type rdf:resource="http://purl.org/dc/dcmitype/StillImage"/>
            </cc:Work>
        </rdf:RDF>
    </metadata>
    <sodipodi:namedview pagecolor="#ffffff" bordercolor="#666666" borderopacity="1" objecttolerance="10" gridtolerance="10" guidetolerance="10" inkscape:pageopacity="0" inkscape:pageshadow="2" inkscape:window-width="1366" inkscape:window-height="668" id="namedview62" showgrid="false" inkscape:zoom="5.2149125" inkscape:cx="15.516766" inkscape:cy="26.15291" inkscape:window-x="0" inkscape:window-y="24" inkscape:window-maximized="1" inkscape:current-layer="svg60"/>
    <defs id="defs34">
        <linearGradient y2="105" x2="367" y1="70" x1="321" gradientTransform="matrix(1.2271 0 0 1.13815 -386.403 -61.437)" gradientUnits="userSpaceOnUse" id="d" xlink:href="#a"/>
        <linearGradient id="a">
            <stop offset="0" stop-color="#666" id="stop3"/>
            <stop offset="1" stop-color="#7a7a7a" id="stop5"/>
        </linearGradient>
        <linearGradient y2="63" x2="367" y1="106" x1="321" gradientTransform="matrix(1.2271 0 0 1.13815 -386.403 -67.127)" gradientUnits="userSpaceOnUse" id="c" xlink:href="#b"/>
        <linearGradient id="b">
            <stop offset="0" stop-color="#000000" id="stop9"/>            
            <stop offset="1" stop-color="#e06b74" id="stop31"/>
        </linearGradient>
        <linearGradient gradientUnits="userSpaceOnUse" y2="119.09284" x2="-35.310345" y1="401.58368" x1="529.65515" id="linearGradient4226" xlink:href="#linearGradient1674" inkscape:collect="always" gradientTransform="matrix(0.10518973,0,0,0.10518672,5.999827,4.330332)"/>
        <linearGradient inkscape:collect="always" id="linearGradient1674">
            <stop id="stop1670" offset="0" style="stop-color:#e06b74;stop-opacity:1"/>
            <stop id="stop1672" offset="1" style="stop-color:#e06b74;stop-opacity:1"/>
        </linearGradient>
    </defs>
    <path style="color:#000000;display:inline;overflow:visible;visibility:visible;fill:url(#linearGradient4226);fill-opacity:1;fill-rule:nonzero;stroke:none;stroke-width:1;marker:none;enable-background:accumulate" d="M 15.051758,9.429025 C 6.841301,9.38887 6,10.395832 6,18.589147 v 0.124688 0.232142 26.019042 C 6,53.1589 6.841206,54 15.051758,54 H 32 48.947788 C 57.15834,54 58,53.1589 58,44.965019 V 18.945977 18.713835 18.589147 C 58,10.395832 57.158242,9.388871 48.947788,9.429025 H 32 Z" id="rect4158" inkscape:export-xdpi="95.996666" inkscape:export-ydpi="95.996666"/>
    <path style="color:#000000;display:inline;overflow:visible;visibility:visible;opacity:0.2;fill:#000000;fill-opacity:1;fill-rule:nonzero;stroke:none;stroke-width:1;marker:none;enable-background:accumulate" d="m 6,44.500733 v 0.464286 C 6,53.1589 6.841205,54 15.051758,54 H 32 48.947788 C 57.15834,54 58,53.1589 58,44.965019 v -0.464286 c 0,8.193881 -0.84166,9.03498 -9.052212,9.03498 H 32 15.051758 C 6.841205,53.535713 6,52.694614 6,44.500733 Z" id="path1056" inkscape:connector-curvature="0" sodipodi:nodetypes="csscsscscsc" inkscape:export-xdpi="95.996666" inkscape:export-ydpi="95.996666"/>
    <path style="display:inline;opacity:0.8;vector-effect:none;fill:#282c33;fill-opacity:1;stroke:none;stroke-width:1;stroke-linecap:butt;stroke-linejoin:miter;stroke-miterlimit:4;stroke-dasharray:none;stroke-dashoffset:0;stroke-opacity:1;enable-background:new" d="M 14.08238,9.429025 C 6.751615,9.38887 6.000453,10.395833 6.000453,18.589147 v 0.124688 0.232142 26.019042 C 6.000453,53.1589 6.75153,54 14.08238,54 h 3.525216 V 9.429025 Z" id="rect1767" inkscape:connector-curvature="0" sodipodi:nodetypes="csccssccc" inkscape:export-xdpi="95.996666" inkscape:export-ydpi="95.996666"/>
    <path inkscape:connector-curvature="0" style="color:#000000;display:inline;overflow:visible;visibility:visible;opacity:0.2;fill:#ffffff;fill-opacity:1;fill-rule:nonzero;stroke:none;stroke-width:1;marker:none;enable-background:accumulate" d="M 15.051758,9.428573 C 6.841301,9.388418 6,10.270124 6,18.464008 v 0.464286 C 6,10.73441 6.841301,9.8527 15.051758,9.892859 H 32 48.947788 C 57.158242,9.852704 58,10.73441 58,18.928294 V 18.464008 C 58,10.270124 57.158242,9.388414 48.947788,9.428573 H 32 Z" id="path923" inkscape:export-xdpi="95.996666" inkscape:export-ydpi="95.996666"/>
</svg>
