<?xml version="1.0" encoding="UTF-8" standalone="no"?>
<svg
   xmlns:dc="http://purl.org/dc/elements/1.1/"
   xmlns:cc="http://creativecommons.org/ns#"
   xmlns:rdf="http://www.w3.org/1999/02/22-rdf-syntax-ns#"
   xmlns:svg="http://www.w3.org/2000/svg"
   xmlns="http://www.w3.org/2000/svg"
   xmlns:xlink="http://www.w3.org/1999/xlink"
   xmlns:sodipodi="http://sodipodi.sourceforge.net/DTD/sodipodi-0.dtd"
   xmlns:inkscape="http://www.inkscape.org/namespaces/inkscape"
   height="64"
   width="64"
   version="1.1"
   id="svg60"
   sodipodi:docname="user-trash.svg"
   inkscape:version="0.92.5 (2060ec1f9f, 2020-04-08)">
  <metadata
     id="metadata64">
    <rdf:RDF>
      <cc:Work
         rdf:about="">
        <dc:format>image/svg+xml</dc:format>
        <dc:type
           rdf:resource="http://purl.org/dc/dcmitype/StillImage" />
      </cc:Work>
    </rdf:RDF>
  </metadata>
  <sodipodi:namedview
     pagecolor="#ffffff"
     bordercolor="#666666"
     borderopacity="1"
     objecttolerance="10"
     gridtolerance="10"
     guidetolerance="10"
     inkscape:pageopacity="0"
     inkscape:pageshadow="2"
     inkscape:window-width="1366"
     inkscape:window-height="668"
     id="namedview62"
     showgrid="true"
     inkscape:zoom="5.2149125"
     inkscape:cx="14.967666"
     inkscape:cy="41.285317"
     inkscape:window-x="0"
     inkscape:window-y="24"
     inkscape:window-maximized="1"
     inkscape:current-layer="svg60">
    <inkscape:grid
       type="xygrid"
       id="grid910" />
  </sodipodi:namedview>
  <defs
     id="defs34">
    <linearGradient
       y2="105"
       x2="367"
       y1="70"
       x1="321"
       gradientTransform="matrix(1.2271 0 0 1.13815 -386.403 -61.437)"
       gradientUnits="userSpaceOnUse"
       id="d"
       xlink:href="#a" />
    <linearGradient
       id="a">
      <stop
         offset="0"
         stop-color="#666"
         id="stop3" />
      <stop
         offset="1"
         stop-color="#7a7a7a"
         id="stop5" />
    </linearGradient>
    <linearGradient
       y2="63"
       x2="367"
       y1="106"
       x1="321"
       gradientTransform="matrix(1.2271 0 0 1.13815 -386.403 -67.127)"
       gradientUnits="userSpaceOnUse"
       id="c"
       xlink:href="#b" />
    <linearGradient
       id="b">
      <stop
         offset="0"
         stop-color="#2c001e"
         id="stop9" />
      <stop
         offset=".109"
         stop-color="#2c001e"
         id="stop11" />
      <stop
         offset=".187"
         stop-color="#370626"
         id="stop13" />
      <stop
         offset=".298"
         stop-color="#55163b"
         id="stop15" />
      <stop
         offset=".372"
         stop-color="#772953"
         id="stop17" />
      <stop
         offset=".447"
         stop-color="#7c2b51"
         id="stop19" />
      <stop
         offset=".524"
         stop-color="#8b314b"
         id="stop21" />
      <stop
         offset=".596"
         stop-color="#8b314b"
         id="stop23" />
      <stop
         offset=".669"
         stop-color="#a33a41"
         id="stop25" />
      <stop
         offset=".798"
         stop-color="#c44732"
         id="stop27" />
      <stop
         offset=".913"
         stop-color="#e65524"
         id="stop29" />
      <stop
         offset="1"
         stop-color="#e65524"
         id="stop31" />
    </linearGradient>
    <linearGradient
       inkscape:collect="always"
       xlink:href="#linearGradient876"
       id="linearGradient3212"
       gradientUnits="userSpaceOnUse"
       gradientTransform="matrix(0,-0.10509569,-0.09809795,0,59.311339,58.005453)"
       x1="529.65515"
       y1="295.6377"
       x2="-35.310345"
       y2="295.6377" />
    <linearGradient
       inkscape:collect="always"
       id="linearGradient876">
      <stop
         style="stop-color:#b3b3b3;stop-opacity:1"
         offset="0"
         id="stop872" />
      <stop
         style="stop-color:#d9d9d9;stop-opacity:1"
         offset="1"
         id="stop874" />
    </linearGradient>
    <filter
       inkscape:collect="always"
       style="color-interpolation-filters:sRGB"
       id="filter1203"
       x="-0.06818065"
       width="1.1363612"
       y="-0.053572152"
       height="1.1071444">
      <feGaussianBlur
         inkscape:collect="always"
         stdDeviation="10.000135"
         id="feGaussianBlur1205" />
    </filter>
    <filter
       inkscape:collect="always"
       style="color-interpolation-filters:sRGB"
       id="filter4346"
       x="-0.013249796"
       width="1.0264996"
       y="-0.010965657"
       height="1.0219313">
      <feGaussianBlur
         inkscape:collect="always"
         stdDeviation="2.120027"
         id="feGaussianBlur4348" />
    </filter>
  </defs>
  <path
     transform="matrix(0.10824911,0,0,0.11596767,0.86612873,-2.2977335)"
     sodipodi:nodetypes="scccssscsss"
     inkscape:connector-curvature="0"
     id="rect4158-9"
     d="M 189.84323,74 C 119.24979,74 111.65402,81.250835 112,151.98706 V 298 444.01294 C 111.65402,514.74917 119.24979,522 189.84323,522 H 386.15677 C 456.75021,522 462.16345,514.72616 464,444.01294 V 298 151.98706 C 464,81.249993 456.75021,74 386.15677,74 Z"
     style="color:#000000;display:inline;overflow:visible;visibility:visible;opacity:0.1;fill:#000000;fill-opacity:1;fill-rule:nonzero;stroke:none;stroke-width:8.92523098;marker:none;filter:url(#filter4346);enable-background:accumulate" />
  <path
     transform="matrix(0.10824911,0,0,0.11596767,0.86612873,-2.2977335)"
     style="color:#000000;display:inline;overflow:visible;visibility:visible;opacity:0.2;fill:#000000;fill-opacity:1;fill-rule:nonzero;stroke:none;stroke-width:8.92523098;marker:none;filter:url(#filter1203);enable-background:accumulate"
     d="M 189.84323,74 C 119.24979,74 111.65402,81.250835 112,151.98706 V 298 444.01294 C 111.65402,514.74917 119.24979,522 189.84323,522 H 386.15677 C 456.75021,522 464,514.75001 464,444.01294 V 298 151.98706 C 464,81.249993 456.75021,74 386.15677,74 Z"
     id="path4350"
     inkscape:connector-curvature="0"
     sodipodi:nodetypes="scccssscsss" />
  <path
     sodipodi:nodetypes="scccssscsss"
     inkscape:connector-curvature="0"
     id="rect4158"
     d="m 42.666082,6.0519392 c 7.641689,0 8.463921,0.8408629 8.426462,9.0439798 v 16.932778 16.93278 c 0.03744,8.203123 -0.784773,9.043976 -8.426462,9.043976 H 21.41532 c -7.641673,0 -8.42646,-0.840764 -8.42646,-9.043976 V 32.028697 15.095919 c 0,-8.2032143 0.784787,-9.0439798 8.42646,-9.0439798 z"
     style="color:#000000;display:inline;overflow:visible;visibility:visible;fill:url(#linearGradient3212);fill-opacity:1;fill-rule:nonzero;stroke:none;stroke-width:0.99999988;marker:none;enable-background:accumulate" />
  <path
     inkscape:connector-curvature="0"
     id="path945"
     d="m 12.99003,48.497471 v 0.463866 c -0.03745,8.203123 0.784836,9.044116 8.426518,9.044116 h 21.250651 c 7.641676,0 8.227719,-0.84367 8.426521,-9.044116 v -0.463866 c -0.198802,8.200444 -0.784845,9.044114 -8.426521,9.044114 H 21.416548 c -7.641682,0 -8.463972,-0.841002 -8.426518,-9.044114 z"
     style="color:#000000;display:inline;overflow:visible;visibility:visible;opacity:0.2;fill:#000000;fill-opacity:1;fill-rule:nonzero;stroke:none;stroke-width:0.99999988;marker:none;enable-background:accumulate" />
  <path
     style="color:#000000;display:inline;overflow:visible;visibility:visible;opacity:0.2;fill:#ffffff;fill-opacity:1;fill-rule:nonzero;stroke:none;stroke-width:0.99999988;marker:none;enable-background:accumulate"
     d="M 12.99003,15.56129 V 15.09742 C 12.95258,6.8943003 13.774866,6.0532981 21.416548,6.0532981 h 21.250651 c 7.641676,0 8.227719,0.8436696 8.426521,9.0441219 v 0.46387 C 50.894918,7.3608383 50.308875,6.5171696 42.667199,6.5171696 H 21.416548 c -7.641682,0 -8.463972,0.8410014 -8.426518,9.0441204 z"
     id="path1763"
     inkscape:connector-curvature="0" />
  <path
     style="display:inline;fill:#28851e;fill-opacity:1;stroke:none;stroke-width:0.99999988;enable-background:new"
     d="m 30.867442,34.515175 c 0.233804,0.04553 0.488979,0.273097 0.616512,0.455263 l 2.061804,3.825574 -1.06261,0.683121 h 3.528242 l 1.76412,-3.278804 -1.084187,0.660022 -1.083757,-2.049365 c -0.10627,-0.204939 -0.318857,-0.295811 -0.552657,-0.295811 z m -1.216538,0.230576 c -0.542002,0.01991 -1.068197,0.236044 -1.291376,0.657299 l -1.615282,3.028751 3.102861,1.935211 1.976816,-3.688767 -0.786497,-1.411547 C 30.750483,34.902372 30.19291,34.725827 29.650904,34.745751 Z m 8.400725,4.688083 -3.124421,1.912559 1.976815,3.620369 h 1.679128 c 0.680158,-0.136622 1.700471,-1.320766 1.105329,-2.550383 z m -13.836857,0.796826 1.126465,0.705771 -0.722645,1.297844 c -0.637654,1.275154 0.424964,2.681583 1.062614,2.755589 h 1.657992 l 1.126462,-2.095119 1.126471,0.660474 -1.806408,-3.324559 z m 10.138633,3.893523 -1.806833,3.324557 1.806833,3.301904 v -1.388887 h 2.210642 c 0.255071,0 0.424941,-0.159401 0.509957,-0.341562 l 1.997959,-3.779821 c -0.106276,0.0683 -0.169962,0.181864 -0.573808,0.227407 h -4.14475 z m -9.18215,1.161492 c 0.08501,0.11385 0.06366,0.09125 1.934109,3.643462 0.127526,0.204941 0.297708,0.455391 0.531515,0.43262 h 3.974773 v -3.893976 h -5.908878 c -0.318828,0 -0.430559,-0.09105 -0.531519,-0.182106 z"
     id="path4152"
     inkscape:connector-curvature="0" />
  <path
     sodipodi:nodetypes="ccccccccscccccccccscscccc"
     inkscape:connector-curvature="0"
     id="path1026"
     d="m 19.921407,10.226776 h 21.931726 2.309318 c 1.454289,0.01818 2.409815,0.07396 2.832525,0.323745 0.21176,0.125157 0.333829,0.26311 0.446524,0.584665 0.113152,0.321546 0.18492,1.565564 0.18492,1.565564 v 2.473982 h 0.007 v 1.855482 c 0,0.732805 -0.07181,1.244005 -0.184916,1.565561 -0.112691,0.321558 -0.234874,0.459512 -0.446527,0.584672 -0.422833,0.249898 -1.377774,0.305558 -2.832522,0.323741 h -0.01159 -20.772563 -3.457209 -0.01352 c -1.454719,-0.01817 -2.40965,-0.07383 -2.832476,-0.323741 -0.211662,-0.12516 -0.333849,-0.263114 -0.446541,-0.584672 -0.113168,-0.321556 -0.184943,-0.832756 -0.184943,-1.565561 V 15.174732 12.70075 c 0,-0.732802 0.07287,-1.244018 0.184934,-1.565564 0.113154,-0.321589 0.23488,-0.459508 0.446528,-0.584665 0.423524,-0.250319 1.38037,-0.305661 2.839277,-0.323745 z"
     style="color:#000000;font-style:normal;font-variant:normal;font-weight:normal;font-stretch:normal;font-size:medium;line-height:normal;font-family:sans-serif;text-indent:0;text-align:start;text-decoration:none;text-decoration-line:none;text-decoration-style:solid;text-decoration-color:#000000;letter-spacing:normal;word-spacing:normal;text-transform:none;writing-mode:lr-tb;direction:ltr;baseline-shift:baseline;text-anchor:start;white-space:normal;clip-rule:nonzero;display:inline;overflow:visible;visibility:visible;opacity:0.2;isolation:auto;mix-blend-mode:normal;color-interpolation:sRGB;color-interpolation-filters:linearRGB;solid-color:#000000;solid-opacity:1;fill:#ffffff;fill-opacity:1;fill-rule:nonzero;stroke:none;stroke-width:4.00079155;stroke-linecap:butt;stroke-linejoin:miter;stroke-miterlimit:4;stroke-dasharray:none;stroke-dashoffset:0;stroke-opacity:1;marker:none;color-rendering:auto;image-rendering:auto;shape-rendering:auto;text-rendering:auto;enable-background:accumulate" />
  <path
     style="color:#000000;font-style:normal;font-variant:normal;font-weight:normal;font-stretch:normal;font-size:medium;line-height:normal;font-family:sans-serif;text-indent:0;text-align:start;text-decoration:none;text-decoration-line:none;text-decoration-style:solid;text-decoration-color:#000000;letter-spacing:normal;word-spacing:normal;text-transform:none;writing-mode:lr-tb;direction:ltr;baseline-shift:baseline;text-anchor:start;white-space:normal;clip-rule:nonzero;display:inline;overflow:visible;visibility:visible;opacity:0.4;isolation:auto;mix-blend-mode:normal;color-interpolation:sRGB;color-interpolation-filters:linearRGB;solid-color:#000000;solid-opacity:1;fill:#000000;fill-opacity:1;fill-rule:nonzero;stroke:none;stroke-width:4.00079155;stroke-linecap:butt;stroke-linejoin:miter;stroke-miterlimit:4;stroke-dasharray:none;stroke-dashoffset:0;stroke-opacity:1;marker:none;color-rendering:auto;image-rendering:auto;shape-rendering:auto;text-rendering:auto;enable-background:accumulate"
     d="m 19.921407,9.7629049 h 21.931726 2.309318 c 1.454289,0.018186 2.409815,0.073967 2.832525,0.3237441 0.21176,0.125159 0.333829,0.263113 0.446524,0.584668 0.113152,0.321544 0.18492,1.565563 0.18492,1.565563 v 2.473978 h 0.007 v 1.855485 c 0,0.732805 -0.07181,1.244006 -0.184916,1.565563 -0.112691,0.321555 -0.234874,0.459509 -0.446527,0.584668 -0.422833,0.2499 -1.377774,0.30556 -2.832522,0.323745 h -0.01159 -20.772563 -3.457209 -0.01352 c -1.454766,-0.01818 -2.409696,-0.07384 -2.832523,-0.323745 -0.211647,-0.125159 -0.333836,-0.263113 -0.446528,-0.584668 -0.113159,-0.321557 -0.184934,-0.832758 -0.184934,-1.565563 V 14.710858 12.23688 c 0,-0.732805 0.07287,-1.244019 0.184934,-1.565563 0.113172,-0.321592 0.234898,-0.459509 0.446546,-0.584668 0.42351,-0.2503176 1.380355,-0.3056595 2.839262,-0.3237441 z"
     id="path2447"
     inkscape:connector-curvature="0"
     sodipodi:nodetypes="ccccccccscccccccccscscccc" />
</svg>
