<?xml version="1.0" encoding="UTF-8" standalone="no"?>
<svg
   xmlns:dc="http://purl.org/dc/elements/1.1/"
   xmlns:cc="http://creativecommons.org/ns#"
   xmlns:rdf="http://www.w3.org/1999/02/22-rdf-syntax-ns#"
   xmlns:svg="http://www.w3.org/2000/svg"
   xmlns="http://www.w3.org/2000/svg"
   xmlns:xlink="http://www.w3.org/1999/xlink"
   xmlns:sodipodi="http://sodipodi.sourceforge.net/DTD/sodipodi-0.dtd"
   xmlns:inkscape="http://www.inkscape.org/namespaces/inkscape"
   height="48"
   width="48"
   version="1.1"
   id="svg60"
   sodipodi:docname="user-trash-full.svg"
   inkscape:version="0.92.5 (2060ec1f9f, 2020-04-08)">
  <metadata
     id="metadata64">
    <rdf:RDF>
      <cc:Work
         rdf:about="">
        <dc:format>image/svg+xml</dc:format>
        <dc:type
           rdf:resource="http://purl.org/dc/dcmitype/StillImage" />
      </cc:Work>
    </rdf:RDF>
  </metadata>
  <sodipodi:namedview
     pagecolor="#ffffff"
     bordercolor="#666666"
     borderopacity="1"
     objecttolerance="10"
     gridtolerance="10"
     guidetolerance="10"
     inkscape:pageopacity="0"
     inkscape:pageshadow="2"
     inkscape:window-width="1366"
     inkscape:window-height="717"
     id="namedview62"
     showgrid="false"
     inkscape:zoom="13.906433"
     inkscape:cx="11.627505"
     inkscape:cy="32.810102"
     inkscape:window-x="0"
     inkscape:window-y="24"
     inkscape:window-maximized="1"
     inkscape:current-layer="svg60" />
  <defs
     id="defs34">
    <linearGradient
       xlink:href="#a"
       id="d"
       gradientUnits="userSpaceOnUse"
       gradientTransform="matrix(1.08566 0 0 1.13815 -341.537 -63.45)"
       x1="321"
       y1="70"
       x2="367"
       y2="105" />
    <linearGradient
       id="a">
      <stop
         offset="0"
         stop-color="#666"
         id="stop3" />
      <stop
         offset="1"
         stop-color="#7a7a7a"
         id="stop5" />
    </linearGradient>
    <linearGradient
       xlink:href="#b"
       id="c"
       gradientUnits="userSpaceOnUse"
       gradientTransform="matrix(1.08566 0 0 1.13815 -341.537 -63.45)"
       x1="321"
       y1="106"
       x2="367"
       y2="63" />
    <linearGradient
       id="b">
      <stop
         offset="0"
         stop-color="#2c001e"
         id="stop9" />
      <stop
         offset=".109"
         stop-color="#2c001e"
         id="stop11" />
      <stop
         offset=".187"
         stop-color="#370626"
         id="stop13" />
      <stop
         offset=".298"
         stop-color="#55163b"
         id="stop15" />
      <stop
         offset=".372"
         stop-color="#772953"
         id="stop17" />
      <stop
         offset=".447"
         stop-color="#7c2b51"
         id="stop19" />
      <stop
         offset=".524"
         stop-color="#8b314b"
         id="stop21" />
      <stop
         offset=".596"
         stop-color="#8b314b"
         id="stop23" />
      <stop
         offset=".669"
         stop-color="#a33a41"
         id="stop25" />
      <stop
         offset=".798"
         stop-color="#c44732"
         id="stop27" />
      <stop
         offset=".913"
         stop-color="#e65524"
         id="stop29" />
      <stop
         offset="1"
         stop-color="#e65524"
         id="stop31" />
    </linearGradient>
    <linearGradient
       inkscape:collect="always"
       xlink:href="#linearGradient927"
       id="linearGradient1004"
       x1="344"
       y1="62"
       x2="344"
       y2="106"
       gradientUnits="userSpaceOnUse" />
    <linearGradient
       inkscape:collect="always"
       id="linearGradient927">
      <stop
         style="stop-color:#ffffff;stop-opacity:1;"
         offset="0"
         id="stop923" />
      <stop
         id="stop933"
         offset="0.125"
         style="stop-color:#ffffff;stop-opacity:0.09803922" />
      <stop
         id="stop931"
         offset="0.92500001"
         style="stop-color:#ffffff;stop-opacity:0.09803922" />
      <stop
         style="stop-color:#ffffff;stop-opacity:0.49803922"
         offset="1"
         id="stop925" />
    </linearGradient>
    <clipPath
       clipPathUnits="userSpaceOnUse"
       id="clipPath994-5">
      <path
         style="color:#000000;display:inline;overflow:visible;visibility:visible;fill:#cdcdcd;fill-opacity:1;fill-rule:nonzero;stroke:none;stroke-width:2;stroke-miterlimit:4;stroke-dasharray:none;stroke-opacity:1;marker:none;enable-background:accumulate"
         d="m 335.73108,62 c -8.82418,0 -9.77365,0.90635 -9.7304,9.74838 V 84 96.25162 c -0.0433,8.84203 0.90622,9.74838 9.7304,9.74838 h 16.53919 c 8.82418,0 9.7304,-0.90625 9.7304,-9.74838 V 84 71.74838 C 362.00067,62.90625 361.09445,62 352.27027,62 Z"
         id="path996-3"
         inkscape:connector-curvature="0"
         sodipodi:nodetypes="scccssscsss" />
    </clipPath>
    <linearGradient
       inkscape:collect="always"
       xlink:href="#linearGradient876"
       id="linearGradient3210"
       gradientUnits="userSpaceOnUse"
       gradientTransform="matrix(0,-0.11328125,-0.11327801,0,59.489997,52)"
       x1="494.34482"
       y1="313.2872"
       x2="0"
       y2="313.2872" />
    <linearGradient
       inkscape:collect="always"
       id="linearGradient876">
      <stop
         style="stop-color:#b3b3b3;stop-opacity:1"
         offset="0"
         id="stop872" />
      <stop
         style="stop-color:#d9d9d9;stop-opacity:1"
         offset="1"
         id="stop874" />
    </linearGradient>
  </defs>
  <path
     sodipodi:nodetypes="sccsccccccsscccscsccsss"
     inkscape:connector-curvature="0"
     id="path1020"
     d="m 15.731917,1.9999996 c -2.223161,0 -3.973681,0.05118 -5.41406,0.292969 -1.4403901,0.241784 -2.6190501,0.695299 -3.4824301,1.55664 -0.86337,0.861342 -1.31906,2.039471 -1.55859,3.480469 -0.23953,1.4409994 -0.28629,3.1953414 -0.27539,5.4238284 V 25 37.251953 c -0.0108,2.225063 0.0361,3.978517 0.27539,5.417967 0.23953,1.441 0.69522,2.61913 1.55859,3.48047 0.86338,0.86134 2.04204,1.31486 3.4824301,1.55664 C 11.758246,47.94882 13.508756,48 15.731917,48 h 16.53906 c 2.22316,0 3.97276,-0.0511 5.41016,-0.29297 1.4374,-0.24189 2.61246,-0.69694 3.47265,-1.55859 0.8602,-0.86165 1.3132,-2.03894 1.55469,-3.47852 0.24149,-1.43957 0.29297,-3.190353 0.29297,-5.417967 V 25 12.748047 c 0,-2.227614 -0.0515,-3.978392 -0.29297,-5.4179694 -0.24149,-1.439576 -0.69449,-2.616863 -1.55469,-3.478516 -0.86019,-0.861652 -2.03525,-1.316704 -3.47265,-1.558593 -1.4374,-0.24189 -3.187,-0.292969 -5.41016,-0.292969 z"
     style="color:#000000;font-style:normal;font-variant:normal;font-weight:normal;font-stretch:normal;font-size:medium;line-height:normal;font-family:sans-serif;font-variant-ligatures:normal;font-variant-position:normal;font-variant-caps:normal;font-variant-numeric:normal;font-variant-alternates:normal;font-feature-settings:normal;text-indent:0;text-align:start;text-decoration:none;text-decoration-line:none;text-decoration-style:solid;text-decoration-color:#000000;letter-spacing:normal;word-spacing:normal;text-transform:none;writing-mode:lr-tb;direction:ltr;text-orientation:mixed;dominant-baseline:auto;baseline-shift:baseline;text-anchor:start;white-space:normal;shape-padding:0;clip-rule:nonzero;display:inline;overflow:visible;visibility:visible;opacity:0.1;isolation:auto;mix-blend-mode:normal;color-interpolation:sRGB;color-interpolation-filters:linearRGB;solid-color:#000000;solid-opacity:1;vector-effect:none;fill:#000000;fill-opacity:1;fill-rule:nonzero;stroke:none;stroke-width:2;stroke-linecap:butt;stroke-linejoin:miter;stroke-miterlimit:4;stroke-dasharray:none;stroke-dashoffset:0;stroke-opacity:1;marker:none;color-rendering:auto;image-rendering:auto;shape-rendering:auto;text-rendering:auto;enable-background:accumulate" />
  <path
     inkscape:connector-curvature="0"
     id="path949"
     d="m 32.269607,1.4999996 c 2.21461,0 3.94722,0.05465 5.33203,0.287109 1.38481,0.232456 2.44551,0.654338 3.21094,1.417969 0.76543,0.763631 1.1878,1.822342 1.41797,3.207031 0.23017,1.3846904 0.28039,3.1183944 0.26953,5.3378914 V 24 36.251953 c 0.0108,2.218334 -0.0394,3.951757 -0.26953,5.335937 -0.23017,1.38469 -0.65253,2.4434 -1.41797,3.20703 -0.76544,0.76363 -1.82612,1.18551 -3.21094,1.41797 -1.38481,0.23246 -3.11742,0.28711 -5.33203,0.28711 h -16.53906 c -2.214601,0 -3.944541,-0.0546 -5.32617,-0.28711 -1.3816301,-0.2325 -2.4406401,-0.65418 -3.2031301,-1.41797 -0.76249,-0.76378 -1.18385,-1.82305 -1.41601,-3.20703 -0.23217,-1.38398 -0.28516,-3.116864 -0.28516,-5.335937 V 24 11.748047 c 0,-2.219073 0.053,-3.951957 0.28516,-5.3359384 0.23216,-1.383981 0.65352,-2.443248 1.41601,-3.207031 0.76249,-0.763783 1.8215,-1.185464 3.2031301,-1.417969 1.381629,-0.232504 3.111569,-0.287109 5.32617,-0.287109 z"
     style="color:#000000;display:inline;overflow:visible;visibility:visible;fill:url(#linearGradient3210);fill-opacity:1;fill-rule:nonzero;stroke:none;stroke-width:1;marker:none;enable-background:accumulate" />
  <path
     inkscape:connector-curvature="0"
     style="color:#000000;display:inline;overflow:visible;visibility:visible;opacity:0.4;fill:none;fill-opacity:1;fill-rule:nonzero;stroke:#000000;stroke-width:1;stroke-opacity:1;marker:none;enable-background:accumulate"
     d="m 15.731917,1.4999996 c -2.214611,0 -3.947221,0.05465 -5.33203,0.287109 -1.3848101,0.232456 -2.4455101,0.654338 -3.2109401,1.417969 -0.76543,0.763631 -1.1878,1.822342 -1.41797,3.207031 C 5.5408069,7.796799 5.4905869,9.530503 5.5014469,11.75 V 24 36.251953 c -0.0108,2.218334 0.0394,3.951757 0.26953,5.335937 0.23017,1.38469 0.65253,2.4434 1.41797,3.20703 0.76544,0.76363 1.82612,1.18551 3.2109401,1.41797 1.384809,0.23246 3.117419,0.28711 5.33203,0.28711 h 16.53906 c 2.2146,0 3.94454,-0.0546 5.32617,-0.28711 1.38163,-0.2325 2.44064,-0.65418 3.20313,-1.41797 0.76249,-0.76378 1.18385,-1.82305 1.41601,-3.20703 0.23217,-1.38398 0.28516,-3.116864 0.28516,-5.335937 V 24 11.748047 c 0,-2.219073 -0.053,-3.951957 -0.28516,-5.3359384 -0.23216,-1.383981 -0.65352,-2.443248 -1.41601,-3.207031 -0.76249,-0.763783 -1.8215,-1.185464 -3.20313,-1.417969 -1.38163,-0.232504 -3.11157,-0.287109 -5.32617,-0.287109 z"
     id="path901" />
  <path
     clip-path="url(#clipPath994-5)"
     style="color:#000000;display:inline;overflow:visible;visibility:visible;opacity:0.4;fill:none;fill-opacity:1;fill-rule:nonzero;stroke:url(#linearGradient1004);stroke-width:2;stroke-miterlimit:4;stroke-dasharray:none;stroke-opacity:1;marker:none;enable-background:accumulate"
     d="m 335.73108,62 c -8.82418,0 -9.77365,0.90635 -9.7304,9.74838 V 84 96.25162 c -0.0433,8.84203 0.90622,9.74838 9.7304,9.74838 h 16.53919 c 8.82418,0 9.7304,-0.90625 9.7304,-9.74838 V 84 71.74838 C 362.00067,62.90625 361.09445,62 352.27027,62 Z"
     id="path990"
     inkscape:connector-curvature="0"
     sodipodi:nodetypes="scccssscsss"
     transform="translate(-319.99855,-60)" />
  <path
     style="color:#000000;font-style:normal;font-variant:normal;font-weight:normal;font-stretch:normal;font-size:medium;line-height:normal;font-family:sans-serif;text-indent:0;text-align:start;text-decoration:none;text-decoration-line:none;text-decoration-style:solid;text-decoration-color:#000000;letter-spacing:normal;word-spacing:normal;text-transform:none;writing-mode:lr-tb;direction:ltr;baseline-shift:baseline;text-anchor:start;white-space:normal;clip-rule:nonzero;display:inline;overflow:visible;visibility:visible;opacity:0.2;isolation:auto;mix-blend-mode:normal;color-interpolation:sRGB;color-interpolation-filters:linearRGB;solid-color:#000000;solid-opacity:1;fill:#ffffff;fill-opacity:1;fill-rule:nonzero;stroke:none;stroke-width:4.00079203;stroke-linecap:butt;stroke-linejoin:miter;stroke-miterlimit:4;stroke-dasharray:none;stroke-dashoffset:0;stroke-opacity:1;marker:none;color-rendering:auto;image-rendering:auto;shape-rendering:auto;text-rendering:auto;enable-background:accumulate"
     d="m 13.797346,5.9999996 c -2.01497,0.0234 -3.337899,0.0954 -3.9228488,0.41895 -0.29263,0.16191 -0.46157,0.33987 -0.61817,0.75585 C 9.1012269,7.5906896 9.0014469,8.25216 9.0014469,9 c 0,0.74784 0.0983,1.40928 0.2548803,1.8252 0.15579,0.41592 0.32536,0.59385 0.61816,0.75585 C 10.459037,11.90439 11.780316,11.976 13.791486,12 h 0.0176 4.778311 10.82814 4.77831 0.0176 c 2.01117,-0.024 3.33245,-0.0956 3.91699,-0.41895 0.29281,-0.162 0.46238,-0.33993 0.61817,-0.75585 0.15659,-0.41592 0.25484,-1.07736 0.25484,-1.8252 0,-0.74784 -0.0997,-1.4093104 -0.25488,-1.8252004 -0.1566,-0.41598 -0.32555,-0.59394 -0.61816,-0.75585 -0.58496,-0.32355 -1.90789,-0.39555 -3.92286,-0.41895 h -0.003 -14.7011 -5.701171 z"
     id="path1486"
     inkscape:connector-curvature="0"
     sodipodi:nodetypes="cccsccccccccccsccccccc" />
  <path
     sodipodi:nodetypes="cccsccccccccccsccccccc"
     inkscape:connector-curvature="0"
     id="path1024"
     d="m 13.797346,4.9999996 c -2.01497,0.0234 -3.337899,0.0954 -3.9228488,0.41895 -0.29263,0.16191 -0.46157,0.33987 -0.61817,0.75585 C 9.1012269,6.5906896 9.0014469,7.2521596 9.0014469,8 c 0,0.74784 0.0983,1.40928 0.2548803,1.8252 0.15579,0.41592 0.32536,0.59385 0.61816,0.75585 C 10.459037,10.90439 11.780316,10.976 13.791486,11 h 0.0176 4.778311 10.82814 4.77831 0.0176 c 2.01117,-0.024 3.33245,-0.0956 3.91699,-0.41895 0.29281,-0.162 0.46238,-0.33993 0.61817,-0.75585 0.15659,-0.41592 0.25484,-1.07736 0.25484,-1.8252 0,-0.7478404 -0.0997,-1.4093104 -0.25488,-1.8252004 -0.1566,-0.41598 -0.32555,-0.59394 -0.61816,-0.75585 -0.58496,-0.32355 -1.90789,-0.39555 -3.92286,-0.41895 h -0.003 -14.7011 -5.701171 z"
     style="color:#000000;font-style:normal;font-variant:normal;font-weight:normal;font-stretch:normal;font-size:medium;line-height:normal;font-family:sans-serif;text-indent:0;text-align:start;text-decoration:none;text-decoration-line:none;text-decoration-style:solid;text-decoration-color:#000000;letter-spacing:normal;word-spacing:normal;text-transform:none;writing-mode:lr-tb;direction:ltr;baseline-shift:baseline;text-anchor:start;white-space:normal;clip-rule:nonzero;display:inline;overflow:visible;visibility:visible;opacity:0.4;isolation:auto;mix-blend-mode:normal;color-interpolation:sRGB;color-interpolation-filters:linearRGB;solid-color:#000000;solid-opacity:1;fill:#000000;fill-opacity:1;fill-rule:nonzero;stroke:none;stroke-width:4.00079203;stroke-linecap:butt;stroke-linejoin:miter;stroke-miterlimit:4;stroke-dasharray:none;stroke-dashoffset:0;stroke-opacity:1;marker:none;color-rendering:auto;image-rendering:auto;shape-rendering:auto;text-rendering:auto;enable-background:accumulate" />
  <g
     id="g963"
     transform="translate(40.3968,3.6001612)">
    <path
       sodipodi:nodetypes="ccccccccscccccccccccccccccccccccccccsccccccccccsc"
       inkscape:connector-curvature="0"
       id="path1236"
       d="m -17.790264,17.909611 c 0.2777,0.0505 0.58078,0.30279 0.73225,0.50475 l 2.44889,4.24135 -1.26211,0.75737 h 4.19063 l 2.0952999,-3.63516 -1.2877199,0.73176 -1.28721,-2.27211 c -0.12626,-0.22721 -0.37872,-0.32796 -0.65643,-0.32796 z m -1.44493,0.25564 c -0.64375,0.0221 -1.26873,0.2617 -1.5338,0.72875 l -1.91853,3.35792 3.68537,2.14554 2.34794,-4.08968 -0.93416,-1.56496 c -0.3408,-0.40393 -1.00305,-0.59966 -1.64682,-0.57757 z m 9.9778499,5.19761 -3.7109899,2.12042 2.34794,4.01383 h 1.9943599 c 0.80786,-0.15147 2.01971,-1.46431 1.31284,-2.82756 z m -16.4345399,0.88342 1.33794,0.78248 -0.8583,1.43889 c -0.75736,1.41375 0.50475,2.97303 1.26211,3.05508 h 1.96925 l 1.33794,-2.32283 1.33796,0.73226 -2.14554,-3.68588 z m 12.04203,4.31669 -2.14605,3.68588 2.14605,3.66076 v -1.53983 h 2.62566 c 0.30295,0 0.50471,-0.17672 0.6057,-0.3787 l 2.3730499,-4.19061 c -0.12627,0.0757 -0.20188,0.20162 -0.68154,0.25211 h -4.9228699 z m -10.90598,1.28772 c 0.10091,0.12625 0.0756,0.10118 2.29721,4.03945 0.15147,0.22721 0.35361,0.50488 0.63131,0.47964 h 4.72098 v -4.3172 h -7.01819 c -0.37868,0 -0.51139,-0.10093 -0.63131,-0.20189 z"
       style="display:inline;fill:#28851e;fill-opacity:1;stroke:none;stroke-width:0.99999994;enable-background:new" />
    <path
       sodipodi:nodetypes="cccsccccccccccsccccccc"
       inkscape:connector-curvature="0"
       id="path1246"
       d="m -26.599454,1.3998384 c -2.01497,0.0234 -3.3379,0.0954 -3.92285,0.41895 -0.29263,0.16191 -0.46157,0.33987 -0.61817,0.75585 -0.1551,0.41589 -0.25488,1.07736 -0.25488,1.8252 0,0.74784 0.0983,1.40928 0.25488,1.8252 0.15579,0.4159197 0.32536,0.5938497 0.61816,0.7558497 0.58455,0.32334 1.90583,0.39495 3.917,0.41895 h 0.0176 4.77831 10.82814 4.7783099 0.0176 c 2.01117,-0.024 3.33245,-0.0956 3.91699,-0.41895 0.29281,-0.162 0.46238,-0.33993 0.61817,-0.7558497 0.15659,-0.41592 0.25484,-1.07736 0.25484,-1.8252 0,-0.74784 -0.0997,-1.40931 -0.25488,-1.8252 -0.1566,-0.41598 -0.32555,-0.59394 -0.61816,-0.75585 -0.58496,-0.32355 -1.90789,-0.39555 -3.92286,-0.41895 h -0.003 -14.7010999 -5.70117 z"
       style="color:#000000;font-style:normal;font-variant:normal;font-weight:normal;font-stretch:normal;font-size:medium;line-height:normal;font-family:sans-serif;text-indent:0;text-align:start;text-decoration:none;text-decoration-line:none;text-decoration-style:solid;text-decoration-color:#000000;letter-spacing:normal;word-spacing:normal;text-transform:none;writing-mode:lr-tb;direction:ltr;baseline-shift:baseline;text-anchor:start;white-space:normal;clip-rule:nonzero;display:inline;overflow:visible;visibility:visible;opacity:0.3;isolation:auto;mix-blend-mode:normal;color-interpolation:sRGB;color-interpolation-filters:linearRGB;solid-color:#000000;solid-opacity:1;fill:#000000;fill-opacity:1;fill-rule:nonzero;stroke:none;stroke-width:4.00079203;stroke-linecap:butt;stroke-linejoin:miter;stroke-miterlimit:4;stroke-dasharray:none;stroke-dashoffset:0;stroke-opacity:1;marker:none;color-rendering:auto;image-rendering:auto;shape-rendering:auto;text-rendering:auto;enable-background:accumulate" />
    <path
       style="color:#000000;display:inline;overflow:visible;visibility:visible;opacity:0.2;fill:none;fill-opacity:1;fill-rule:nonzero;stroke:#000000;stroke-width:2;stroke-miterlimit:4;stroke-dasharray:none;stroke-opacity:1;marker:none;enable-background:accumulate"
       d="M 16.875,4 C 12.45399,3.9783 12.001953,4.4531444 12.001953,8.8652344 v 1.6874996 h 24 V 8.8652344 c 0,-4.41209 -0.45399,-4.8868544 -4.875,-4.8652344 h -6.125 z"
       transform="translate(-40.3968,-3.6001612)"
       id="path4355-2"
       inkscape:connector-curvature="0" />
    <path
       style="color:#000000;display:inline;overflow:visible;visibility:visible;fill:#ffffff;fill-opacity:1;fill-rule:nonzero;stroke:none;stroke-width:1;marker:none;enable-background:accumulate"
       d="M 16.875,4 C 12.45399,3.9783 12.001953,4.4531444 12.001953,8.8652344 v 1.6874996 h 24 V 8.8652344 c 0,-4.41209 -0.45399,-4.8868544 -4.875,-4.8652344 h -6.125 z"
       transform="translate(-40.3968,-3.6001612)"
       id="path4357-2"
       inkscape:connector-curvature="0" />
    <path
       style="color:#000000;display:inline;overflow:visible;visibility:visible;opacity:0.2;fill:none;fill-opacity:1;fill-rule:nonzero;stroke:#000000;stroke-width:2;stroke-miterlimit:4;stroke-dasharray:none;stroke-opacity:1;marker:none;enable-background:accumulate"
       d="m 17.904297,5.5605469 c -3.051372,-0.031518 -3.443525,0.7956761 -3.65625,4.6503911 l -0.01953,0.341796 H 37.52847 C 37.56058,10.534004 37.159812,9.2945823 37.773728,9.3765572 37.880329,6.8183248 37.634291,6.6084334 33.613281,6.40625 L 27.496094,6.0683594 19.382812,5.6210938 c -0.551635,-0.033159 -1.042605,-0.056044 -1.478515,-0.060547 z"
       id="path1452"
       inkscape:connector-curvature="0"
       transform="translate(-40.3968,-3.6001612)"
       sodipodi:nodetypes="scccccccs" />
    <path
       style="color:#000000;display:inline;overflow:visible;visibility:visible;fill:#ffffff;fill-opacity:1;fill-rule:nonzero;stroke:none;stroke-width:1;marker:none;enable-background:accumulate"
       d="m 17.904297,5.5605469 c -3.051372,-0.031518 -3.443525,1.3549986 -3.65625,5.2097131 l -0.01953,0.341796 H 38.246094 C 38.346294,7.6439824 37.662267,6.6098401 33.613281,6.40625 L 27.496094,6.0683594 19.382812,5.6210938 c -0.551636,-0.033159 -1.042605,-0.056044 -1.478515,-0.060547 z"
       transform="translate(-40.3968,-3.6001612)"
       id="path1454"
       inkscape:connector-curvature="0"
       sodipodi:nodetypes="sccccccs" />
    <path
       style="color:#000000;display:inline;overflow:visible;visibility:visible;opacity:0.2;fill:none;fill-opacity:1;fill-rule:nonzero;stroke:#000000;stroke-width:2;stroke-miterlimit:4;stroke-dasharray:none;stroke-opacity:1;marker:none;enable-background:accumulate"
       d="M 30.921875,7.4140625 C 30.486122,7.4266283 29.996242,7.4566449 29.445312,7.5 L 23.335938,7.9511719 15.232422,8.5488281 C 12.299647,8.7507276 11.151537,9.0788107 10.796875,10.552734 H 34.527344 C 34.210294,7.9445305 33.541733,7.3385139 30.921875,7.4140625 Z"
       transform="translate(-40.3968,-3.6001612)"
       id="path1458"
       inkscape:connector-curvature="0" />
    <path
       style="color:#000000;display:inline;overflow:visible;visibility:visible;fill:#ffffff;fill-opacity:1;fill-rule:nonzero;stroke:none;stroke-width:1;marker:none;enable-background:accumulate"
       d="M 30.921875,7.4140625 C 30.486122,7.4266283 29.996242,7.4566449 29.445312,7.5 L 23.335938,7.9511719 15.232422,8.5488281 C 12.299647,8.7507276 11.151537,9.6181294 10.796875,11.092053 H 34.527344 C 34.210294,8.4838492 33.541733,7.3385139 30.921875,7.4140625 Z"
       transform="translate(-40.3968,-3.6001612)"
       id="path1460"
       inkscape:connector-curvature="0"
       sodipodi:nodetypes="scccccs" />
    <path
       style="color:#000000;font-style:normal;font-variant:normal;font-weight:normal;font-stretch:normal;font-size:medium;line-height:normal;font-family:sans-serif;text-indent:0;text-align:start;text-decoration:none;text-decoration-line:none;text-decoration-style:solid;text-decoration-color:#000000;letter-spacing:normal;word-spacing:normal;text-transform:none;writing-mode:lr-tb;direction:ltr;baseline-shift:baseline;text-anchor:start;white-space:normal;clip-rule:nonzero;display:inline;overflow:visible;visibility:visible;opacity:1;isolation:auto;mix-blend-mode:normal;color-interpolation:sRGB;color-interpolation-filters:linearRGB;solid-color:#000000;solid-opacity:1;fill:#b7b7b7;fill-opacity:1;fill-rule:nonzero;stroke:none;stroke-width:4.00079203;stroke-linecap:butt;stroke-linejoin:miter;stroke-miterlimit:4;stroke-dasharray:none;stroke-dashoffset:0;stroke-opacity:1;marker:none;color-rendering:auto;image-rendering:auto;shape-rendering:auto;text-rendering:auto;enable-background:accumulate"
       d="m 9.0351562,8.5 c -0.010974,0.1680077 -0.033203,0.3197239 -0.033203,0.5 0,0.74784 0.097326,1.410252 0.2539063,1.826172 C 9.4116494,11.242092 9.5822,11.418078 9.875,11.580078 10.45955,11.903418 11.779846,11.976 13.791016,12 h 0.01758 4.779297 10.828125 4.777343 0.01758 c 2.011169,-0.024 3.333428,-0.09657 3.917968,-0.419922 0.29281,-0.162 0.461398,-0.337986 0.617188,-0.753906 C 38.902684,10.410252 39.001953,9.74784 39.001953,9 c 0,-0.1774495 -0.02257,-0.3265908 -0.0332,-0.4921875 -0.03452,0.5256102 -0.104401,1.0042618 -0.222656,1.3183594 -0.15579,0.4159201 -0.324378,0.5919061 -0.617188,0.7539061 C 37.544366,10.903428 36.222107,10.976 34.210938,11 H 34.193358 29.416015 18.58789 13.808593 13.791013 C 11.779846,10.976 10.45955,10.903418 9.875,10.580078 9.5822,10.418078 9.4116494,10.242092 9.2558594,9.8261719 9.1370249,9.5105146 9.0693595,9.0289322 9.0351562,8.5 Z"
       id="path1484"
       inkscape:connector-curvature="0"
       transform="translate(-40.3968,-3.6001612)" />
  </g>
</svg>
