<?xml version="1.0" encoding="UTF-8" standalone="no"?>
<svg
   xmlns:dc="http://purl.org/dc/elements/1.1/"
   xmlns:cc="http://creativecommons.org/ns#"
   xmlns:rdf="http://www.w3.org/1999/02/22-rdf-syntax-ns#"
   xmlns:svg="http://www.w3.org/2000/svg"
   xmlns="http://www.w3.org/2000/svg"
   xmlns:xlink="http://www.w3.org/1999/xlink"
   xmlns:sodipodi="http://sodipodi.sourceforge.net/DTD/sodipodi-0.dtd"
   xmlns:inkscape="http://www.inkscape.org/namespaces/inkscape"
   height="32"
   width="32"
   version="1.1"
   id="svg60"
   sodipodi:docname="user-trash-full.svg"
   inkscape:version="0.92.5 (2060ec1f9f, 2020-04-08)">
  <metadata
     id="metadata64">
    <rdf:RDF>
      <cc:Work
         rdf:about="">
        <dc:format>image/svg+xml</dc:format>
        <dc:type
           rdf:resource="http://purl.org/dc/dcmitype/StillImage" />
        <dc:title />
      </cc:Work>
    </rdf:RDF>
  </metadata>
  <sodipodi:namedview
     pagecolor="#ffffff"
     bordercolor="#666666"
     borderopacity="1"
     objecttolerance="10"
     gridtolerance="10"
     guidetolerance="10"
     inkscape:pageopacity="0"
     inkscape:pageshadow="2"
     inkscape:window-width="1366"
     inkscape:window-height="717"
     id="namedview62"
     showgrid="false"
     inkscape:zoom="55.625733"
     inkscape:cx="7.8882493"
     inkscape:cy="22.051817"
     inkscape:window-x="0"
     inkscape:window-y="24"
     inkscape:window-maximized="1"
     inkscape:current-layer="svg60" />
  <defs
     id="defs34">
    <linearGradient
       xlink:href="#a"
       id="d"
       gradientUnits="userSpaceOnUse"
       gradientTransform="matrix(1.08566,0,0,1.13815,-341.537,-63.45)"
       x1="321"
       y1="70"
       x2="367"
       y2="105" />
    <linearGradient
       id="a">
      <stop
         offset="0"
         stop-color="#666"
         id="stop3" />
      <stop
         offset="1"
         stop-color="#7a7a7a"
         id="stop5" />
    </linearGradient>
    <linearGradient
       xlink:href="#b"
       id="c"
       gradientUnits="userSpaceOnUse"
       gradientTransform="matrix(1.08566,0,0,1.13815,-341.537,-63.45)"
       x1="321"
       y1="106"
       x2="367"
       y2="63" />
    <linearGradient
       id="b">
      <stop
         offset="0"
         stop-color="#2c001e"
         id="stop9" />
      <stop
         offset=".109"
         stop-color="#2c001e"
         id="stop11" />
      <stop
         offset=".187"
         stop-color="#370626"
         id="stop13" />
      <stop
         offset=".298"
         stop-color="#55163b"
         id="stop15" />
      <stop
         offset=".372"
         stop-color="#772953"
         id="stop17" />
      <stop
         offset=".447"
         stop-color="#7c2b51"
         id="stop19" />
      <stop
         offset=".524"
         stop-color="#8b314b"
         id="stop21" />
      <stop
         offset=".596"
         stop-color="#8b314b"
         id="stop23" />
      <stop
         offset=".669"
         stop-color="#a33a41"
         id="stop25" />
      <stop
         offset=".798"
         stop-color="#c44732"
         id="stop27" />
      <stop
         offset=".913"
         stop-color="#e65524"
         id="stop29" />
      <stop
         offset="1"
         stop-color="#e65524"
         id="stop31" />
    </linearGradient>
    <clipPath
       clipPathUnits="userSpaceOnUse"
       id="clipPath994-5">
      <path
         style="color:#000000;display:inline;overflow:visible;visibility:visible;fill:#cdcdcd;fill-opacity:1;fill-rule:nonzero;stroke:none;stroke-width:2;stroke-miterlimit:4;stroke-dasharray:none;stroke-opacity:1;marker:none;enable-background:accumulate"
         d="m 335.73108,62 c -8.82418,0 -9.77365,0.90635 -9.7304,9.74838 V 84 96.25162 c -0.0433,8.84203 0.90622,9.74838 9.7304,9.74838 h 16.53919 c 8.82418,0 9.7304,-0.90625 9.7304,-9.74838 V 84 71.74838 C 362.00067,62.90625 361.09445,62 352.27027,62 Z"
         id="path996-3"
         inkscape:connector-curvature="0"
         sodipodi:nodetypes="scccssscsss" />
    </clipPath>
    <linearGradient
       inkscape:collect="always"
       xlink:href="#linearGradient927"
       id="linearGradient969"
       x1="336"
       y1="134"
       x2="336"
       y2="162"
       gradientUnits="userSpaceOnUse" />
    <linearGradient
       inkscape:collect="always"
       id="linearGradient927">
      <stop
         style="stop-color:#ffffff;stop-opacity:1;"
         offset="0"
         id="stop923" />
      <stop
         id="stop933"
         offset="0.125"
         style="stop-color:#ffffff;stop-opacity:0.09803922" />
      <stop
         id="stop931"
         offset="0.92500001"
         style="stop-color:#ffffff;stop-opacity:0.09803922" />
      <stop
         style="stop-color:#ffffff;stop-opacity:0.49803922"
         offset="1"
         id="stop925" />
    </linearGradient>
    <clipPath
       clipPathUnits="userSpaceOnUse"
       id="clipPath959">
      <path
         style="color:#000000;display:inline;overflow:visible;visibility:visible;opacity:1;fill:#46a926;fill-opacity:1;fill-rule:nonzero;stroke:none;stroke-width:2;stroke-miterlimit:4;stroke-dasharray:none;stroke-opacity:1;marker:none;enable-background:accumulate"
         d="m 330.1929,133.99999 c -5.61538,0 -6.21958,0.57678 -6.19206,6.20352 v 7.79648 7.79648 c -0.0276,5.62673 0.57668,6.20351 6.19206,6.20351 h 11.615 c 5.6154,0 6.19208,-0.5767 6.19208,-6.20351 v -7.79648 -7.79648 c 0,-5.6268 -0.5767,-6.20352 -6.19208,-6.20352 z"
         id="path961"
         inkscape:connector-curvature="0"
         sodipodi:nodetypes="scccssscsss" />
    </clipPath>
    <linearGradient
       inkscape:collect="always"
       xlink:href="#linearGradient876"
       id="linearGradient3208"
       gradientUnits="userSpaceOnUse"
       gradientTransform="matrix(0,-0.07208805,-0.07208601,0,39.129597,33.81816)"
       x1="524.61066"
       y1="320.84784"
       x2="-30.266319"
       y2="320.84784" />
    <linearGradient
       inkscape:collect="always"
       id="linearGradient876">
      <stop
         style="stop-color:#b3b3b3;stop-opacity:1"
         offset="0"
         id="stop872" />
      <stop
         style="stop-color:#d9d9d9;stop-opacity:1"
         offset="1"
         id="stop874" />
    </linearGradient>
    <clipPath
       clipPathUnits="userSpaceOnUse"
       id="clipPath1526">
      <path
         style="color:#000000;font-style:normal;font-variant:normal;font-weight:normal;font-stretch:normal;font-size:medium;line-height:normal;font-family:sans-serif;text-indent:0;text-align:start;text-decoration:none;text-decoration-line:none;text-decoration-style:solid;text-decoration-color:#000000;letter-spacing:normal;word-spacing:normal;text-transform:none;writing-mode:lr-tb;direction:ltr;baseline-shift:baseline;text-anchor:start;white-space:normal;clip-rule:nonzero;display:inline;overflow:visible;visibility:visible;opacity:1;isolation:auto;mix-blend-mode:normal;color-interpolation:sRGB;color-interpolation-filters:linearRGB;solid-color:#000000;solid-opacity:1;fill:#1463a5;fill-opacity:1;fill-rule:nonzero;stroke:none;stroke-width:4.00079203;stroke-linecap:butt;stroke-linejoin:miter;stroke-miterlimit:4;stroke-dasharray:none;stroke-dashoffset:0;stroke-opacity:1;marker:none;color-rendering:auto;image-rendering:auto;shape-rendering:auto;text-rendering:auto;enable-background:accumulate"
         d="m 726,130 v 8 c 0,0.49856 0.0655,0.93952 0.16992,1.2168 0.10386,0.27728 0.21691,0.3959 0.41211,0.5039 0.3897,0.21556 1.27055,0.2633 2.61133,0.2793 h 0.0117 3.18554 7.21876 3.18554 0.0117 c 1.34078,-0.016 2.22163,-0.0637 2.61133,-0.2793 0.1952,-0.108 0.30825,-0.22662 0.41211,-0.5039 C 745.93454,138.93952 746,138.49856 746,138 v -8 z"
         id="path1528"
         inkscape:connector-curvature="0" />
    </clipPath>
    <clipPath
       id="clipPath994-5-3"
       clipPathUnits="userSpaceOnUse">
      <path
         sodipodi:nodetypes="scccssscsss"
         inkscape:connector-curvature="0"
         id="path996-3-4"
         d="m 335.73108,62 c -8.82418,0 -9.77365,0.90635 -9.7304,9.74838 V 84 96.25162 c -0.0433,8.84203 0.90622,9.74838 9.7304,9.74838 h 16.53919 c 8.82418,0 9.7304,-0.90625 9.7304,-9.74838 V 84 71.74838 C 362.00067,62.90625 361.09445,62 352.27027,62 Z"
         style="color:#000000;display:inline;overflow:visible;visibility:visible;fill:#cdcdcd;fill-opacity:1;fill-rule:nonzero;stroke:none;stroke-width:2;stroke-miterlimit:4;stroke-dasharray:none;stroke-opacity:1;marker:none;enable-background:accumulate" />
    </clipPath>
  </defs>
  <path
     inkscape:connector-curvature="0"
     id="path922"
     d="m 21.806687,1.4999992 c 1.41241,0 2.52238,0.0342 3.42383,0.18555 0.90145,0.15132 1.61987,0.43164 2.14258,0.95312 0.5227,0.52148 0.80325,1.23898 0.95312,2.14063 0.14988,0.90164 0.18075,2.0101 0.17383,3.42578 v 7.7949198 7.796881 c 0.007,1.41452 -0.024,2.52269 -0.17383,3.42382 -0.14987,0.90165 -0.43041,1.61915 -0.95312,2.14063 -0.52272,0.52148 -1.24112,0.8018 -2.14258,0.95312 -0.90146,0.15132 -2.01142,0.18555 -3.42383,0.18555 h -11.61523 c -1.41241,0 -2.51847,-0.0342 -3.41797,-0.18555 -0.8995,-0.15137 -1.61597,-0.43149 -2.13672,-0.95312 -0.52075,-0.52163 -0.80004,-1.23774 -0.95117,-2.13867 -0.15113,-0.90094 -0.18555,-2.01055 -0.18555,-3.42578 V 15.999999 8.2031192 c 0,-1.41524 0.0344,-2.52484 0.18555,-3.42578 0.15113,-0.90093 0.43042,-1.61703 0.95117,-2.13867 0.52075,-0.52163 1.23722,-0.80175 2.13672,-0.95312 0.8995,-0.15137 2.00556,-0.18555 3.41797,-0.18555 z"
     style="color:#000000;display:inline;overflow:visible;visibility:visible;fill:url(#linearGradient3208);fill-opacity:1;fill-rule:nonzero;stroke:none;stroke-width:0.99999994;marker:none;enable-background:accumulate" />
  <path
     inkscape:connector-curvature="0"
     style="color:#000000;display:inline;overflow:visible;visibility:visible;opacity:0.4;fill:none;fill-opacity:1;fill-rule:nonzero;stroke:#000000;stroke-width:0.99999994;stroke-opacity:1;marker:none;enable-background:accumulate"
     d="m 10.194317,1.4999992 c -1.41241,0 -2.52238,0.0342 -3.42383,0.18555 -0.90145,0.15132 -1.61987,0.43164 -2.14258,0.95312 -0.5227,0.52148 -0.80325,1.23898 -0.95312,2.14063 -0.14988,0.90164 -0.18075,2.0101 -0.17383,3.42578 v 7.7949198 7.796881 c -0.007,1.41452 0.024,2.52269 0.17383,3.42382 0.14987,0.90165 0.43041,1.61915 0.95312,2.14063 0.52272,0.52148 1.24112,0.8018 2.14258,0.95312 0.90146,0.15132 2.01142,0.18555 3.42383,0.18555 h 11.61523 c 1.41241,0 2.51847,-0.0342 3.41797,-0.18555 0.8995,-0.15137 1.61597,-0.43149 2.13672,-0.95312 0.52075,-0.52163 0.80004,-1.23774 0.95117,-2.13867 0.15113,-0.90094 0.18555,-2.01055 0.18555,-3.42578 V 15.999999 8.2031192 c 0,-1.41524 -0.0344,-2.52484 -0.18555,-3.42578 -0.15113,-0.90093 -0.43042,-1.61703 -0.95117,-2.13867 -0.52075,-0.52163 -1.23722,-0.80175 -2.13672,-0.95312 -0.8995,-0.15137 -2.00556,-0.18555 -3.41797,-0.18555 z"
     id="path1089" />
  <path
     clip-path="url(#clipPath959)"
     style="color:#000000;display:inline;overflow:visible;visibility:visible;opacity:0.4;fill:none;fill-opacity:1;fill-rule:nonzero;stroke:url(#linearGradient969);stroke-width:2;stroke-miterlimit:4;stroke-dasharray:none;stroke-opacity:1;marker:none;enable-background:accumulate"
     d="m 330.1929,133.99999 c -5.61538,0 -6.21958,0.57678 -6.19206,6.20352 v 7.79648 7.79648 c -0.0276,5.62673 0.57668,6.20351 6.19206,6.20351 h 11.615 c 5.6154,0 6.19208,-0.5767 6.19208,-6.20351 v -7.79648 -7.79648 c 0,-5.6268 -0.5767,-6.20352 -6.19208,-6.20352 z"
     id="path939"
     inkscape:connector-curvature="0"
     sodipodi:nodetypes="scccssscsss"
     transform="translate(-319.99904,-132)" />
  <path
     sodipodi:nodetypes="cccsccccccccccsccccccc"
     inkscape:connector-curvature="0"
     id="path1488"
     d="m 9.198227,4.9999992 c -1.34332,0.0156 -2.22527,0.0636 -2.61524,0.2793 -0.19508,0.10794 -0.30771,0.22658 -0.41211,0.5039 -0.1034,0.27726 -0.16992,0.71824 -0.16992,1.2168 0,0.49856 0.0655,0.93952 0.16992,1.2168 0.10386,0.27728 0.21691,0.3959 0.41211,0.5039 0.3897,0.21556 1.27055,0.2633 2.61133,0.2793 h 0.0117 3.18554 7.21876 3.18554 0.0117 c 1.34078,-0.016 2.22163,-0.0637 2.61133,-0.2793 0.1952,-0.108 0.30825,-0.22662 0.41211,-0.5039 0.10446,-0.27728 0.16996,-0.71824 0.16996,-1.2168 0,-0.49856 -0.0665,-0.93954 -0.16992,-1.2168 -0.1044,-0.27732 -0.21703,-0.39596 -0.41211,-0.5039 -0.38997,-0.2157 -1.27192,-0.2637 -2.61524,-0.2793 h -0.002 -9.80073 -3.80078 z"
     style="color:#000000;font-style:normal;font-variant:normal;font-weight:normal;font-stretch:normal;font-size:medium;line-height:normal;font-family:sans-serif;text-indent:0;text-align:start;text-decoration:none;text-decoration-line:none;text-decoration-style:solid;text-decoration-color:#000000;letter-spacing:normal;word-spacing:normal;text-transform:none;writing-mode:lr-tb;direction:ltr;baseline-shift:baseline;text-anchor:start;white-space:normal;clip-rule:nonzero;display:inline;overflow:visible;visibility:visible;opacity:0.2;isolation:auto;mix-blend-mode:normal;color-interpolation:sRGB;color-interpolation-filters:linearRGB;solid-color:#000000;solid-opacity:1;fill:#ffffff;fill-opacity:1;fill-rule:nonzero;stroke:none;stroke-width:4.00079203;stroke-linecap:butt;stroke-linejoin:miter;stroke-miterlimit:4;stroke-dasharray:none;stroke-dashoffset:0;stroke-opacity:1;marker:none;color-rendering:auto;image-rendering:auto;shape-rendering:auto;text-rendering:auto;enable-background:accumulate" />
  <path
     style="display:inline;fill:#28851e;fill-opacity:1;stroke:none;stroke-width:1;enable-background:new"
     d="m 15.024267,13.083609 c 0.20056,0.0365 0.41946,0.21868 0.52885,0.36454 l 1.76864,3.0632 -0.91152,0.54698 h 3.02657 l 1.51327,-2.62538 -0.93002,0.52848 -0.92965,-1.64096 c -0.0912,-0.16409 -0.27352,-0.23686 -0.47409,-0.23686 z m -1.04355,0.18463 c -0.46494,0.016 -0.91631,0.189 -1.10775,0.52632 l -1.38561,2.42516 2.66166,1.54956 1.69574,-2.95366 -0.67467,-1.13025 c -0.24614,-0.29173 -0.72443,-0.43308 -1.18937,-0.41713 z m 7.20622,3.75382 -2.68016,1.53142 1.69574,2.89888 h 1.44037 c 0.58345,-0.10939 1.45867,-1.05756 0.94816,-2.04213 z m -11.86939,0.63803 0.96629,0.56512 -0.61989,1.03921 c -0.54698,1.02103 0.36455,2.14719 0.91153,2.20644 h 1.42223 l 0.96629,-1.67759 0.96631,0.52885 -1.54956,-2.66202 z m 8.69702,3.11761 -1.54993,2.662031 1.54993,2.64388 v -1.1121 h 1.89631 c 0.2188,0 0.36451,-0.12763 0.43745,-0.2735 l 1.71387,-3.026561 c -0.0912,0.0547 -0.1458,0.14562 -0.49222,0.18208 h -3.55541 z m -7.87654,0.93002 c 0.0729,0.0912 0.0546,0.0731 1.65909,2.917381 0.1094,0.1641 0.25539,0.36464 0.45595,0.34641 h 3.4096 v -3.117981 h -5.0687 c -0.27349,0 -0.36933,-0.0729 -0.45594,-0.14581 z"
     id="path1019"
     inkscape:connector-curvature="0" />
  <path
     style="color:#000000;font-style:normal;font-variant:normal;font-weight:normal;font-stretch:normal;font-size:medium;line-height:normal;font-family:sans-serif;text-indent:0;text-align:start;text-decoration:none;text-decoration-line:none;text-decoration-style:solid;text-decoration-color:#000000;letter-spacing:normal;word-spacing:normal;text-transform:none;writing-mode:lr-tb;direction:ltr;baseline-shift:baseline;text-anchor:start;white-space:normal;clip-rule:nonzero;display:inline;overflow:visible;visibility:visible;opacity:0.4;isolation:auto;mix-blend-mode:normal;color-interpolation:sRGB;color-interpolation-filters:linearRGB;solid-color:#000000;solid-opacity:1;fill:#000000;fill-opacity:1;fill-rule:nonzero;stroke:none;stroke-width:4.00079203;stroke-linecap:butt;stroke-linejoin:miter;stroke-miterlimit:4;stroke-dasharray:none;stroke-dashoffset:0;stroke-opacity:1;marker:none;color-rendering:auto;image-rendering:auto;shape-rendering:auto;text-rendering:auto;enable-background:accumulate"
     d="m 9.198227,3.9999992 c -1.34332,0.0156 -2.22527,0.0636 -2.61524,0.2793 -0.19508,0.10794 -0.30771,0.22658 -0.41211,0.5039 -0.1034,0.27726 -0.16992,0.71824 -0.16992,1.2168 0,0.49856 0.0655,0.93952 0.16992,1.2168 0.10386,0.27728 0.21691,0.3959 0.41211,0.5039 0.3897,0.21556 1.27055,0.2633 2.61133,0.2793 h 0.0117 3.18554 7.21876 3.18554 0.0117 c 1.34078,-0.016 2.22163,-0.0637 2.61133,-0.2793 0.1952,-0.108 0.30825,-0.22662 0.41211,-0.5039 0.10446,-0.27728 0.16996,-0.71824 0.16996,-1.2168 0,-0.49856 -0.0665,-0.93954 -0.16992,-1.2168 -0.1044,-0.27732 -0.21703,-0.39596 -0.41211,-0.5039 -0.38997,-0.2157 -1.27192,-0.2637 -2.61524,-0.2793 h -0.002 -9.80073 -3.80078 z"
     id="path1007"
     inkscape:connector-curvature="0"
     sodipodi:nodetypes="cccsccccccccccsccccccc" />
  <path
     style="color:#000000;font-style:normal;font-variant:normal;font-weight:normal;font-stretch:normal;font-size:medium;line-height:normal;font-family:sans-serif;text-indent:0;text-align:start;text-decoration:none;text-decoration-line:none;text-decoration-style:solid;text-decoration-color:#000000;letter-spacing:normal;word-spacing:normal;text-transform:none;writing-mode:lr-tb;direction:ltr;baseline-shift:baseline;text-anchor:start;white-space:normal;clip-rule:nonzero;display:inline;overflow:visible;visibility:visible;opacity:0.2;isolation:auto;mix-blend-mode:normal;color-interpolation:sRGB;color-interpolation-filters:linearRGB;solid-color:#000000;solid-opacity:1;fill:#ffffff;fill-opacity:1;fill-rule:nonzero;stroke:none;stroke-width:4.00079203;stroke-linecap:butt;stroke-linejoin:miter;stroke-miterlimit:4;stroke-dasharray:none;stroke-dashoffset:0;stroke-opacity:1;marker:none;color-rendering:auto;image-rendering:auto;shape-rendering:auto;text-rendering:auto;enable-background:accumulate"
     d="m 9.198227,4.9999992 c -1.34332,0.0156 -2.22527,0.0636 -2.61524,0.2793 -0.19508,0.10794 -0.30771,0.22658 -0.41211,0.5039 -0.1034,0.27726 -0.16992,0.71824 -0.16992,1.2168 0,0.49856 0.0655,0.93952 0.16992,1.2168 0.10386,0.27728 0.21691,0.3959 0.41211,0.5039 0.3897,0.21556 1.27055,0.2633 2.61133,0.2793 h 0.0117 3.18554 7.21876 3.18554 0.0117 c 1.34078,-0.016 2.22163,-0.0637 2.61133,-0.2793 0.1952,-0.108 0.30825,-0.22662 0.41211,-0.5039 0.10446,-0.27728 0.16996,-0.71824 0.16996,-1.2168 0,-0.49856 -0.0665,-0.93954 -0.16992,-1.2168 -0.1044,-0.27732 -0.21703,-0.39596 -0.41211,-0.5039 -0.38997,-0.2157 -1.27192,-0.2637 -2.61524,-0.2793 h -0.002 -9.80073 -3.80078 z"
     id="path1530"
     inkscape:connector-curvature="0"
     sodipodi:nodetypes="cccsccccccccccsccccccc" />
  <path
     sodipodi:nodetypes="cccsccccccccccsccccccc"
     inkscape:connector-curvature="0"
     id="path1248"
     d="m 9.198227,3.9999992 c -1.34332,0.0156 -2.22527,0.0636 -2.61524,0.2793 -0.19508,0.10794 -0.30771,0.22658 -0.41211,0.5039 -0.1034,0.27726 -0.16992,0.71824 -0.16992,1.2168 0,0.49856 0.0655,0.93952 0.16992,1.2168 0.10386,0.27728 0.21691,0.3959 0.41211,0.5039 0.3897,0.21556 1.27055,0.2633 2.61133,0.2793 h 0.0117 3.18554 7.21876 3.18554 0.0117 c 1.34078,-0.016 2.22163,-0.0637 2.61133,-0.2793 0.1952,-0.108 0.30825,-0.22662 0.41211,-0.5039 0.10446,-0.27728 0.16996,-0.71824 0.16996,-1.2168 0,-0.49856 -0.0665,-0.93954 -0.16992,-1.2168 -0.1044,-0.27732 -0.21703,-0.39596 -0.41211,-0.5039 -0.38997,-0.2157 -1.27192,-0.2637 -2.61524,-0.2793 h -0.002 -9.80073 -3.80078 z"
     style="color:#000000;font-style:normal;font-variant:normal;font-weight:normal;font-stretch:normal;font-size:medium;line-height:normal;font-family:sans-serif;text-indent:0;text-align:start;text-decoration:none;text-decoration-line:none;text-decoration-style:solid;text-decoration-color:#000000;letter-spacing:normal;word-spacing:normal;text-transform:none;writing-mode:lr-tb;direction:ltr;baseline-shift:baseline;text-anchor:start;white-space:normal;clip-rule:nonzero;display:inline;overflow:visible;visibility:visible;opacity:0.3;isolation:auto;mix-blend-mode:normal;color-interpolation:sRGB;color-interpolation-filters:linearRGB;solid-color:#000000;solid-opacity:1;fill:#000000;fill-opacity:1;fill-rule:nonzero;stroke:none;stroke-width:4.00079203;stroke-linecap:butt;stroke-linejoin:miter;stroke-miterlimit:4;stroke-dasharray:none;stroke-dashoffset:0;stroke-opacity:1;marker:none;color-rendering:auto;image-rendering:auto;shape-rendering:auto;text-rendering:auto;enable-background:accumulate" />
  <g
     id="g953"
     transform="translate(-44.861425,-12.162905)">
    <g
       transform="matrix(0.69768494,0,0,0.73614717,71.765491,14.979387)"
       id="g963"
       style="stroke-width:1.39536548">
      <path
         style="color:#000000;font-style:normal;font-variant:normal;font-weight:normal;font-stretch:normal;font-size:medium;line-height:normal;font-family:sans-serif;text-indent:0;text-align:start;text-decoration:none;text-decoration-line:none;text-decoration-style:solid;text-decoration-color:#000000;letter-spacing:normal;word-spacing:normal;text-transform:none;writing-mode:lr-tb;direction:ltr;baseline-shift:baseline;text-anchor:start;white-space:normal;clip-rule:nonzero;display:inline;overflow:visible;visibility:visible;opacity:0.3;isolation:auto;mix-blend-mode:normal;color-interpolation:sRGB;color-interpolation-filters:linearRGB;solid-color:#000000;solid-opacity:1;fill:#000000;fill-opacity:1;fill-rule:nonzero;stroke:none;stroke-width:5.58256769;stroke-linecap:butt;stroke-linejoin:miter;stroke-miterlimit:4;stroke-dasharray:none;stroke-dashoffset:0;stroke-opacity:1;marker:none;color-rendering:auto;image-rendering:auto;shape-rendering:auto;text-rendering:auto;enable-background:accumulate"
         d="m -26.599454,1.3998384 c -2.01497,0.0234 -3.3379,0.0954 -3.92285,0.41895 -0.29263,0.16191 -0.46157,0.33987 -0.61817,0.75585 -0.1551,0.41589 -0.25488,1.07736 -0.25488,1.8252 0,0.74784 0.0983,1.40928 0.25488,1.8252 0.15579,0.4159197 0.32536,0.5938497 0.61816,0.7558497 0.58455,0.32334 1.90583,0.39495 3.917,0.41895 h 0.0176 4.77831 10.82814 4.7783099 0.0176 c 2.01117,-0.024 3.33245,-0.0956 3.91699,-0.41895 0.29281,-0.162 0.46238,-0.33993 0.61817,-0.7558497 0.15659,-0.41592 0.25484,-1.07736 0.25484,-1.8252 0,-0.74784 -0.0997,-1.40931 -0.25488,-1.8252 -0.1566,-0.41598 -0.32555,-0.59394 -0.61816,-0.75585 -0.58496,-0.32355 -1.90789,-0.39555 -3.92286,-0.41895 h -0.003 -14.7010999 -5.70117 z"
         id="path1246"
         inkscape:connector-curvature="0"
         sodipodi:nodetypes="cccsccccccccccsccccccc" />
      <path
         inkscape:connector-curvature="0"
         id="path4355-2"
         transform="translate(-40.3968,-3.6001612)"
         d="M 16.875,4 C 12.45399,3.9783 12.001953,4.4531444 12.001953,8.8652344 v 1.6874996 h 24 V 8.8652344 c 0,-4.41209 -0.45399,-4.8868544 -4.875,-4.8652344 h -6.125 z"
         style="color:#000000;display:inline;overflow:visible;visibility:visible;opacity:0.2;fill:none;fill-opacity:1;fill-rule:nonzero;stroke:#000000;stroke-width:2.79073095;stroke-miterlimit:4;stroke-dasharray:none;stroke-opacity:1;marker:none;enable-background:accumulate" />
      <path
         inkscape:connector-curvature="0"
         id="path4357-2"
         transform="translate(-40.3968,-3.6001612)"
         d="M 16.875,4 C 12.45399,3.9783 12.001953,4.4531444 12.001953,8.8652344 v 1.6874996 h 24 V 8.8652344 c 0,-4.41209 -0.45399,-4.8868544 -4.875,-4.8652344 h -6.125 z"
         style="color:#000000;display:inline;overflow:visible;visibility:visible;fill:#ffffff;fill-opacity:1;fill-rule:nonzero;stroke:none;stroke-width:1.39536548;marker:none;enable-background:accumulate" />
      <path
         sodipodi:nodetypes="scccccccs"
         inkscape:connector-curvature="0"
         id="path1452"
         d="m 17.904297,5.5605469 c -3.051372,-0.031518 -3.443525,0.7956761 -3.65625,4.6503911 l -0.01953,0.341796 H 37.52847 C 37.56058,10.534004 37.159812,9.2945823 37.773728,9.3765572 37.880329,6.8183248 37.634291,6.6084334 33.613281,6.40625 L 27.496094,6.0683594 19.382812,5.6210938 c -0.551635,-0.033159 -1.042605,-0.056044 -1.478515,-0.060547 z"
         style="color:#000000;display:inline;overflow:visible;visibility:visible;opacity:0.2;fill:none;fill-opacity:1;fill-rule:nonzero;stroke:#000000;stroke-width:2.79073095;stroke-miterlimit:4;stroke-dasharray:none;stroke-opacity:1;marker:none;enable-background:accumulate"
         transform="translate(-40.3968,-3.6001612)" />
      <path
         inkscape:connector-curvature="0"
         id="path1454"
         d="m -22.492503,2.3679129 c -3.051372,-0.031518 -3.443525,0.7956766 -3.65625,4.6503911 l -0.01953,0.341796 h 24.017577 c 0.1002,-3.4680736 -0.583827,-3.9428939 -4.632813,-4.146484 l -6.117187,-0.3378906 -8.113282,-0.4472656 c -0.551636,-0.033159 -1.042605,-0.056044 -1.478515,-0.060547 z"
         style="color:#000000;display:inline;overflow:visible;visibility:visible;fill:#ffffff;fill-opacity:1;fill-rule:nonzero;stroke:none;stroke-width:1.39536548;marker:none;enable-background:accumulate" />
      <path
         inkscape:connector-curvature="0"
         id="path1458"
         transform="translate(-40.3968,-3.6001612)"
         d="M 30.921875,7.4140625 C 30.486122,7.4266283 29.996242,7.4566449 29.445312,7.5 l -6.109374,0.4511719 -8.103516,0.5976562 c -2.932775,0.2018995 -1.712277,0.046476 -2.066939,1.5203989 l 21.361861,0.483507 C 34.210294,7.9445305 33.541733,7.3385139 30.921875,7.4140625 Z"
         style="color:#000000;display:inline;overflow:visible;visibility:visible;opacity:0.2;fill:none;fill-opacity:1;fill-rule:nonzero;stroke:#000000;stroke-width:2.79073095;stroke-miterlimit:4;stroke-dasharray:none;stroke-opacity:1;marker:none;enable-background:accumulate"
         sodipodi:nodetypes="scccccs" />
      <path
         inkscape:connector-curvature="0"
         id="path1460"
         d="m -9.474925,4.2283357 c -0.435753,0.012566 -0.925633,0.042582 -1.476563,0.085937 l -6.109374,0.4511719 -8.103516,0.5976562 c -2.932775,0.2018995 -4.080885,0.5299826 -4.435547,2.0039059 h 23.730469 c -0.31705,-2.608203 -0.985611,-3.2142196 -3.605469,-3.138671 z"
         style="color:#000000;display:inline;overflow:visible;visibility:visible;fill:#ffffff;fill-opacity:1;fill-rule:nonzero;stroke:none;stroke-width:1.39536548;marker:none;enable-background:accumulate" />
      <path
         inkscape:connector-curvature="0"
         id="path1484"
         transform="translate(-40.3968,-3.6001612)"
         d="m 9.0351562,8.5 c -0.010974,0.1680077 -0.033203,0.3197239 -0.033203,0.5 0,0.74784 0.097326,1.410252 0.2539063,1.826172 0.1557899,0.41592 0.326872,0.862997 0.619672,1.024997 0.5845495,0.32334 1.9048455,0.395922 3.9160155,0.419922 h 0.01758 4.779297 10.828125 4.777343 0.01758 c 2.011169,-0.024 3.333428,-0.09657 3.917968,-0.419922 0.29281,-0.162 0.795839,-0.462552 0.951629,-0.878472 0.156587,-0.41592 0.114137,-0.9806492 0.114137,-1.7284892 0,-0.1774495 -0.04834,-0.8760584 -0.05897,-1.0416551 -0.03452,0.5256102 -0.271887,1.3095216 -0.390142,1.6236192 -0.15579,0.4159201 -0.324378,0.5919061 -0.617188,0.7539061 -0.584543,0.32335 -1.906802,0.26028 -3.917971,0.28428 H 34.193358 29.416015 18.58789 13.808593 13.791013 C 11.779846,10.840358 10.45955,10.903418 9.875,10.580078 9.5822,10.418078 9.4116494,10.242092 9.2558594,9.8261719 9.1370249,9.5105146 9.0693595,9.0289322 9.0351562,8.5 Z"
         style="color:#000000;font-style:normal;font-variant:normal;font-weight:normal;font-stretch:normal;font-size:medium;line-height:normal;font-family:sans-serif;text-indent:0;text-align:start;text-decoration:none;text-decoration-line:none;text-decoration-style:solid;text-decoration-color:#000000;letter-spacing:normal;word-spacing:normal;text-transform:none;writing-mode:lr-tb;direction:ltr;baseline-shift:baseline;text-anchor:start;white-space:normal;clip-rule:nonzero;display:inline;overflow:visible;visibility:visible;opacity:1;isolation:auto;mix-blend-mode:normal;color-interpolation:sRGB;color-interpolation-filters:linearRGB;solid-color:#000000;solid-opacity:1;fill:#b7b7b7;fill-opacity:1;fill-rule:nonzero;stroke:none;stroke-width:5.58256769;stroke-linecap:butt;stroke-linejoin:miter;stroke-miterlimit:4;stroke-dasharray:none;stroke-dashoffset:0;stroke-opacity:1;marker:none;color-rendering:auto;image-rendering:auto;shape-rendering:auto;text-rendering:auto;enable-background:accumulate"
         sodipodi:nodetypes="csccccccccccscccccccccccc" />
    </g>
  </g>
</svg>
