<svg width="256" height="256" viewBox="0 0 67.73 67.73" xmlns="http://www.w3.org/2000/svg">
    <defs>
        <linearGradient id="c" x1="529.655" x2="-35.31" y1="401.584" y2="119.093" gradientTransform="matrix(0 -.11989 -.11989 0 67.016 292.813)" gradientUnits="userSpaceOnUse">
            <stop offset="0" stop-color="#353431"/>
            <stop offset=".262" stop-color="#353431"/>
            <stop offset=".705" stop-color="#353431"/>
            <stop offset="1" stop-color="#353431"/>
        </linearGradient>
        <linearGradient id="b" x1="88" x2="488" y1="88" y2="488" gradientUnits="userSpaceOnUse">
            <stop offset="0" stop-opacity=".588"/>
            <stop offset=".88" stop-opacity="0"/>
            <stop offset="1"/>
        </linearGradient>
        <filter id="a" x="-.01" y="-.01" width="1.026" height="1.022" color-interpolation-filters="sRGB">
            <feGaussianBlur stdDeviation="2.12"/>
        </filter>
    </defs>
    <path transform="matrix(.1323 0 0 .1323 -4.41 -5.245)" d="M189.843 74c-70.593 0-78.189 7.25-77.843 77.987v292.026c-.346 70.736 7.25 77.987 77.843 77.987h196.314c70.593 0 76.006-7.274 77.843-77.987V151.987C464 81.25 456.75 74 386.157 74z" filter="url(#a)" opacity=".1"/>
    <path transform="matrix(.1323 0 0 .1323 -4.41 -5.245)" d="M189.843 74c-70.593 0-78.189 7.25-77.843 77.987v292.026c-.346 70.736 7.25 77.987 77.843 77.987h196.314C456.75 522 464 514.75 464 444.013V151.987C464 81.25 456.75 74 386.157 74z" fill="url(#b)" filter="url(#filter4380)" opacity=".3"/>
    <path d="M46.674 233.546c9.34 0 10.344.96 10.298 10.317v38.633c.046 9.358-.959 10.317-10.298 10.317h-25.97c-9.34 0-10.298-.96-10.298-10.317v-38.633c0-9.358.959-10.317 10.298-10.317z" fill="url(#c)" transform="translate(0 -229.267)"/>
    <path d="M41.099 63.546l15.875-15.875v5.95c-.014 8.994-1.006 9.925-10.1 9.925z" fill="#dcdbdc" opacity=".08"/>
    <path d="M10.407 52.7v.529c-.046 9.358.96 10.317 10.298 10.317h25.97c9.34 0 10.056-.962 10.299-10.317v-.53c-.243 9.356-.96 10.318-10.298 10.318h-25.97c-9.34 0-10.345-.96-10.299-10.317z" opacity=".2"/>
    <path d="M20.705 4.28c-9.339 0-10.344.959-10.298 10.317v.529c-.046-9.358.96-10.317 10.298-10.317h25.97c9.34 0 10.299.959 10.299 10.317v-.53c0-9.357-.96-10.316-10.298-10.316z" fill="#dcdbdc" opacity=".4"/>
    <path d="M31.8 20.684c-.34 0-.624 1.313-.79 3.19a10.394 10.394 0 0 0-2.512 1.056c-1.451-1.216-2.584-1.95-2.826-1.709l-2.674 2.675c-.241.24.493 1.374 1.71 2.825a10.394 10.394 0 0 0-1.047 2.512c-1.883.166-3.2.45-3.2.79v3.78c0 .34 1.313.623 3.19.79a10.394 10.394 0 0 0 1.052 2.517c-1.213 1.448-1.946 2.58-1.705 2.82l2.674 2.674c.241.241 1.37-.49 2.817-1.701a10.394 10.394 0 0 0 2.52 1.039c.167 1.882.45 3.2.79 3.2h3.78c.34 0 .624-1.314.79-3.191a10.394 10.394 0 0 0 2.512-1.056c1.451 1.216 2.585 1.95 2.826 1.71l2.674-2.675c.241-.241-.493-1.374-1.709-2.825a10.394 10.394 0 0 0 1.047-2.512c1.882-.166 3.2-.45 3.2-.79v-3.78c0-.34-1.314-.624-3.191-.79a10.394 10.394 0 0 0-1.052-2.517c1.213-1.449 1.946-2.58 1.705-2.82l-2.674-2.675c-.24-.24-1.37.49-2.817 1.702a10.394 10.394 0 0 0-2.52-1.039c-.167-1.883-.45-3.2-.79-3.2zm1.89 8.504a4.725 4.725 0 0 1 4.724 4.725 4.725 4.725 0 0 1-4.724 4.725 4.725 4.725 0 0 1-4.725-4.725 4.725 4.725 0 0 1 4.725-4.725z" fill="#16181D"/>
    <path d="M33.69 4.28v59.266h12.986c9.339 0 10.055-.962 10.298-10.317V14.597c0-9.358-.96-10.317-10.298-10.317z" fill="#dcdbdc" opacity=".08"/>
    <path d="M10.407 33.913v19.316c-.046 9.358.96 10.317 10.298 10.317h25.97c9.34 0 10.056-.962 10.299-10.317V33.913z" fill="#dcdbdc" opacity=".08"/>
</svg>
