<svg width="256" height="256" viewBox="0 0 67.73 67.73" xmlns="http://www.w3.org/2000/svg">
    <defs>
        <linearGradient id="c" x1="529.655" x2="-35.31" y1="401.584" y2="119.093" gradientTransform="matrix(0 -.11989 -.11989 0 67.016 292.813)" gradientUnits="userSpaceOnUse">
            <stop offset="0" stop-color="#F26D4B"/>
            <stop offset="1" stop-color="#F26D4B"/>
        </linearGradient>
        <linearGradient id="b" x1="88" x2="488" y1="88" y2="488" gradientUnits="userSpaceOnUse">
            <stop offset="0" stop-opacity=".588"/>
            <stop offset=".88" stop-opacity="0"/>
            <stop offset="1"/>
        </linearGradient>
        <filter id="a" x="-.01" y="-.01" width="1.026" height="1.022" color-interpolation-filters="sRGB">
            <feGaussianBlur stdDeviation="2.12"/>
        </filter>
    </defs>
    <path transform="matrix(.1323 0 0 .1323 -4.41 -5.245)" d="M189.843 74c-70.593 0-78.189 7.25-77.843 77.987v292.026c-.346 70.736 7.25 77.987 77.843 77.987h196.314c70.593 0 76.006-7.274 77.843-77.987V151.987C464 81.25 456.75 74 386.157 74z" filter="url(#a)" opacity=".1"/>
    <path transform="matrix(.1323 0 0 .1323 -4.41 -5.245)" d="M189.843 74c-70.593 0-78.189 7.25-77.843 77.987v292.026c-.346 70.736 7.25 77.987 77.843 77.987h196.314C456.75 522 464 514.75 464 444.013V151.987C464 81.25 456.75 74 386.157 74z" fill="url(#b)" filter="url(#filter4380)" opacity=".3"/>
    <path d="M46.674 233.546c9.34 0 10.344.96 10.298 10.317v38.633c.046 9.358-.959 10.317-10.298 10.317h-25.97c-9.34 0-10.298-.96-10.298-10.317v-38.633c0-9.358.959-10.317 10.298-10.317z" fill="url(#c)" transform="translate(0 -229.267)"/>
    <path d="M34.36 19.096c-5.16.92-10.324 2.139-15.485 3.04 0 7.852-.004 15.706 0 23.56 5.134.898 10.27 2.098 15.394 3.034h1.538V19.096zm6.086 4.1c-1.2.013-2.4.112-3.58.275v4.381c3.319.501 6.78.4 9.98-.68.677-.297 1.534-.667 1.675-1.49-.19-1.005-1.319-1.382-2.162-1.696-1.914-.584-3.914-.809-5.913-.79zm8.072 4.19c-1.256 1.01-2.876 1.345-4.428 1.574-2.395.314-4.83.318-7.225.014v4.572c2.992.384 6.064.367 9.01-.328.903-.257 1.905-.526 2.537-1.277.226-1.503.028-3.037.106-4.554zm-20.324 1.03c1.182 3.952 2.304 7.924 3.472 11.879a91.99 91.99 0 0 1-2.438-.187c-.216-.882-.445-1.764-.677-2.642a71.764 71.764 0 0 1-3.246-.092c-.208.836-.42 1.668-.635 2.5a211.44 211.44 0 0 0-2.067-.147c1.03-3.715 2.102-7.415 3.125-11.13.822-.06 1.64-.117 2.466-.18zm-1.327 2.114c-.236 1.676-.765 3.288-1.121 4.939.776.007 1.552.01 2.332.014-.402-1.651-.893-3.28-1.21-4.953zm21.65 2.501c-1.248 1.006-2.857 1.34-4.406 1.57a28.147 28.147 0 0 1-7.246.018v4.575c2.999.381 6.082.364 9.035-.338.9-.258 1.901-.526 2.519-1.28.208-1.504.028-3.031.099-4.545zm0 5.644c-1.255 1.006-2.867 1.345-4.42 1.57a28.04 28.04 0 0 1-7.232.018c0 1.52.011 3.037-.014 4.558 2.52.363 5.09.356 7.606-.028 1.372-.279 2.957-.48 3.955-1.566.222-1.503.032-3.038.106-4.552z" fill="#dcdbdc"/>
    <path d="M33.69 4.28v59.266h12.986c9.339 0 10.055-.962 10.298-10.317V14.597c0-9.358-.96-10.317-10.298-10.317z" fill="#dcdbdc" opacity=".08"/>
    <path d="M10.407 33.913v19.316c-.046 9.358.96 10.317 10.298 10.317h25.97c9.34 0 10.056-.962 10.299-10.317V33.913z" fill="#dcdbdc" opacity=".08"/>
    <path d="M41.099 63.546l15.875-15.875v5.95c-.014 8.994-1.006 9.925-10.1 9.925z" fill="#dcdbdc" opacity=".08"/>
    <path d="M10.407 52.7v.529c-.046 9.358.96 10.317 10.298 10.317h25.97c9.34 0 10.056-.962 10.299-10.317v-.53c-.243 9.356-.96 10.318-10.298 10.318h-25.97c-9.34 0-10.345-.96-10.299-10.317z" opacity=".2"/>
    <path d="M20.705 4.28c-9.339 0-10.344.959-10.298 10.317v.529c-.046-9.358.96-10.317 10.298-10.317h25.97c9.34 0 10.299.959 10.299 10.317v-.53c0-9.357-.96-10.316-10.298-10.316z" fill="#dcdbdc" opacity=".4"/>
</svg>
