<svg xmlns="http://www.w3.org/2000/svg" width="256" height="256" viewBox="0 0 67.73 67.73">
    <defs>
        <linearGradient id="c" x1="529.655" x2="-35.31" y1="401.584" y2="119.093" gradientTransform="matrix(0 .11989 .11989 0 .363 233.282)" gradientUnits="userSpaceOnUse">
            <stop offset="0" stop-color="#dcdbdc"/>
            <stop offset="1" stop-color="#dcdbdc"/>
        </linearGradient>
        <linearGradient id="b" x1="88" x2="488" y1="88" y2="488" gradientUnits="userSpaceOnUse">
            <stop offset="0" stop-opacity=".588"/>
            <stop offset=".88" stop-opacity="0"/>
            <stop offset="1"/>
        </linearGradient>
        <filter id="a" x="-.01" y="-.01" width="1.026" height="1.022" color-interpolation-filters="sRGB">
            <feGaussianBlur stdDeviation="2.12"/>
        </filter>
    </defs>
    <path d="M20.705 4.015c-9.339 0-10.344.96-10.298 10.317v38.633c-.046 9.357.96 10.317 10.298 10.317h25.97c9.34 0 10.299-.96 10.299-10.317V14.332c0-9.358-.96-10.317-10.298-10.317z" fill="none" opacity=".2" stroke-width="1.058" stroke="#16181D"/>
    <path transform="matrix(.1323 0 0 .1323 -4.41 -5.51)" d="M189.843 74c-70.593 0-78.189 7.25-77.843 77.987v292.026c-.346 70.736 7.25 77.987 77.843 77.987h196.314c70.593 0 76.006-7.274 77.843-77.987V151.987C464 81.25 456.75 74 386.157 74z" filter="url(#a)" opacity=".1"/>
    <path transform="matrix(.1323 0 0 .1323 -4.41 -5.51)" d="M189.843 74c-70.593 0-78.189 7.25-77.843 77.987v292.026c-.346 70.736 7.25 77.987 77.843 77.987h196.314C456.75 522 464 514.75 464 444.013V151.987C464 81.25 456.75 74 386.157 74z" fill="url(#b)" filter="url(#filter4380)" opacity=".3"/>
    <path d="M20.705 292.548c-9.339 0-10.344-.959-10.298-10.317V243.6c-.046-9.358.96-10.317 10.298-10.317h25.97c9.34 0 10.299.959 10.299 10.317v38.632c0 9.358-.96 10.317-10.298 10.317z" fill="url(#c)" transform="translate(0 -229.267)"/>
    <path d="M20.705 4.015c-9.339 0-10.344.96-10.298 10.317v.53c-.046-9.358.96-10.318 10.298-10.318h25.97c9.34 0 10.299.96 10.299 10.317v-.529c0-9.358-.96-10.317-10.298-10.317z" fill="#dcdbdc" opacity=".6"/>
    <path d="M41.099 63.282l15.875-15.875v5.949c-.014 8.994-1.006 9.926-10.1 9.926z" fill="#dcdbdc" opacity=".4"/>
    <path d="M37.31 14.152a3.712 3.712 0 0 1-3.624 4.519 3.71 3.71 0 0 1-3.622-4.52 19.845 19.845 0 0 1 3.623-.345c1.216.004 2.429.12 3.623.346zm-14.018 4.52c0 4.144 2.43 7.714 5.938 9.384v18.839l4.455 4.456 4.457-4.457-.256-3.946 2.101-2.1-2.1-2.102 3.15-3.15-3.15-3.152.255-4.39c3.51-1.671 5.943-5.24 5.943-9.385 0-.691-.071-1.365-.2-2.019a19.847 19.847 0 0 1 9.648 16.998c0 10.958-8.886 19.843-19.843 19.843-10.958 0-19.843-8.885-19.843-19.843a19.848 19.848 0 0 1 9.647-17.003c-.129.655-.199 1.33-.199 2.021zm7.425 11.88h1.486v14.856h-1.485l-.001-14.85v-.001z" fill="#97C378"/>
    <path d="M33.69 4.015v59.267h12.986c9.339 0 10.055-.963 10.298-10.317V14.332c0-9.358-.96-10.317-10.298-10.317z" fill="#dcdbdc" opacity=".1"/>
    <path d="M10.407 33.648v19.317c-.046 9.358.96 10.317 10.298 10.317h25.97c9.34 0 10.056-.963 10.299-10.317V33.648z" fill="#dcdbdc" opacity=".2"/>
</svg>
