<svg width="256" height="256" viewBox="0 0 67.73 67.73" xmlns="http://www.w3.org/2000/svg">
    <defs>
        <linearGradient id="c" x1="529.655" x2="-35.31" y1="401.584" y2="119.093" gradientTransform="matrix(0 -.11989 .11989 0 .363 292.548)" gradientUnits="userSpaceOnUse">
            <stop offset="0" stop-color="#dcdbdc"/>
            <stop offset="1" stop-color="#dcdbdc"/>
        </linearGradient>
        <linearGradient id="b" x1="88" x2="488" y1="88" y2="488" gradientUnits="userSpaceOnUse">
            <stop offset="0" stop-opacity=".588"/>
            <stop offset=".88" stop-opacity="0"/>
            <stop offset="1"/>
        </linearGradient>
        <filter id="a" x="-.01" y="-.01" width="1.026" height="1.022" color-interpolation-filters="sRGB">
            <feGaussianBlur stdDeviation="2.12"/>
        </filter>
    </defs>
    <path d="M20.705 4.015c-9.339 0-10.344.96-10.298 10.317v38.633c-.046 9.357.96 10.317 10.298 10.317h25.97c9.34 0 10.299-.96 10.299-10.317V14.332c0-9.358-.96-10.317-10.298-10.317z" fill="none" opacity=".2" stroke-width="1.058" stroke="#16181D"/>
    <path transform="matrix(.1323 0 0 .1323 -4.41 -5.51)" d="M189.843 74c-70.593 0-78.189 7.25-77.843 77.987v292.026c-.346 70.736 7.25 77.987 77.843 77.987h196.314c70.593 0 76.006-7.274 77.843-77.987V151.987C464 81.25 456.75 74 386.157 74z" filter="url(#a)" opacity=".1"/>
    <path transform="matrix(.1323 0 0 .1323 -4.41 -5.51)" d="M189.843 74c-70.593 0-78.189 7.25-77.843 77.987v292.026c-.346 70.736 7.25 77.987 77.843 77.987h196.314C456.75 522 464 514.75 464 444.013V151.987C464 81.25 456.75 74 386.157 74z" fill="url(#b)" filter="url(#filter4380)" opacity=".3"/>
    <path d="M20.705 233.282c-9.339 0-10.344.959-10.298 10.317v38.632c-.046 9.358.96 10.317 10.298 10.317h25.97c9.34 0 10.299-.959 10.299-10.317V243.6c0-9.358-.96-10.317-10.298-10.317z" fill="url(#c)" transform="translate(0 -229.267)"/>
    <path d="M41.099 63.282l15.875-15.875v5.949c-.014 8.994-1.006 9.926-10.1 9.926z" fill="#dcdbdc" opacity=".4"/>
    <path d="M20.705 4.015c-9.339 0-10.344.96-10.298 10.317v.53c-.046-9.358.96-10.318 10.298-10.318h25.97c9.34 0 10.299.96 10.299 10.317v-.529c0-9.358-.96-10.317-10.298-10.317z" fill="#dcdbdc" opacity=".6"/>
    <path d="M33.69 21.742a7.727 7.727 0 0 0-7.744 7.744v3.872h-.968v5.506l.393-.514c.563-.756 2.062-1.836 3.237-2.3.618-.244 2.103-.512 3.78-.695 2.528-.284 7.303-.06 9.046-1.997v-3.872a7.727 7.727 0 0 0-7.744-7.744zm.635.938c.367.022.727.064 1.089.151 1.301.313 1.448.614.181.363-1.993-.395-4.64.492-6.261 2.117-.485.487-1.097 1.291-1.362 1.785-.545 1.018-.46.363.121-.877 1.062-2.266 3.663-3.69 6.232-3.54zm-.635 2.934a3.864 3.864 0 0 1 3.872 3.872v3.872h-7.744v-3.872a3.864 3.864 0 0 1 3.872-3.872zm8.712 9.444l-1.029.847c-.559.476-1.434 1.127-1.966 1.452-1.09.666-3.673 1.603-4.447 1.603-.291 0-.462.07-.393.182.129.21 1.676.115 3.297-.211.533-.108 1.768-.59 2.753-1.09l1.785-.907v-.938zm0 2.087l-.545.757c-1.806 2.49-4.747 3.869-8.833 4.114-2.73.163-1.73.474 1.543.484 2.217.003 2.717-.065 4.053-.515.837-.28 1.531-.496 1.573-.454.153.153-1.484 1.507-2.39 1.967-1.735.88-2.917 1.128-6.05 1.27-2.225.101-3.138.216-3.569.454-.548.302-.186.323 6.806.333h7.412z" fill="#3371C2"/>
    <path d="M33.69 4.015v59.267h12.986c9.339 0 10.055-.963 10.298-10.317V14.332c0-9.358-.96-10.317-10.298-10.317z" fill="#dcdbdc" opacity=".1"/>
    <path d="M10.407 33.648v19.317c-.046 9.358.96 10.317 10.298 10.317h25.97c9.34 0 10.056-.963 10.299-10.317V33.648z" fill="#dcdbdc" opacity=".2"/>
</svg>
