<svg width="256" height="256" viewBox="0 0 67.73 67.73" xmlns="http://www.w3.org/2000/svg">
    <defs>
        <linearGradient id="c" x1="529.655" x2="-35.31" y1="401.584" y2="119.093" gradientTransform="matrix(0 -.11989 .11989 0 .363 292.813)" gradientUnits="userSpaceOnUse">
            <stop offset="0" stop-color="#dcdbdc"/>
            <stop offset="1" stop-color="#dcdbdc"/>
        </linearGradient>
        <linearGradient id="b" x1="88" x2="488" y1="88" y2="488" gradientUnits="userSpaceOnUse">
            <stop offset="0" stop-opacity=".588"/>
            <stop offset=".88" stop-opacity="0"/>
            <stop offset="1"/>
        </linearGradient>
        <filter id="a" x="-.01" y="-.01" width="1.026" height="1.022" color-interpolation-filters="sRGB">
            <feGaussianBlur stdDeviation="2.12"/>
        </filter>
    </defs>
    <path d="M20.705 4.015c-9.339 0-10.344.96-10.298 10.317v38.633c-.046 9.357.96 10.317 10.298 10.317h25.97c9.34 0 10.299-.96 10.299-10.317V14.332c0-9.358-.96-10.317-10.298-10.317z" fill="none" opacity=".2" stroke-width="1.058" stroke="#16181D"/>
    <path transform="matrix(.1323 0 0 .1323 -4.41 -5.51)" d="M189.843 74c-70.593 0-78.189 7.25-77.843 77.987v292.026c-.346 70.736 7.25 77.987 77.843 77.987h196.314c70.593 0 76.006-7.274 77.843-77.987V151.987C464 81.25 456.75 74 386.157 74z" filter="url(#a)" opacity=".1"/>
    <path transform="matrix(.1323 0 0 .1323 -4.41 -5.51)" d="M189.843 74c-70.593 0-78.189 7.25-77.843 77.987v292.026c-.346 70.736 7.25 77.987 77.843 77.987h196.314C456.75 522 464 514.75 464 444.013V151.987C464 81.25 456.75 74 386.157 74z" fill="url(#b)" filter="url(#filter4380)" opacity=".3"/>
    <path d="M20.705 233.546c-9.339 0-10.344.96-10.298 10.317v38.633c-.046 9.358.96 10.317 10.298 10.317h25.97c9.34 0 10.299-.96 10.299-10.317v-38.633c0-9.358-.96-10.317-10.298-10.317z" fill="url(#c)" transform="translate(0 -229.267)"/>
    <path d="M20.705 4.015c-9.339 0-10.344.96-10.298 10.317v.53c-.046-9.358.96-10.318 10.298-10.318h25.97c9.34 0 10.299.96 10.299 10.317v-.529c0-9.358-.96-10.317-10.298-10.317z" fill="#dcdbdc" opacity=".6"/>
    <path d="M26.282 28.803s-4.491 9.678-3.677 13.965c.566 2.981 1.913 5.028 4.735 6.144 1.673.661 6.35-1.059 6.35-1.059v-7.408s-4.233-1.389-5.093-6.747c0 0 .455 4.579 1.315 4.711" fill="none" stroke-linecap="round" stroke-linejoin="round" stroke-width="1.058" stroke="#3371C2"/>
    <path d="M24.43 20.337c-3.241-2.91-7.276-1.72-7.276-1.72s2.117 6.68 6.085 6.02" fill="none" stroke-width="1.058" stroke="#3371C2"/>
    <path d="M25.224 47.853c-1.059 4.234 2.116 5.292 8.466 3.175 6.35 2.117 9.525 1.059 8.467-3.175" fill="none" stroke-linecap="round" stroke-width="1.058" stroke="#3371C2"/>
    <path d="M27.566 23.846c2.006-.932 4.137.21 4.065.327 0 0-.692 2.872-2.33 2.625-1.533-.233-1.734-2.3-1.735-2.952z" fill="none" stroke-linejoin="round" stroke-width="1.058" stroke="#3371C2"/>
    <path d="M42.157 31.978s2.74-8.126 1.058-11.641c-.548-1.148-2.116-1.96-3.175-1.96-2.146 0-3.175.901-6.35.901s-4.204-.902-6.35-.902c-1.058 0-2.626.813-3.175 1.96-1.68 3.516 1.059 11.642 1.059 11.642" fill="none" stroke-width="1.058" stroke="#3371C2"/>
    <path d="M41.099 28.803s4.491 9.678 3.677 13.965c-.566 2.981-1.914 5.028-4.736 6.144-1.672.661-6.35-1.059-6.35-1.059v-7.408s4.234-1.389 5.094-6.747c0 0-.502 4.672-1.362 4.805" fill="none" stroke-linecap="round" stroke-linejoin="round" stroke-width="1.058" stroke="#3371C2"/>
    <path d="M42.95 20.337c3.242-2.91 7.277-1.72 7.277-1.72s-2.117 6.68-6.086 6.02" fill="none" stroke-width="1.058" stroke="#3371C2"/>
    <path d="M39.814 23.846c-2.005-.932-4.136.21-4.065.327 0 0 .693 2.872 2.33 2.625 1.533-.233 1.734-2.3 1.735-2.952z" fill="none" stroke-linejoin="round" stroke-width="1.058" stroke="#3371C2"/>
    <path d="M33.69 4.015v59.267h12.986c9.339 0 10.055-.963 10.298-10.317V14.332c0-9.358-.96-10.317-10.298-10.317z" fill="#dcdbdc" opacity=".1"/>
    <path d="M10.407 33.648v19.317c-.046 9.358.96 10.317 10.298 10.317h25.97c9.34 0 10.056-.963 10.299-10.317V33.648z" fill="#dcdbdc" opacity=".2"/>
    <path d="M41.099 63.282l15.875-15.875v5.949c-.014 8.994-1.006 9.926-10.1 9.926z" fill="#dcdbdc" opacity=".4"/>
</svg>
