<svg width="256" height="256" viewBox="0 0 67.73 67.73" xmlns="http://www.w3.org/2000/svg">
    <defs>
        <clipPath id="d">
            <path d="M102.922 44C67.625 44 63.827 47.625 64 82.994v146.012C63.827 264.375 67.625 268 102.922 268h98.156c35.297 0 38.922-3.625 38.922-38.994V82.994C240 47.625 236.375 44 201.078 44z" fill="url(#linearGradient3288)"/>
        </clipPath>
        <linearGradient id="c" x1="529.655" x2="-35.31" y1="401.584" y2="119.093" gradientTransform="matrix(0 -.11989 .11989 0 .363 292.548)" gradientUnits="userSpaceOnUse">
            <stop offset="0" stop-color="#dcdbdc"/>
            <stop offset="1" stop-color="#dcdbdc"/>
        </linearGradient>
        <linearGradient id="b" x1="88" x2="488" y1="88" y2="488" gradientUnits="userSpaceOnUse">
            <stop offset="0" stop-opacity=".588"/>
            <stop offset=".88" stop-opacity="0"/>
            <stop offset="1"/>
        </linearGradient>
        <filter id="a" x="-.01" y="-.01" width="1.026" height="1.022" color-interpolation-filters="sRGB">
            <feGaussianBlur stdDeviation="2.12"/>
        </filter>
    </defs>
    <path d="M20.705 4.015c-9.339 0-10.344.96-10.298 10.317v38.633c-.046 9.357.96 10.317 10.298 10.317h25.97c9.34 0 10.299-.96 10.299-10.317V14.332c0-9.358-.96-10.317-10.298-10.317z" fill="none" opacity=".2" stroke-width="1.058" stroke="#16181D"/>
    <path transform="matrix(.1323 0 0 .1323 -4.41 -5.51)" d="M189.843 74c-70.593 0-78.189 7.25-77.843 77.987v292.026c-.346 70.736 7.25 77.987 77.843 77.987h196.314c70.593 0 76.006-7.274 77.843-77.987V151.987C464 81.25 456.75 74 386.157 74z" filter="url(#a)" opacity=".1"/>
    <path transform="matrix(.1323 0 0 .1323 -4.41 -5.51)" d="M189.843 74c-70.593 0-78.189 7.25-77.843 77.987v292.026c-.346 70.736 7.25 77.987 77.843 77.987h196.314C456.75 522 464 514.75 464 444.013V151.987C464 81.25 456.75 74 386.157 74z" fill="url(#b)" filter="url(#filter4380)" opacity=".3"/>
    <path d="M20.705 233.282c-9.339 0-10.344.959-10.298 10.317v38.632c-.046 9.358.96 10.317 10.298 10.317h25.97c9.34 0 10.299-.959 10.299-10.317V243.6c0-9.358-.96-10.317-10.298-10.317z" fill="url(#c)" transform="translate(0 -229.267)"/>
    <g transform="matrix(.26458 0 0 .26458 -6.526 -7.627)" clip-path="url(#d)">
        <path d="M96 44h2v224h-2z" fill="#F26D4B" opacity=".1"/>
        <path d="M62 40v2h180v-2zm0 12v2h180v-2zm0 12v2h180v-2zm0 12v2h180v-2zm0 12v2h180v-2zm0 12v2h180v-2zm0 12v2h180v-2zm0 12v2h180v-2zm0 12v2h180v-2zm0 12v2h180v-2zm0 12.121v2h180v-2zm0 12v2h180v-2zM62 184v2h180v-2zm0 12v2h180v-2zm0 12v2h180v-2zm0 12v2h180v-2zm0 12v2h180v-2zm0 12v2h180v-2zm0 12v2h180v-2zm0 12v2h180v-2z" fill="#3371C2" opacity=".05"/>
    </g>
    <path d="M35.807 18.832v1.058h12.7v-1.058zm0 3.175v1.058h12.7v-1.058zm0 3.175v1.058h12.7v-1.058zm0 3.175v1.058h12.7v-1.058zm0 3.175v1.058h12.7v-1.058zm-16.933 3.175v1.058h29.633v-1.058zm0 3.175v1.058h29.633v-1.058zm0 3.175v1.058h29.633v-1.058zm0 3.175v1.058h29.633v-1.058zm0 3.175v1.058h16.933v-1.058z" fill="#353431"/>
    <path d="M25.377 17.773l-5.22 13.759h-1.283v1.058h3.704v-1.058h-1.186l1.237-3.178h6.139l1.235 3.178h-1.602v1.058h5.314v-1.058h-1.466l-5.223-13.759zm.321 2.382l2.703 7.146h-5.36z" font-size="13.717" font-weight="400" letter-spacing="0" overflow="visible" word-spacing="0" fill="#353431"/>
    <path d="M33.69 4.015v59.267h12.986c9.339 0 10.055-.963 10.298-10.317V14.332c0-9.358-.96-10.317-10.298-10.317z" fill="#dcdbdc" opacity=".1"/>
    <path d="M10.407 33.648v19.317c-.046 9.358.96 10.317 10.298 10.317h25.97c9.34 0 10.056-.963 10.299-10.317V33.648z" fill="#dcdbdc" opacity=".2"/>
    <path d="M41.099 63.282l15.875-15.875v5.949c-.014 8.994-1.006 9.926-10.1 9.926z" fill="#dcdbdc" opacity=".4"/>
    <path d="M20.705 4.015c-9.339 0-10.344.96-10.298 10.317v.53c-.046-9.358.96-10.318 10.298-10.318h25.97c9.34 0 10.299.96 10.299 10.317v-.529c0-9.358-.96-10.317-10.298-10.317z" fill="#dcdbdc" opacity=".6"/>
</svg>
