<svg width="256" height="256" viewBox="0 0 67.73 67.73" xmlns="http://www.w3.org/2000/svg">
    <defs>
        <linearGradient id="c" x1="529.655" x2="-35.31" y1="401.584" y2="119.093" gradientTransform="matrix(0 -.11989 -.11989 0 67.016 292.813)" gradientUnits="userSpaceOnUse">
            <stop offset="0" stop-color="#3371C2"/>
            <stop offset="1" stop-color="#3371C2"/>
        </linearGradient>
        <linearGradient id="b" x1="88" x2="488" y1="88" y2="488" gradientUnits="userSpaceOnUse">
            <stop offset="0" stop-opacity=".588"/>
            <stop offset=".88" stop-opacity="0"/>
            <stop offset="1"/>
        </linearGradient>
        <filter id="a" x="-.01" y="-.01" width="1.026" height="1.022" color-interpolation-filters="sRGB">
            <feGaussianBlur stdDeviation="2.12"/>
        </filter>
    </defs>
    <path transform="matrix(.1323 0 0 .1323 -4.41 -5.245)" d="M189.843 74c-70.593 0-78.189 7.25-77.843 77.987v292.026c-.346 70.736 7.25 77.987 77.843 77.987h196.314c70.593 0 76.006-7.274 77.843-77.987V151.987C464 81.25 456.75 74 386.157 74z" filter="url(#a)" opacity=".1"/>
    <path transform="matrix(.1323 0 0 .1323 -4.41 -5.245)" d="M189.843 74c-70.593 0-78.189 7.25-77.843 77.987v292.026c-.346 70.736 7.25 77.987 77.843 77.987h196.314C456.75 522 464 514.75 464 444.013V151.987C464 81.25 456.75 74 386.157 74z" fill="url(#b)" filter="url(#filter4380)" opacity=".3"/>
    <path d="M46.674 233.546c9.34 0 10.344.96 10.298 10.317v38.633c.046 9.358-.959 10.317-10.298 10.317h-25.97c-9.34 0-10.298-.96-10.298-10.317v-38.633c0-9.358.959-10.317 10.298-10.317z" fill="url(#c)" transform="translate(0 -229.267)"/>
    <path d="M34.36 19.096c-5.16.92-10.325 2.139-15.486 3.04 0 7.852-.003 15.706 0 23.56 5.134.899 10.271 2.098 15.395 3.034h1.538V19.096zm-1.996 9.599l-2.378 9.98-1.951-.153c-.448-2.23-.97-4.444-1.37-6.683-.394 2.175-.906 4.33-1.357 6.49-.647-.033-1.296-.073-1.946-.117-.559-2.963-1.215-5.905-1.737-8.874.575-.027 1.155-.05 1.73-.07.347 2.144.74 4.278 1.044 6.426.474-2.202.96-4.404 1.43-6.605.64-.037 1.28-.064 1.92-.098.447 2.273.905 4.541 1.39 6.804.38-2.337.801-4.666 1.208-7 .674-.023 1.347-.06 2.017-.1zM36.865 23.33H47.45v21.166H36.865V42.38h8.467V41.32h-8.467v-2.116h8.467v-1.059h-8.467V36.03h8.467V34.97h-8.467v-2.116h8.467v-1.059h-8.467v-2.113h8.467v-1.062h-8.467v-2.116h8.467v-1.059h-8.467z" fill="#dcdbdc"/>
    <path d="M33.69 4.28v59.266h12.986c9.339 0 10.055-.962 10.298-10.317V14.597c0-9.358-.96-10.317-10.298-10.317z" fill="#dcdbdc" opacity=".08"/>
    <path d="M10.407 33.913v19.316c-.046 9.358.96 10.317 10.298 10.317h25.97c9.34 0 10.056-.962 10.299-10.317V33.913z" fill="#dcdbdc" opacity=".08"/>
    <path d="M41.099 63.546l15.875-15.875v5.95c-.014 8.994-1.006 9.925-10.1 9.925z" fill="#dcdbdc" opacity=".08"/>
    <path d="M10.407 52.7v.529c-.046 9.358.96 10.317 10.298 10.317h25.97c9.34 0 10.056-.962 10.299-10.317v-.53c-.243 9.356-.96 10.318-10.298 10.318h-25.97c-9.34 0-10.345-.96-10.299-10.317z" opacity=".2"/>
    <path d="M20.705 4.28c-9.339 0-10.344.959-10.298 10.317v.529c-.046-9.358.96-10.317 10.298-10.317h25.97c9.34 0 10.299.959 10.299 10.317v-.53c0-9.357-.96-10.316-10.298-10.316z" fill="#dcdbdc" opacity=".4"/>
</svg>
