<svg width="256" height="256" viewBox="0 0 67.73 67.73" xmlns="http://www.w3.org/2000/svg">
    <defs>
        <linearGradient id="d" x1="208" x2="96" y1="28" y2="284" gradientTransform="matrix(-.26458 0 0 .26458 73.906 221.64)" gradientUnits="userSpaceOnUse">
            <stop offset="0"/>
            <stop offset="1" stop-color="#353431"/>
        </linearGradient>
        <linearGradient id="c" x1="529.655" x2="-35.31" y1="401.584" y2="119.093" gradientTransform="matrix(0 -.11989 -.11989 0 67.016 292.548)" gradientUnits="userSpaceOnUse">
            <stop offset="0" stop-color="#3371C2"/>
            <stop offset="1" stop-color="#dcdbdc"/>
        </linearGradient>
        <linearGradient id="b" x1="88" x2="488" y1="88" y2="488" gradientUnits="userSpaceOnUse">
            <stop offset="0" stop-opacity=".588"/>
            <stop offset=".88" stop-opacity="0"/>
            <stop offset="1"/>
        </linearGradient>
        <filter id="a" x="-.01" y="-.01" width="1.026" height="1.022" color-interpolation-filters="sRGB">
            <feGaussianBlur stdDeviation="2.12"/>
        </filter>
    </defs>
    <path transform="matrix(.1323 0 0 .1323 -4.41 -5.51)" d="M189.843 74c-70.593 0-78.189 7.25-77.843 77.987v292.026c-.346 70.736 7.25 77.987 77.843 77.987h196.314c70.593 0 76.006-7.274 77.843-77.987V151.987C464 81.25 456.75 74 386.157 74z" filter="url(#a)" opacity=".1"/>
    <path transform="matrix(.1323 0 0 .1323 -4.41 -5.51)" d="M189.843 74c-70.593 0-78.189 7.25-77.843 77.987v292.026c-.346 70.736 7.25 77.987 77.843 77.987h196.314C456.75 522 464 514.75 464 444.013V151.987C464 81.25 456.75 74 386.157 74z" fill="url(#b)" filter="url(#filter4380)" opacity=".3"/>
    <path d="M46.674 233.282c9.34 0 10.344.959 10.298 10.317v38.632c.046 9.358-.959 10.317-10.298 10.317h-25.97c-9.34 0-10.298-.959-10.298-10.317V243.6c0-9.358.959-10.317 10.298-10.317z" fill="url(#c)" transform="translate(0 -229.267)"/>
    <path d="M46.675 235.398c2.298 0 4.033.07 5.204.267 1.172.197 1.677.473 1.969.764.292.291.566.79.76 1.957.194 1.167.26 2.901.248 5.202v38.653c.011 2.301-.054 4.035-.248 5.203-.194 1.167-.468 1.665-.76 1.956-.292.291-.797.568-1.969.765-1.171.196-2.906.266-5.204.266h-25.97c-2.298 0-4.033-.07-5.205-.266-1.171-.197-1.676-.474-1.968-.765-.292-.29-.566-.789-.76-1.956-.188-1.13-.253-2.8-.247-4.991v-.03l-.002-.192v-38.642c-.01-2.302.055-4.036.249-5.203.194-1.168.468-1.666.76-1.957.292-.291.797-.568 1.968-.764 1.172-.197 2.907-.267 5.205-.267h12.984z" fill="url(#d)" transform="translate(0 -229.267)"/>
    <path d="M10.407 52.435v.53c-.046 9.357.96 10.317 10.298 10.317h25.97c9.34 0 10.056-.963 10.299-10.318v-.529c-.243 9.355-.96 10.317-10.298 10.317h-25.97c-9.34 0-10.345-.959-10.299-10.317z" opacity=".2"/>
    <path class="st1" d="M21.66 21.844c0-.135.272-.232.427-.232a115.93 115.93 0 0 1 5.006-.097c5.374 0 7.47 2.949 7.47 6.732 0 4.929-3.57 7.044-7.955 7.044-.738 0-.99-.04-1.514-.04v7.451c0 .156-.058.233-.233.233h-2.968c-.155 0-.233-.058-.233-.233zm3.454 10.303c.446.04.795.04 1.571.04 2.27 0 4.405-.796 4.405-3.882 0-2.464-1.533-3.705-4.114-3.705-.776 0-1.513.038-1.862.058zM41.8 29.838c-1.533 0-2.057.776-2.057 1.417 0 .698.35 1.183 2.406 2.25 3.046 1.475 3.997 2.891 3.997 4.968 0 3.104-2.367 4.773-5.568 4.773-1.688 0-3.144-.35-3.978-.835-.136-.058-.155-.155-.155-.31v-2.852c0-.194.097-.253.233-.156a7.202 7.202 0 0 0 3.9 1.145c1.532 0 2.173-.64 2.173-1.513 0-.699-.447-1.32-2.406-2.329-2.755-1.319-3.9-2.658-3.9-4.889 0-2.503 1.96-4.58 5.355-4.58 1.669 0 2.833.253 3.473.544.155.097.194.252.194.388v2.658c0 .156-.097.253-.29.194-.855-.543-2.116-.873-3.377-.873z" fill="#3371C2"/>
    <path d="M10.407 33.648v19.317c-.046 9.358.96 10.317 10.298 10.317h25.97c9.34 0 10.056-.963 10.299-10.317V33.648z" fill="#dcdbdc" opacity=".05"/>
    <path d="M33.689 4.015v59.267h12.985c9.34 0 10.055-.963 10.298-10.317V14.332c0-9.358-.959-10.317-10.298-10.317z" fill="#dcdbdc" opacity=".05"/>
    <path d="M41.099 63.282l15.875-15.875v5.949c-.014 8.994-1.006 9.926-10.1 9.926z" fill="#dcdbdc" opacity=".1"/>
    <path d="M20.705 4.015c-9.339 0-10.344.96-10.298 10.317v.53c-.046-9.358.96-10.318 10.298-10.318h25.97c9.34 0 10.299.96 10.299 10.317v-.529c0-9.358-.96-10.317-10.298-10.317z" fill="#dcdbdc" opacity=".4"/>
</svg>
