<svg width="256" height="256" viewBox="0 0 67.73 67.73" xmlns="http://www.w3.org/2000/svg">
    <defs>
        <linearGradient id="c" x1="529.655" x2="-35.31" y1="401.584" y2="119.093" gradientTransform="matrix(0 -.11989 .11989 0 .363 292.548)" gradientUnits="userSpaceOnUse">
            <stop offset="0" stop-color="#dcdbdc"/>
            <stop offset="1" stop-color="#dcdbdc"/>
        </linearGradient>
        <linearGradient id="b" x1="88" x2="488" y1="88" y2="488" gradientUnits="userSpaceOnUse">
            <stop offset="0" stop-opacity=".588"/>
            <stop offset=".88" stop-opacity="0"/>
            <stop offset="1"/>
        </linearGradient>
        <filter id="a" x="-.01" y="-.01" width="1.026" height="1.022" color-interpolation-filters="sRGB">
            <feGaussianBlur stdDeviation="2.12"/>
        </filter>
    </defs>
    <path d="M20.705 4.015c-9.339 0-10.344.96-10.298 10.317v38.633c-.046 9.357.96 10.317 10.298 10.317h25.97c9.34 0 10.299-.96 10.299-10.317V14.332c0-9.358-.96-10.317-10.298-10.317z" fill="none" opacity=".2" stroke-width="1.058" stroke="#16181D"/>
    <path transform="matrix(.1323 0 0 .1323 -4.41 -5.51)" d="M189.843 74c-70.593 0-78.189 7.25-77.843 77.987v292.026c-.346 70.736 7.25 77.987 77.843 77.987h196.314c70.593 0 76.006-7.274 77.843-77.987V151.987C464 81.25 456.75 74 386.157 74z" filter="url(#a)" opacity=".1"/>
    <path transform="matrix(.1323 0 0 .1323 -4.41 -5.51)" d="M189.843 74c-70.593 0-78.189 7.25-77.843 77.987v292.026c-.346 70.736 7.25 77.987 77.843 77.987h196.314C456.75 522 464 514.75 464 444.013V151.987C464 81.25 456.75 74 386.157 74z" fill="url(#b)" filter="url(#filter4380)" opacity=".3"/>
    <path d="M20.705 233.282c-9.339 0-10.344.959-10.298 10.317v38.632c-.046 9.358.96 10.317 10.298 10.317h25.97c9.34 0 10.299-.959 10.299-10.317V243.6c0-9.358-.96-10.317-10.298-10.317z" fill="url(#c)" transform="translate(0 -229.267)"/>
    <path d="M20.705 4.015c-9.339 0-10.344.96-10.298 10.317v.53c-.046-9.358.96-10.318 10.298-10.318h25.97c9.34 0 10.299.96 10.299 10.317v-.529c0-9.358-.96-10.317-10.298-10.317z" fill="#dcdbdc" opacity=".6"/>
    <path d="M40.747 23.074l.254.339-1.237 4.762-.47.08-2.997-4.763.216-.418zm-9.881 0l.208.428-3.526 5.027-.47-.122-.707-5.027.262-.306zm12.552.095l5.292 6.88-.204.434h-7.408l-.251-.349 2.117-6.879zm-9.525 0l5.292 6.88-.204.434H28.398l-.203-.435 5.291-6.879zm-9.932 0l.454.086 2.117 6.88-.25.348h-7.41l-.202-.435zm24.545 8.372l.194.445L34.942 47.33l-.437-.284 6.35-15.346.243-.16zm-9.525 0l.244.366-5.291 13.23h-.489l-5.291-13.23.244-.366zm-12.7 0l.243.16 6.35 15.346-.437.284L18.68 31.986l.194-.445z" fill-rule="evenodd" fill="#F26D4B"/>
    <path d="M33.69 4.015v59.267h12.986c9.339 0 10.055-.963 10.298-10.317V14.332c0-9.358-.96-10.317-10.298-10.317z" fill="#dcdbdc" opacity=".1"/>
    <path d="M10.407 33.648v19.317c-.046 9.358.96 10.317 10.298 10.317h25.97c9.34 0 10.056-.963 10.299-10.317V33.648z" fill="#dcdbdc" opacity=".1"/>
    <path d="M41.099 63.282l15.875-15.875v5.949c-.014 8.994-1.006 9.926-10.1 9.926z" fill="#dcdbdc" opacity=".1"/>
</svg>
