<svg width="256" height="256" viewBox="0 0 67.73 67.73" xmlns="http://www.w3.org/2000/svg">
    <defs>
        <linearGradient id="c" x1="529.655" x2="-35.31" y1="401.584" y2="119.093" gradientTransform="matrix(0 -.11989 -.11989 0 67.016 292.548)" gradientUnits="userSpaceOnUse">
            <stop offset="0" stop-color="#97C378"/>
            <stop offset="1" stop-color="#97C378"/>
        </linearGradient>
        <linearGradient id="b" x1="88" x2="488" y1="88" y2="488" gradientUnits="userSpaceOnUse">
            <stop offset="0" stop-opacity=".588"/>
            <stop offset=".88" stop-opacity="0"/>
            <stop offset="1"/>
        </linearGradient>
        <filter id="a" x="-.01" y="-.01" width="1.026" height="1.022" color-interpolation-filters="sRGB">
            <feGaussianBlur stdDeviation="2.12"/>
        </filter>
    </defs>
    <path transform="matrix(.1323 0 0 .1323 -4.41 -5.51)" d="M189.843 74c-70.593 0-78.189 7.25-77.843 77.987v292.026c-.346 70.736 7.25 77.987 77.843 77.987h196.314c70.593 0 76.006-7.274 77.843-77.987V151.987C464 81.25 456.75 74 386.157 74z" filter="url(#a)" opacity=".1"/>
    <path transform="matrix(.1323 0 0 .1323 -4.41 -5.51)" d="M189.843 74c-70.593 0-78.189 7.25-77.843 77.987v292.026c-.346 70.736 7.25 77.987 77.843 77.987h196.314C456.75 522 464 514.75 464 444.013V151.987C464 81.25 456.75 74 386.157 74z" fill="url(#b)" filter="url(#filter4380)" opacity=".3"/>
    <path d="M46.674 233.282c9.34 0 10.344.959 10.298 10.317v38.632c.046 9.358-.959 10.317-10.298 10.317h-25.97c-9.34 0-10.298-.959-10.298-10.317V243.6c0-9.358.959-10.317 10.298-10.317z" fill="url(#c)" transform="translate(0 -229.267)"/>
    <path d="M34.36 18.832c-5.16.919-10.324 2.138-15.485 3.04 0 7.851-.004 15.705 0 23.56 5.134.898 10.27 2.097 15.394 3.033h1.538V18.832zm-3.445 9.237a697.366 697.366 0 0 1-2.716 5.517c.925 1.885 1.871 3.757 2.8 5.642-.81-.047-1.619-.098-2.43-.155-.572-1.404-1.27-2.76-1.68-4.228-.458 1.367-1.11 2.656-1.636 3.996-.737-.01-1.474-.04-2.212-.071.865-1.693 1.7-3.4 2.592-5.083-.757-1.734-1.588-3.434-2.37-5.157.741-.044 1.482-.087 2.223-.128.501 1.316 1.05 2.615 1.464 3.965.444-1.43 1.107-2.777 1.676-4.16.76-.054 1.525-.101 2.29-.138zM36.865 23.065v2.117h3.175v2.116h-3.175v1.059h3.175v2.12h-3.175v1.055h3.175v2.116h-3.175v1.059h3.175v2.116h-3.175v1.059h3.175v2.116h-3.175v1.059h3.175v2.116h-3.175v2.117H47.45V23.065zm4.234 2.117h4.233v2.116h-4.233zm0 3.175h4.233v2.12h-4.233zm0 3.175h4.233v2.116h-4.233zm0 3.175h4.233v2.116h-4.233zm0 3.175h4.233v2.116h-4.233zm0 3.175h4.233v2.116h-4.233z" fill="#dcdbdc"/>
    <path d="M33.69 4.015v59.267h12.986c9.339 0 10.055-.963 10.298-10.317V14.332c0-9.358-.96-10.317-10.298-10.317z" fill="#dcdbdc" opacity=".08"/>
    <path d="M10.407 33.648v19.317c-.046 9.358.96 10.317 10.298 10.317h25.97c9.34 0 10.056-.963 10.299-10.317V33.648z" fill="#dcdbdc" opacity=".08"/>
    <path d="M41.099 63.282l15.875-15.875v5.949c-.014 8.994-1.006 9.926-10.1 9.926z" fill="#dcdbdc" opacity=".08"/>
    <path d="M10.407 52.435v.53c-.046 9.357.96 10.317 10.298 10.317h25.97c9.34 0 10.056-.963 10.299-10.318v-.529c-.243 9.355-.96 10.317-10.298 10.317h-25.97c-9.34 0-10.345-.959-10.299-10.317z" opacity=".2"/>
    <path d="M20.705 4.015c-9.339 0-10.344.96-10.298 10.317v.53c-.046-9.358.96-10.318 10.298-10.318h25.97c9.34 0 10.299.96 10.299 10.317v-.529c0-9.358-.96-10.317-10.298-10.317z" fill="#dcdbdc" opacity=".4"/>
</svg>
