<svg width="256" height="256" viewBox="0 0 67.73 67.73" xmlns="http://www.w3.org/2000/svg">
    <defs>
        <linearGradient id="c" x1="529.655" x2="-35.31" y1="401.584" y2="119.093" gradientTransform="matrix(0 -.11989 -.11989 0 67.016 292.813)" gradientUnits="userSpaceOnUse">
            <stop offset="0" stop-color="#3371C2"/>
            <stop offset="1" stop-color="#3371C2"/>
        </linearGradient>
        <linearGradient id="b" x1="88" x2="488" y1="88" y2="488" gradientUnits="userSpaceOnUse">
            <stop offset="0" stop-opacity=".588"/>
            <stop offset=".88" stop-opacity="0"/>
            <stop offset="1"/>
        </linearGradient>
        <filter id="a" x="-.01" y="-.01" width="1.026" height="1.022" color-interpolation-filters="sRGB">
            <feGaussianBlur stdDeviation="2.12"/>
        </filter>
    </defs>
    <path transform="matrix(.1323 0 0 .1323 -4.41 -5.245)" d="M189.843 74c-70.593 0-78.189 7.25-77.843 77.987v292.026c-.346 70.736 7.25 77.987 77.843 77.987h196.314c70.593 0 76.006-7.274 77.843-77.987V151.987C464 81.25 456.75 74 386.157 74z" filter="url(#a)" opacity=".1"/>
    <path transform="matrix(.1323 0 0 .1323 -4.41 -5.245)" d="M189.843 74c-70.593 0-78.189 7.25-77.843 77.987v292.026c-.346 70.736 7.25 77.987 77.843 77.987h196.314C456.75 522 464 514.75 464 444.013V151.987C464 81.25 456.75 74 386.157 74z" fill="url(#b)" filter="url(#filter4380)" opacity=".3"/>
    <path d="M46.674 233.546c9.34 0 10.344.96 10.298 10.317v38.633c.046 9.358-.959 10.317-10.298 10.317h-25.97c-9.34 0-10.298-.96-10.298-10.317v-38.633c0-9.358.959-10.317 10.298-10.317z" fill="url(#c)" transform="translate(0 -229.267)"/>
    <path d="M41.099 63.546l15.875-15.875v5.95c-.014 8.994-1.006 9.925-10.1 9.925z" fill="#dcdbdc" opacity=".08"/>
    <path d="M10.407 52.7v.529c-.046 9.358.96 10.317 10.298 10.317h25.97c9.34 0 10.056-.962 10.299-10.317v-.53c-.243 9.356-.96 10.318-10.298 10.318h-25.97c-9.34 0-10.345-.96-10.299-10.317z" opacity=".2"/>
    <path d="M20.705 4.28c-9.339 0-10.344.959-10.298 10.317v.529c-.046-9.358.96-10.317 10.298-10.317h25.97c9.34 0 10.299.959 10.299 10.317v-.53c0-9.357-.96-10.316-10.298-10.316z" fill="#dcdbdc" opacity=".4"/>
    <path d="M33.69 16.98c-9.344 0-16.934 7.59-16.934 16.933s7.59 16.933 16.934 16.933c9.343 0 16.933-7.59 16.933-16.933S43.033 16.98 33.69 16.98zm-8.663 11.516c1.98-.053 3.944 1.293 4.761 3.45 1.006 2.654-.104 5.541-2.476 6.44-2.372.898-5.116-.529-6.121-3.183-1.006-2.655.104-5.542 2.476-6.44a4.142 4.142 0 0 1 1.36-.267zm17.617 0a4.15 4.15 0 0 1 1.36.267c2.371.898 3.482 3.785 2.477 6.44-1.006 2.654-3.75 4.081-6.121 3.183-2.372-.899-3.483-3.786-2.478-6.44.817-2.157 2.782-3.503 4.762-3.45z" fill="#F0DD3F" opacity=".8"/>
    <path d="M33.69 4.28v59.266h12.986c9.339 0 10.055-.962 10.298-10.317V14.597c0-9.358-.96-10.317-10.298-10.317z" fill="#dcdbdc" opacity=".08"/>
    <path d="M10.407 33.913v19.316c-.046 9.358.96 10.317 10.298 10.317h25.97c9.34 0 10.056-.962 10.299-10.317V33.913z" fill="#dcdbdc" opacity=".08"/>
</svg>
