<svg width="256" height="256" viewBox="0 0 67.73 67.73" xmlns="http://www.w3.org/2000/svg">
    <defs>
        <linearGradient id="c" x1="529.655" x2="-35.31" y1="401.584" y2="119.093" gradientTransform="matrix(0 -.11989 .11989 0 .363 292.548)" gradientUnits="userSpaceOnUse">
            <stop offset="0" stop-color="#dcdbdc"/>
            <stop offset="1" stop-color="#dcdbdc"/>
        </linearGradient>
        <linearGradient id="b" x1="88" x2="488" y1="88" y2="488" gradientUnits="userSpaceOnUse">
            <stop offset="0" stop-opacity=".588"/>
            <stop offset=".88" stop-opacity="0"/>
            <stop offset="1"/>
        </linearGradient>
        <filter id="a" x="-.01" y="-.01" width="1.026" height="1.022" color-interpolation-filters="sRGB">
            <feGaussianBlur stdDeviation="2.12"/>
        </filter>
    </defs>
    <path d="M20.705 4.015c-9.339 0-10.344.96-10.298 10.317v38.633c-.046 9.357.96 10.317 10.298 10.317h25.97c9.34 0 10.299-.96 10.299-10.317V14.332c0-9.358-.96-10.317-10.298-10.317z" fill="none" opacity=".2" stroke-width="1.058" stroke="#16181D"/>
    <path transform="matrix(.1323 0 0 .1323 -4.41 -5.51)" d="M189.843 74c-70.593 0-78.189 7.25-77.843 77.987v292.026c-.346 70.736 7.25 77.987 77.843 77.987h196.314c70.593 0 76.006-7.274 77.843-77.987V151.987C464 81.25 456.75 74 386.157 74z" filter="url(#a)" opacity=".1"/>
    <path transform="matrix(.1323 0 0 .1323 -4.41 -5.51)" d="M189.843 74c-70.593 0-78.189 7.25-77.843 77.987v292.026c-.346 70.736 7.25 77.987 77.843 77.987h196.314C456.75 522 464 514.75 464 444.013V151.987C464 81.25 456.75 74 386.157 74z" fill="url(#b)" filter="url(#filter4380)" opacity=".3"/>
    <path d="M20.705 233.282c-9.339 0-10.344.959-10.298 10.317v38.632c-.046 9.358.96 10.317 10.298 10.317h25.97c9.34 0 10.299-.959 10.299-10.317V243.6c0-9.358-.96-10.317-10.298-10.317z" fill="url(#c)" transform="translate(0 -229.267)"/>
    <path d="M17.815 20.948V45.29h11.642c2.354 0 3.807 1.898 3.807 1.898l.003.004.415.55.427-.542.004-.005s1.491-1.868 3.81-1.905h11.642V20.948H37.924c-2.035 0-3.133.876-3.865 1.587l-.369.358-.369-.358c-.732-.711-1.83-1.587-3.864-1.587zm1.059 1.059h10.583c2.368 0 3.805 1.896 3.805 1.896l.002.003.426.57.427-.57.002-.003s1.437-1.896 3.805-1.896h10.583v22.225H37.914c-2.012.029-3.12.902-3.851 1.599l-.369.35-.365-.355c-.714-.696-1.924-1.692-3.872-1.594H18.874V22.536z" fill="#353431"/>
    <path d="M26.811 25.71v.53h3.704v-.53zm10.054 0v.53h9.525v-.53zm-10.054 2.117v.53h3.704v-.53zm10.054 0v.53h9.525v-.53zm-10.054 2.117v.53h3.704v-.53zm10.054 0v.53h9.525v-.53zM20.99 32.061v.529h9.525v-.53zm15.875 0v.529h9.525v-.53zM20.99 34.177v.53h9.525v-.53zm15.875 0v.53h9.525v-.53zM20.99 36.294v.53h9.525v-.53zm15.875 0v.53h9.525v-.53zM20.99 38.411v.529h9.525v-.53zm15.875 0v.529h9.525v-.53zM20.99 40.527v.53h9.525v-.53zm15.875 0v.53h5.292v-.53z" fill="#353431"/>
    <path d="M23.08 25.71l-1.677 4.423h-.413v.34h1.19v-.34h-.38l.397-1.021h1.974l.397 1.021h-.515v.34h1.708v-.34h-.471l-1.68-4.422zm.104.766l.869 2.297H22.33z" font-size="13.717" font-weight="400" letter-spacing="0" overflow="visible" word-spacing="0" fill="gray"/>
    <path d="M33.69 4.015v59.267h12.986c9.339 0 10.055-.963 10.298-10.317V14.332c0-9.358-.96-10.317-10.298-10.317z" fill="#dcdbdc" opacity=".1"/>
    <path d="M10.407 33.648v19.317c-.046 9.358.96 10.317 10.298 10.317h25.97c9.34 0 10.056-.963 10.299-10.317V33.648z" fill="#dcdbdc" opacity=".2"/>
    <path d="M41.099 63.282l15.875-15.875v5.949c-.014 8.994-1.006 9.926-10.1 9.926z" fill="#dcdbdc" opacity=".4"/>
    <path d="M20.705 4.015c-9.339 0-10.344.96-10.298 10.317v.53c-.046-9.358.96-10.318 10.298-10.318h25.97c9.34 0 10.299.96 10.299 10.317v-.529c0-9.358-.96-10.317-10.298-10.317z" fill="#dcdbdc" opacity=".6"/>
</svg>
