<svg width="256" height="256" viewBox="0 0 67.73 67.73" xmlns="http://www.w3.org/2000/svg" xmlns:xlink="http://www.w3.org/1999/xlink">
    <defs>
        <linearGradient id="g" x1="1278" x2="1278" y1="-1062.638" y2="-1118.638" gradientTransform="matrix(2 0 0 2.00002 -1069 630.656)" gradientUnits="userSpaceOnUse">
            <stop offset="0" stop-color="#C677DD"/>
            <stop offset="1" stop-color="#dcdbdc"/>
        </linearGradient>
        <linearGradient id="h" x1="1559.5" x2="1542" y1="184" y2="184" gradientTransform="matrix(-1 0 0 1 2865 -1753.64)" gradientUnits="userSpaceOnUse" xlink:href="#a"/>
        <linearGradient id="a">
            <stop offset="0" stop-color="#C677DD"/>
            <stop offset="1" stop-color="#C677DD" stop-opacity="0"/>
        </linearGradient>
        <linearGradient id="i" x1="1559.5" x2="1542" y1="184" y2="184" gradientTransform="translate(-123 -1753.64)" gradientUnits="userSpaceOnUse" xlink:href="#a"/>
        <linearGradient id="k" x1="453.5" x2="404.5" y1="970.5" y2="970.5" gradientTransform="matrix(2 0 0 2 513 -3495.64)" gradientUnits="userSpaceOnUse">
            <stop offset="0" stop-color="#C677DD"/>
            <stop offset=".13" stop-color="#dcdbdc"/>
            <stop offset=".314" stop-color="#C677DD"/>
            <stop offset=".441" stop-color="#C677DD"/>
            <stop offset=".684" stop-color="#dcdbdc"/>
            <stop offset=".756" stop-color="#C677DD"/>
            <stop offset=".88" stop-color="#C677DD"/>
            <stop offset="1" stop-color="#dcdbdc"/>
        </linearGradient>
        <linearGradient id="l" x1="1322" x2="1419" y1="-1568.511" y2="-1568.511" gradientTransform="translate(.023)" gradientUnits="userSpaceOnUse">
            <stop offset="0" stop-color="#C677DD"/>
            <stop offset=".273" stop-color="#C677DD"/>
            <stop offset=".51" stop-color="#C677DD"/>
            <stop offset=".834" stop-color="#C677DD"/>
            <stop offset="1" stop-color="#C677DD"/>
        </linearGradient>
        <linearGradient id="o" x1="1510.477" x2="1485.877" y1="169" y2="194" gradientTransform="matrix(.98448 0 0 .97253 -100.349 -1748.97)" gradientUnits="userSpaceOnUse" xlink:href="#b"/>
        <linearGradient id="b">
            <stop offset="0" stop-color="#dcdbdc"/>
            <stop offset="1" stop-color="#dcdbdc" stop-opacity="0"/>
        </linearGradient>
        <linearGradient id="p" x1="1354.568" x2="1383.38" y1="-1522.359" y2="-1543.981" gradientTransform="matrix(.97626 .12643 -.36742 .97673 -556.181 -210.596)" gradientUnits="userSpaceOnUse" xlink:href="#b"/>
        <radialGradient id="j" cx="152.333" cy="-754.638" r="15" gradientTransform="matrix(0 1.01528 -4.27735 0 -1857.01 -1670.52)" gradientUnits="userSpaceOnUse">
            <stop offset="0" stop-color="purple"/>
            <stop offset=".727" stop-color="purple"/>
            <stop offset="1" stop-color="#C677DD" stop-opacity="0"/>
        </radialGradient>
        <radialGradient id="m" cx="518.854" cy="730.484" r="22.89" gradientTransform="matrix(.95982 0 0 .26823 21.681 534.374)" gradientUnits="userSpaceOnUse">
            <stop offset="0" stop-color="#C677DD"/>
            <stop offset="1" stop-color="#dcdbdc"/>
        </radialGradient>
        <linearGradient id="f" x1="208" x2="96" y1="28" y2="284" gradientTransform="matrix(.26458 0 0 .26458 -6.526 221.64)" gradientUnits="userSpaceOnUse">
            <stop offset="0" stop-color="#dcdbdc"/>
            <stop offset="1" stop-color="#dcdbdc"/>
        </linearGradient>
        <linearGradient id="e" x1="529.655" x2="-35.31" y1="401.584" y2="119.093" gradientTransform="matrix(0 -.11989 -.11989 0 67.016 292.548)" gradientUnits="userSpaceOnUse">
            <stop offset="0" stop-color="#C677DD"/>
            <stop offset="1" stop-color="#C677DD"/>
        </linearGradient>
        <linearGradient id="d" x1="88" x2="488" y1="88" y2="488" gradientUnits="userSpaceOnUse">
            <stop offset="0" stop-opacity=".588"/>
            <stop offset=".88" stop-opacity="0"/>
            <stop offset="1"/>
        </linearGradient>
        <filter id="c" x="-.01" y="-.01" width="1.026" height="1.022" color-interpolation-filters="sRGB">
            <feGaussianBlur stdDeviation="2.12"/>
        </filter>
        <linearGradient id="n" x1="1372.884" x2="1372.884" y1="-1544.389" y2="-1558.638" gradientTransform="translate(0 -.5)" gradientUnits="userSpaceOnUse">
            <stop offset="0" stop-color="#dcdbdc"/>
            <stop offset="1" stop-color="#F26D4B" stop-opacity="0"/>
        </linearGradient>
    </defs>
    <path transform="matrix(.1323 0 0 .1323 -4.41 -5.51)" d="M189.843 74c-70.593 0-78.189 7.25-77.843 77.987v292.026c-.346 70.736 7.25 77.987 77.843 77.987h196.314c70.593 0 76.006-7.274 77.843-77.987V151.987C464 81.25 456.75 74 386.157 74z" filter="url(#c)" opacity=".1"/>
    <path transform="matrix(.1323 0 0 .1323 -4.41 -5.51)" d="M189.843 74c-70.593 0-78.189 7.25-77.843 77.987v292.026c-.346 70.736 7.25 77.987 77.843 77.987h196.314C456.75 522 464 514.75 464 444.013V151.987C464 81.25 456.75 74 386.157 74z" fill="url(#d)" filter="url(#filter4380)" opacity=".3"/>
    <path d="M46.674 233.282c9.34 0 10.344.959 10.298 10.317v38.632c.046 9.358-.959 10.317-10.298 10.317h-25.97c-9.34 0-10.298-.959-10.298-10.317V243.6c0-9.358.959-10.317 10.298-10.317z" fill="url(#e)" transform="translate(0 -229.267)"/>
    <path d="M20.705 290.432c-2.298 0-4.033-.07-5.205-.267s-1.676-.473-1.968-.764c-.292-.291-.566-.79-.76-1.957-.194-1.167-.26-2.901-.248-5.203V243.59c-.012-2.302.054-4.035.248-5.203.194-1.167.468-1.665.76-1.956.292-.292.797-.568 1.968-.765s2.907-.266 5.205-.266h22.51l11.642 11.641v35.191c0 2.303-.07 4.04-.267 5.21-.196 1.17-.471 1.672-.761 1.963-.29.29-.789.565-1.956.761-1.167.196-2.899.267-5.197.267z" fill="url(#f)" transform="translate(0 -229.267)"/>
    <g transform="matrix(.23151 0 0 .23151 -283.71 391.975)">
        <path d="M1307-1602.638v6h28v-6zm32 0v6h30v-6zm34 0v6h30v-6zm34 0v6h28v-6zm-100 10v8h28v-8zm32 0v8h30v-8zm34 0v8h30v-8zm34 0v8h28v-8zm-100 12v8h28v-8zm32 0v8h30v-8zm34 0v8h30v-8zm34 0v8h28v-8zm-100 12v8h28v-8zm32 0v8h30v-8zm34 0v8h30v-8zm34 0v8h28v-8zm-100 12v8h28v-8zm32 0v8h30v-8zm34 0v8h30v-8zm34 0v8h28v-8zm-100 12v8h28v-8zm32 0v8h30v-8zm34 0v8h30v-8zm34 0v8h28v-8zm-100 12v8h28v-8zm32 0v8h30v-8zm34 0v8h30v-8zm34 0v8h28v-8zm-100 12v8h28v-8zm32 0v8h30v-8zm34 0v8h30v-8zm34 0v8h28v-8zm-100 12v8h28v-8zm32 0v8h30v-8zm34 0v8h30v-8zm34 0v8h28v-8zm-100 12v6h28v-6zm32 0v6h30v-6zm34 0v6h30v-6zm34 0v6h28v-6z" fill="url(#g)"/>
        <path d="M1307-1602.638v1h28v-1zm32 0v1h30v-1zm34 0v1h30v-1zm34 0v1h28v-1zm-100 10v1h28v-1zm32 0v1h30v-1zm34 0v1h30v-1zm34 0v1h28v-1zm-100 12v1h28v-1zm32 0v1h30v-1zm34 0v1h30v-1zm34 0v1h28v-1zm-100 12v1h28v-1zm32 0v1h30v-1zm34 0v1h30v-1zm34 0v1h28v-1zm-100 12v1h28v-1zm32 0v1h30v-1zm34 0v1h30v-1zm34 0v1h28v-1zm-100 12v1h28v-1zm32 0v1h30v-1zm34 0v1h30v-1zm34 0v1h28v-1zm-100 12v1h28v-1zm32 0v1h30v-1zm34 0v1h30v-1zm34 0v1h28v-1zm-100 12v1h28v-1zm32 0v1h30v-1zm34 0v1h30v-1zm34 0v1h28v-1zm-100 12v1h28v-1zm32 0v1h30v-1zm34 0v1h30v-1zm34 0v1h28v-1zm-100 12v1h28v-1zm32 0v1h30v-1zm34 0v1h30v-1zm34 0v1h28v-1z" fill="purple" opacity=".25"/>
        <path d="M1336.867-1582.857c-4.423 1.106-8 2.641-10.563 4.282-2.562 1.64-4.21 3.591-4.219 5.937-.078 19.65-.062 38.386-.062 54 0 2.294 1.651 4.262 4.22 5.906 2.567 1.645 6.188 3.057 10.593 4.25 8.81 2.386 20.86 3.844 34.187 3.844s25.378-1.458 34.188-3.844c4.405-1.193 8.025-2.605 10.594-4.25 2.568-1.644 4.196-3.623 4.196-5.917v-54c0-2.346-1.696-4.286-4.258-5.926-2.563-1.641-6.163-3.09-10.563-4.282-8.8-2.383-20.826-3.78-34.156-3.78-13.42 0-24.7 1.417-34.157 3.78zm34.156-1.78c13.188-.025 25.115 1.459 33.687 3.78 4.287 1.161 7.736 2.593 10.032 4.063 2.295 1.47 3.461 2.918 3.343 4.156-.21 2.205-2.578 3.735-4.25 4.688-2.71 1.545-5.951 2.71-8.874 3.468-9.981 2.59-19.948 3.535-29.532 3.78-13.26.214-26.41-.73-38.53-3.841-2.814-.734-5.25-1.638-7.657-2.844-2.161-1.083-5.063-2.882-5.28-5.25-.118-1.273 1.047-2.686 3.343-4.156 2.296-1.47 5.697-3.094 10.031-4.062 11.926-2.665 23.655-3.764 33.687-3.783zm-47 16.124a12.121 12.121 0 0 0 2.281 1.813c3.29 1.996 7.308 3.487 10.563 4.28 13.105 3.04 26.117 4.087 38.625 3.72 10.112-.32 20.321-1.07 29.687-3.72 4.635-1.31 9.565-2.895 12.844-6.093v12.875c0 .582 0 1.221-.125 1.719-.273 1.105-1.369 2.437-3.344 3.594-3.264 1.911-6.839 3.083-10 3.937-11.231 2.74-22.915 3.735-33.53 3.75-11.457-.088-23.537-1.125-33.688-3.781-4.357-1.375-8.725-2.562-11.875-5.469-.725-.677-1.134-1.406-1.312-2.031-.162-.566-.124-1.122-.124-1.719v-12.875zm0 18.031c.388.384.835.765 1.312 1.125 3.833 2.649 8.6 4.188 12.75 5.22 11.482 2.606 21.651 3.477 32.938 3.499 11.353-.233 22.474-.814 32.937-3.5 3.705-.966 7.681-2.385 10.688-3.906 1.144-.579 2.937-2.034 3.375-2.438v12.844c0 .582 0 1.22-.125 1.719-.273 1.105-1.402 2.381-3.344 3.593-4.288 2.516-9.373 3.904-13.843 4.875-10.39 2.017-19.909 2.799-29.688 2.813-4.946 0-9.711-.172-14.187-.594-10.05-1.229-18.982-2.152-27.5-6.063a15.468 15.468 0 0 1-3.875-2.593 4.643 4.643 0 0 1-1.312-2.031 2.59 2.59 0 0 1-.124-.719c-.035-4.614 0-9.23 0-13.844zm0 18c1.566 1.541 3.638 2.705 5.53 3.5 8.676 3.598 18.944 5.062 27.126 5.75 4.935.406 9.77.595 14.344.594 11.368-.184 22.449-.886 32.937-3.5 4.219-1.145 8.17-2.41 11.657-4.469.934-.555 1.67-1.193 2.406-1.875v13.844c0 1.296-1.023 2.753-3.312 4.219-2.29 1.466-5.72 2.84-10 4-8.563 2.319-20.506 3.78-33.688 3.78-13.182 0-25.125-1.461-33.687-3.78-4.282-1.16-7.71-2.534-10-4-2.29-1.466-3.313-2.923-3.313-4.22v-13.843z" fill="none" opacity=".5" stroke-width="1.143" stroke="#dcdbdc"/>
        <path d="M1322-1602.638v6h-15v-6zm0 10v8h-15v-8zm0 12v8h-15v-8zm0 12v8h-15v-8zm0 12v8h-15v-8zm0 12v8h-15v-8zm0 12v8h-15v-8zm0 12v8h-15v-8zm0 12v8h-15v-8zm0 12v6h-15v-6z" fill="url(#h)" opacity=".35"/>
        <path d="M1420-1602.638v6h15v-6zm0 10v8h15v-8zm0 12v8h15v-8zm0 12v8h15v-8zm0 12v8h15v-8zm0 12v8h15v-8zm0 12v8h15v-8zm0 12v8h15v-8zm0 12v8h15v-8zm0 12v6h15v-6z" fill="url(#i)" opacity=".35"/>
        <path fill="url(#j)" opacity=".5" d="M1307-1530.64h128v30h-128z"/>
        <path d="M1323-1570.638v52c0 7.18 21.49 13 48 13s48-5.82 48-13v-52z" fill="url(#k)"/>
        <path d="M1336.867-1582.857c-4.423 1.106-8 2.641-10.563 4.282-2.562 1.64-4.21 3.591-4.219 5.937-.078 19.65-.062 38.386-.062 54 0 2.294 1.651 4.262 4.22 5.906 2.567 1.645 6.188 3.057 10.593 4.25 8.81 2.386 20.86 3.844 34.187 3.844s25.378-1.458 34.188-3.844c4.405-1.193 8.025-2.605 10.594-4.25 2.568-1.644 4.196-3.623 4.196-5.917v-54c0-2.346-1.696-4.286-4.258-5.926-2.563-1.641-6.163-3.09-10.563-4.282-8.8-2.383-20.826-3.78-34.156-3.78-13.42 0-24.7 1.417-34.157 3.78zm34.156-1.78c13.188-.025 25.115 1.459 33.687 3.78 4.287 1.161 7.736 2.593 10.032 4.063 2.295 1.47 3.461 2.918 3.343 4.156-.21 2.205-2.578 3.735-4.25 4.688-2.71 1.545-5.951 2.71-8.874 3.468-9.981 2.59-19.948 3.535-29.532 3.78-13.26.214-26.41-.73-38.53-3.841-2.814-.734-5.25-1.638-7.657-2.844-2.161-1.083-5.063-2.882-5.28-5.25-.118-1.273 1.047-2.686 3.343-4.156 2.296-1.47 5.697-3.094 10.031-4.062 11.926-2.665 23.655-3.764 33.687-3.783zm-47 16.124a12.121 12.121 0 0 0 2.281 1.813c3.29 1.996 7.308 3.487 10.563 4.28 13.105 3.04 26.117 4.087 38.625 3.72 10.112-.32 20.321-1.07 29.687-3.72 4.635-1.31 9.565-2.895 12.844-6.093v12.875c0 .582 0 1.221-.125 1.719-.273 1.105-1.369 2.437-3.344 3.594-3.264 1.911-6.839 3.083-10 3.937-11.231 2.74-22.915 3.735-33.53 3.75-11.457-.088-23.537-1.125-33.688-3.781-4.357-1.375-8.725-2.562-11.875-5.469-.725-.677-1.134-1.406-1.312-2.031-.162-.566-.124-1.122-.124-1.719v-12.875zm0 18.031c.388.384.835.765 1.312 1.125 3.833 2.649 8.6 4.188 12.75 5.22 11.482 2.606 21.651 3.477 32.938 3.499 11.353-.233 22.474-.814 32.937-3.5 3.705-.966 7.681-2.385 10.688-3.906 1.144-.579 2.937-2.034 3.375-2.438v12.844c0 .582 0 1.22-.125 1.719-.273 1.105-1.402 2.381-3.344 3.593-4.288 2.516-9.373 3.904-13.843 4.875-10.39 2.017-19.909 2.799-29.688 2.813-4.946 0-9.711-.172-14.187-.594-10.05-1.229-18.982-2.152-27.5-6.063a15.468 15.468 0 0 1-3.875-2.593 4.643 4.643 0 0 1-1.312-2.031 2.59 2.59 0 0 1-.124-.719c-.035-4.614 0-9.23 0-13.844zm0 18c1.566 1.541 3.638 2.705 5.53 3.5 8.676 3.598 18.944 5.062 27.126 5.75 4.935.406 9.77.595 14.344.594 11.368-.184 22.449-.886 32.937-3.5 4.219-1.145 8.17-2.41 11.657-4.469.934-.555 1.67-1.193 2.406-1.875v13.844c0 1.296-1.023 2.753-3.312 4.219-2.29 1.466-5.72 2.84-10 4-8.563 2.319-20.506 3.78-33.688 3.78-13.182 0-25.125-1.461-33.687-3.78-4.282-1.16-7.71-2.534-10-4-2.29-1.466-3.313-2.923-3.313-4.22v-13.843z" fill="url(#l)"/>
        <path transform="matrix(2.09471 0 0 2.10989 282.407 -3113.52)" d="M542.125 730.313a22.438 5.688 0 1 1-44.875 0 22.438 5.688 0 1 1 44.875 0z" fill="url(#m)"/>
        <path d="M1324.484-1567.358v12.087c0 6.7 20.817 12.133 46.495 12.133 25.678 0 46.495-5.432 46.495-12.133v-12.026c-4.157 3.715-19.627 9.195-46.349 9.195s-42.752-5.54-46.64-9.256z" fill="none" opacity=".5" stroke-width=".571" stroke="#dcdbdc"/>
        <path transform="matrix(2.07242 0 0 2.02198 293.987 -3049.31)" d="M542.125 730.313a22.438 5.688 0 1 1-44.875 0 22.438 5.688 0 1 1 44.875 0z" fill="none" opacity=".5" stroke-width=".279" stroke="#dcdbdc"/>
        <path d="M1324.484-1566.858v10.087c0 6.701 20.817 12.133 46.495 12.133 25.678 0 46.495-5.432 46.495-12.133v-10.026c-4.157 3.715-19.627 9.196-46.349 9.196s-42.752-5.541-46.64-9.256z" fill="url(#n)" opacity=".25"/>
        <path d="M1336.75-1580.477l71.375 15.074-19.444 3.89-31.503-22.125z" fill="url(#o)" opacity=".25"/>
        <use transform="translate(0 18)" width="5033" height="1085" xlink:href="#path12064"/>
        <use transform="translate(0 18)" width="5033" height="1085" xlink:href="#path8855"/>
        <use transform="translate(0 36)" width="5033" height="1085" xlink:href="#path12064"/>
        <use transform="translate(0 36)" width="5033" height="1085" xlink:href="#path8855"/>
        <path d="M1331.727-1563.88s1.281 21.614 9.426 36.528 15.245 19.133 15.245 19.133l16.834-1.45s-17.05-11.447-25.067-27.664c-8.016-16.217-10.008-24.395-10.008-24.395z" fill="url(#p)" opacity=".25"/>
    </g>
    <path d="M10.407 33.648v19.317c-.046 9.358.96 10.317 10.298 10.317h25.97c9.34 0 10.056-.963 10.299-10.317V33.648z" fill="#dcdbdc" opacity=".1"/>
    <path d="M33.689 4.015v59.267h12.985c9.34 0 10.055-.963 10.298-10.317V14.332c0-9.358-.959-10.317-10.298-10.317z" fill="#dcdbdc" opacity=".1"/>
    <path d="M10.407 52.435v.53c-.046 9.357.96 10.317 10.298 10.317h25.97c9.34 0 10.056-.963 10.299-10.318v-.529c-.243 9.355-.96 10.317-10.298 10.317h-25.97c-9.34 0-10.345-.959-10.299-10.317z" opacity=".2"/>
    <path d="M20.705 4.015c-9.339 0-10.344.96-10.298 10.317v.53c-.046-9.358.96-10.318 10.298-10.318h25.97c9.34 0 10.299.96 10.299 10.317v-.529c0-9.358-.96-10.317-10.298-10.317z" fill="#dcdbdc" opacity=".2"/>
    <path d="M41.099 63.282l15.875-15.875v5.949c-.014 8.994-1.006 9.926-10.1 9.926z" fill="#dcdbdc" opacity=".08"/>
</svg>
