<svg width="256" height="256" viewBox="0 0 67.73 67.73" xmlns="http://www.w3.org/2000/svg" xmlns:xlink="http://www.w3.org/1999/xlink">
    <defs>
        <linearGradient id="f">
            <stop offset="0" stop-opacity="0"/>
            <stop offset=".493"/>
            <stop offset="1" stop-opacity="0"/>
        </linearGradient>
        <linearGradient id="g" x1="88" x2="488" y1="88" y2="488" gradientUnits="userSpaceOnUse">
            <stop offset="0" stop-opacity=".588"/>
            <stop offset=".88" stop-opacity="0"/>
            <stop offset="1"/>
        </linearGradient>
        <linearGradient id="j" x1="298" x2="298" y1="-1587.638" y2="-1507.638" gradientUnits="userSpaceOnUse">
            <stop offset="0" stop-color="#3371C2"/>
            <stop offset="1" stop-color="#353431"/>
        </linearGradient>
        <linearGradient id="k" x1="298" x2="298" y1="-1571.179" y2="-1497.572" gradientUnits="userSpaceOnUse" xlink:href="#a"/>
        <linearGradient id="a">
            <stop offset="0" stop-color="#3371C2"/>
            <stop offset="1" stop-color="#353431"/>
        </linearGradient>
        <linearGradient id="l" x1="516.05" x2="495.666" y1="192.985" y2="192.985" gradientTransform="translate(-123 -1753.64)" gradientUnits="userSpaceOnUse" xlink:href="#b"/>
        <linearGradient id="b">
            <stop offset="0" stop-color="#C677DD"/>
            <stop offset="1" stop-color="#353431" stop-opacity="0"/>
        </linearGradient>
        <linearGradient id="m" x1="230" x2="230" y1="-581.638" y2="-577.573" gradientTransform="matrix(9.81802 0 0 8 -1867.87 3054.46)" gradientUnits="userSpaceOnUse">
            <stop offset="0" stop-color="#3371C2"/>
            <stop offset="1" stop-color="#dcdbdc"/>
        </linearGradient>
        <linearGradient id="n" x1="345" x2="345" y1="1173" y2="1178" gradientTransform="matrix(-8.86632 0 0 8.1065 3447.88 -11110.2)" gradientUnits="userSpaceOnUse">
            <stop offset="0" stop-color="#353431"/>
            <stop offset="1" stop-color="#353431"/>
        </linearGradient>
        <linearGradient id="o" x1="346.696" x2="361.368" y1="-1313.519" y2="-1303.796" gradientTransform="translate(0 -263)" gradientUnits="userSpaceOnUse">
            <stop offset="0" stop-color="#dcdbdc"/>
            <stop offset="1" stop-color="#dcdbdc" stop-opacity="0"/>
        </linearGradient>
        <linearGradient id="p" x1="345" x2="345" y1="1173.911" y2="1178" gradientTransform="matrix(8.86632 0 0 8.1065 -2745.88 -11107.7)" gradientUnits="userSpaceOnUse">
            <stop offset="0" stop-color="#353431"/>
            <stop offset="1" stop-color="#16181D"/>
        </linearGradient>
        <linearGradient id="q" x1="298.188" x2="298.188" y1="-631.149" y2="-634.268" gradientTransform="translate(-398.851 44.412) scale(2.53328)" gradientUnits="userSpaceOnUse">
            <stop offset="0" stop-color="#97C378"/>
            <stop offset="1" stop-color="#97C378"/>
        </linearGradient>
        <linearGradient id="r" x1="345" x2="345" y1="1173" y2="1178" gradientTransform="matrix(8.86632 0 0 8.1065 -2745.88 -11097.6)" gradientUnits="userSpaceOnUse" xlink:href="#c"/>
        <linearGradient id="c">
            <stop offset="0" stop-color="#3371C2"/>
            <stop offset="1" stop-color="#3371C2"/>
        </linearGradient>
        <linearGradient id="s" x1="337.375" x2="337.375" y1="-1311.359" y2="-1304.402" gradientTransform="translate(0 -263)" gradientUnits="userSpaceOnUse" xlink:href="#d"/>
        <linearGradient id="d">
            <stop offset="0" stop-color="#353431"/>
            <stop offset="1" stop-color="#353431" stop-opacity=".5"/>
        </linearGradient>
        <radialGradient id="t" cx="-1535.304" cy="-842.908" r="10" gradientTransform="matrix(-3.31574 0 0 -7.58441 -3491.73 -6782.31)" gradientUnits="userSpaceOnUse">
            <stop offset="0" stop-color="#dcdbdc"/>
            <stop offset="1" stop-color="#3371C2" stop-opacity="0"/>
        </radialGradient>
        <linearGradient id="u" x1="337.375" x2="337.375" y1="-1311.359" y2="-1299.649" gradientTransform="translate(0 -263)" gradientUnits="userSpaceOnUse" xlink:href="#d"/>
        <linearGradient id="v" x1="349.55" x2="349.55" y1="-1308.946" y2="-1302.726" gradientTransform="translate(0 -263)" gradientUnits="userSpaceOnUse" xlink:href="#e"/>
        <linearGradient id="e">
            <stop offset="0" stop-color="gray"/>
            <stop offset="1" stop-color="#353431"/>
        </linearGradient>
        <linearGradient id="w" x1="349.55" x2="349.55" y1="-1307.696" y2="-1301.226" gradientTransform="translate(0 -263)" gradientUnits="userSpaceOnUse" xlink:href="#e"/>
        <linearGradient id="x" x1="337.375" x2="337.375" y1="-1293.638" y2="-1287.512" gradientTransform="translate(0 -263)" gradientUnits="userSpaceOnUse" xlink:href="#c"/>
        <linearGradient id="y" x1="445.695" x2="441.388" y1="1103.578" y2="1099.82" gradientUnits="userSpaceOnUse">
            <stop offset="0" stop-color="#F0DD3F"/>
            <stop offset="1" stop-color="#F0DD3F"/>
        </linearGradient>
        <linearGradient id="z" x1="-17" x2="144" y1="-1194.638" y2="-1194.638" gradientTransform="matrix(.52407 0 0 1 318.409 -356)" gradientUnits="userSpaceOnUse" xlink:href="#f"/>
        <linearGradient id="A" x1="-17" x2="144" y1="-1194.638" y2="-1194.638" gradientTransform="matrix(.52407 0 0 1 318.409 -405)" gradientUnits="userSpaceOnUse" xlink:href="#f"/>
        <linearGradient id="B" x1="387.495" x2="405.172" y1="192.985" y2="192.985" gradientTransform="translate(-123 -1753.64)" gradientUnits="userSpaceOnUse" xlink:href="#b"/>
        <linearGradient id="D" x1="-17" x2="144" y1="-1194.638" y2="-1194.638" gradientTransform="matrix(.29814 0 0 1 -1593.57 881.638)" gradientUnits="userSpaceOnUse" xlink:href="#f"/>
        <linearGradient id="E" x1="-17" x2="144" y1="-1194.638" y2="-1194.638" gradientTransform="matrix(.29814 0 0 1 -1593.57 804.638)" gradientUnits="userSpaceOnUse" xlink:href="#f"/>
        <linearGradient id="F" x1="-17" x2="144" y1="-1194.638" y2="-1194.638" gradientTransform="matrix(.29814 0 0 1 -1593.57 884.638)" gradientUnits="userSpaceOnUse" xlink:href="#f"/>
        <linearGradient id="G" x1="-17" x2="144" y1="-1194.638" y2="-1194.638" gradientTransform="matrix(.52407 0 0 1 318.409 -353)" gradientUnits="userSpaceOnUse" xlink:href="#f"/>
        <linearGradient id="H" x1="-17" x2="144" y1="-1194.638" y2="-1194.638" gradientTransform="matrix(.29814 0 0 1 -1593.57 801.638)" gradientUnits="userSpaceOnUse" xlink:href="#f"/>
        <linearGradient id="i" x1="208" x2="96" y1="28" y2="284" gradientTransform="matrix(.26458 0 0 .26458 -6.526 221.905)" gradientUnits="userSpaceOnUse">
            <stop offset="0" stop-color="#dcdbdc"/>
            <stop offset="1" stop-color="#dcdbdc"/>
        </linearGradient>
        <linearGradient id="h" x1="529.655" x2="-35.31" y1="401.584" y2="119.093" gradientTransform="matrix(0 -.11989 -.11989 0 67.016 292.813)" gradientUnits="userSpaceOnUse" xlink:href="#c"/>
        <linearGradient id="C" x1="-17" x2="144" y1="-1194.638" y2="-1194.638" gradientTransform="matrix(.19255 0 0 1 277.273 -408)" gradientUnits="userSpaceOnUse" xlink:href="#f"/>
    </defs>
    <path transform="matrix(.1323 0 0 .1323 -4.41 -5.51)" d="M189.843 74c-70.593 0-78.189 7.25-77.843 77.987v292.026c-.346 70.736 7.25 77.987 77.843 77.987h196.314C456.75 522 464 514.75 464 444.013V151.987C464 81.25 456.75 74 386.157 74z" fill="url(#g)" filter="url(#filter4380)" opacity=".3"/>
    <path d="M46.674 233.546c9.34 0 10.344.96 10.298 10.317v38.633c.046 9.358-.959 10.317-10.298 10.317h-25.97c-9.34 0-10.298-.96-10.298-10.317v-38.633c0-9.358.959-10.317 10.298-10.317z" fill="url(#h)" transform="translate(0 -229.267)"/>
    <path d="M20.705 290.696c-2.298 0-4.033-.07-5.205-.266-1.171-.197-1.676-.474-1.968-.765-.292-.29-.566-.789-.76-1.956-.194-1.168-.26-2.902-.248-5.203v-38.653c-.012-2.301.054-4.035.248-5.202.194-1.168.468-1.666.76-1.957.292-.29.797-.567 1.968-.764 1.172-.197 2.907-.267 5.205-.267h22.51l11.642 11.642v35.191c0 2.303-.07 4.04-.267 5.21-.196 1.17-.471 1.672-.761 1.963-.29.29-.789.565-1.956.76-1.167.197-2.899.268-5.197.268z" fill="url(#i)" transform="translate(0 -229.267)"/>
    <g transform="matrix(.23962 0 0 .23962 -45.221 406.569)">
        <path fill="#dcdbdc" d="M309-1601.64h84v56h-84zM274-1601.638v5h31v-5zm-9 10v5h40v-5zm0 10v5h40v-5zm0 10v5h40v-5zm0 10v5h40v-5zm0 10v5h40v-5zm0 10v5h128v-5zm0 10v5h128v-5zm0 10v5h128v-5zm0 10v5h128v-5zm0 10v5h84v-5z"/>
        <path fill="url(#j)" d="M309-1602.64h84v56h-84z"/>
        <g transform="translate(0 -1)" fill="url(#k)">
            <path d="M274-1601.64h31v5h-31zM265-1541.64h128v5H265zM265-1501.64h84v5h-84zM265-1591.64h40v5h-40zM265-1581.64h40v5h-40zM265-1571.64h40v5h-40zM265-1561.64h40v5h-40zM265-1551.64h40v5h-40zM265-1531.64h128v5H265zM265-1521.64h128v5H265zM265-1511.64h128v5H265z"/>
        </g>
        <path d="M373-1602.638v56h20v-56zm0 60v5h20v-5zm0 10v5h20v-5zm0 10v5h20v-5zm0 10v5h20v-5z" fill="url(#l)" opacity=".5"/>
        <path fill="url(#m)" d="M313-1598.64h75.998v48H313z"/>
        <path d="M368.344-1584.5c-15.065 6.008-29.78 14.22-39.781 27.25 20.479 0 39.955-.988 60.434-.988l.003-9.043c-5.068-4.395-14.402-15.033-20.656-17.219z" fill="#dcdbdc" opacity=".5"/>
        <path d="M368.734-1583.57c5.066 2.533 13.871 11.355 20.263 17.733v7.6h-58.264c10.135-12.667 25.334-20.267 38-25.333z" fill="url(#n)"/>
        <path d="M350.13-1568.846l.443-3.577 6.653-2.846 3.741-3.496 6.58-2.668-1.718 4.322-2.565 4.493-1.526 4.883-1.056 2.813-10.552-3.924z" fill="#353431"/>
        <path d="M332.438-1591.719c-6.45 9.717-11.86 18.514-19.437 27.213l.068 7.035c16.781 0 44.494.221 61.275.221-14.057-10.205-29.375-19.58-38.094-35.031-1.201 1.07-3.041-.52-3.812.562z" fill="url(#o)" opacity=".5"/>
        <path d="M352.267-1572.17c-7.583-6.292-11.4-11.4-16.466-19-1.482.447-1.425.277-2.533 0 0 0-6.778 10.07-10.133 15.2-3.356 5.13-10.135 12.666-10.135 12.666v5.066h58.264s-13.92-10.054-18.997-13.933z" fill="url(#p)"/>
        <path d="M389-1563.304h-3.266l-14.467 2.533s-14.296-3.8-16.447-3.8c-2.113 0-8.886 1.267-10.153 1.267-.888 0-6.333-2.533-7.62-2.533-2.124 0-4.572 2.691-10.905 3.8 0 0-1.82-4.038-3.007-3.8-7.6 2.929-10.135 2.533-10.135 2.533v12.666h75.997l.002-12.666z" fill="url(#q)"/>
        <path d="M313.001-1560.77v10.132h65.866l2.534-2.533-2.534-2.533-5.066-2.534-12.667-2.533-12.666-1.267-11.4 1.267h-24.066z" fill="url(#r)"/>
        <path d="M318.068-1565.837l3.61-5.794 4.277-5.063 3.267-5.95 4.046-5.993-2.746 7.568-2.011 6.234-.972 3.933-1.815 4.19c-.73-.533-1.654-.553-2.487-.823l-2.378.932-2.791.766z" fill="#353431"/>
        <path d="M327.361-1565.725l2.724-6.879 1.329-7.1 1.92-4.384 1.2-4.549 1.665 4.68.473 4.47 2.014 3.982 1.997 4.575.373 3.231-3.353.942-3.186-1.243-3.522 2.285h-3.634z" fill="url(#s)"/>
        <path d="M360.013-1564.566l-4.438-3.198-2.834-2.261 2.753 4.289 4.519 1.17z" fill="gray"/>
        <path transform="matrix(0 -1 -1 0 0 0)" fill="url(#t)" d="M1566.64-389h32v76h-32z"/>
        <path d="M389-1583.72a15 15 0 0 1-15-15h15z" fill="#F0DD3F" opacity=".5"/>
        <path d="M363.73-1567.617l1.566-5.042 1.922-4.384 1.199-4.548 1.665 4.68 2.136 3.995 1.539 3.982-.22 4.258 2.115 2.123-4.354-.236-8.787-1.818 1.22-3.01z" fill="url(#u)"/>
        <path d="M353.534-1565.837l-3.689-5.59-6.54-7.133-5.412-7.115-2.092-2.962 2.267 7.689 2.486 4.61 2.206 7.045.64 3.456 2.278.763 3.48-.807c1.462-.144 2.923.026 4.376.044z" fill="url(#v)"/>
        <path d="M387.97-1564.808l-2.975-1.79-4.166-5.708-6.125-5.295-4.783-3.99.921 3.334 4.228 6.67.464 6.015 2.541 1.951 5.7-1.108 4.196-.078z" fill="url(#w)"/>
        <path d="M313.027-1558.171l-.026 7.533h63.332v-2.533l-2.533-2.533-12.666-2.534-12.667-1.266-12.666 1.266-13.71.378z" fill="url(#x)"/>
        <path d="M348.502-1560.705l-12.72 1.442-13.57 1.038-8.275.029 8.157.34 13.984-.022 12.39-1.281 12.688 1.209 5.644 1.101 6.95 1.618 2.281 2.187.313 2.407h1.156l.205-2.788-3.411-3.261-13.2-2.482z" fill="#353431"/>
        <path d="M340.868-1553.171l2.533-2.533h10.133l7.6 2.533 2.533 2.533h-5.066l-17.733-2.533z" fill="#3371C2" opacity=".5"/>
        <path d="M335.813-1588.638l1.562 5.906c1.284 2.378 3.804 3.385 5.884 5.411 3.003 2.926 6.339 6.382 7.616 7.496l-1.031-1.594-6.531-7.156-5.407-7.094z" fill="#dcdbdc" opacity=".4"/>
        <path d="M333.281-1588.638l-3.27 7.613-3.261 9.137-3.574 4.373c.514.115 2.106.496 2.543.815l1.812-4.188.969-3.937 2.031-6.25z" opacity=".25"/>
        <path d="M337.031-1565.825c-2.069 0-4.433 2.53-10.406 3.687l-.219.125c.108.037.487.105 1.813-.094 1.768-.265 8.06-2.932 9.562-2.844 1.503.089 5.991 2.651 6.875 2.563.884-.089 9.378-1.322 10.969-.969 1.591.354 16.188 3.625 16.188 3.625l13.937-2.562 3.25.094v-1.094h-3.281l-14.438 2.531s-14.318-3.812-16.469-3.812c-2.113 0-8.888 1.28-10.156 1.28-.888 0-6.337-2.53-7.625-2.53z" fill="#F0DD3F" opacity=".35"/>
        <path transform="matrix(0 1.71401 -2.77333 0 3438.8 -2354.84)" d="M448.772 1099.688a7.585 4.688 0 0 1-7.585 4.687v-4.688z" fill="url(#y)" opacity=".74"/>
        <path d="M373-1598.638c0 8.843 7.157 16 16 16v-.988c-8.297 0-15.012-6.714-15.012-15.012z" fill="#dcdbdc" opacity=".5"/>
        <path d="M369.906-1581.607l.938 3.344 4.219 6.688.468 6 2.531 1.968.438-.094-2.25-2.25-.438-5.75-2.412-3.709 6.475 3.46 5.125 5.343-4.156-5.687-6.125-5.313zm15.094 15l.25.282-.063-.157z" fill="#dcdbdc" opacity=".4"/>
        <path fill="url(#z)" opacity=".25" d="M309.5-1550.64h84.375v1H309.5z"/>
        <path fill="url(#A)" opacity=".15" d="M309.5-1599.64h84.375v1H309.5z"/>
        <path d="M313-1598.638v48h76v-48zm1 1h74v46h-74z" fill="#dcdbdc" opacity=".35"/>
        <path d="M274-1602.638v5h9v-5zm-9 10v5h18v-5zm0 10v5h18v-5zm0 10v5h18v-5zm0 10v5h18v-5zm0 10v5h18v-5zm0 10v5h18v-5zm0 10v5h18v-5zm0 10v5h18v-5zm0 10v5h18v-5zm0 10v5h18v-5z" fill="url(#B)" opacity=".5"/>
        <path fill="url(#C)" opacity=".25" d="M274-1602.64h31v1h-31z"/>
        <path transform="rotate(90)" fill="url(#D)" opacity=".25" d="M-1598.64-313h48v1h-48z"/>
        <path transform="rotate(90)" fill="url(#E)" opacity=".25" d="M-1598.64-390h48v1h-48z"/>
        <path transform="rotate(90)" fill="url(#F)" opacity=".25" d="M-1598.64-310h48v1h-48z"/>
        <path fill="url(#G)" opacity=".25" d="M309.5-1547.64h84.375v1H309.5z"/>
        <path transform="rotate(90)" fill="url(#H)" opacity=".25" d="M-1598.64-393h48v1h-48z"/>
        <use transform="matrix(1.29032 0 0 .99998 -88.548 9.975)" width="5033" height="1085" xlink:href="#rect19802"/>
        <use transform="matrix(1.29032 0 0 .99998 -88.548 19.974)" width="5033" height="1085" xlink:href="#rect19802"/>
        <use transform="matrix(1.29032 0 0 .99998 -88.548 29.974)" width="5033" height="1085" xlink:href="#rect19802"/>
        <use transform="matrix(1.29032 0 0 .99998 -88.548 39.974)" width="5033" height="1085" xlink:href="#rect19802"/>
        <use transform="matrix(1.29032 0 0 .99998 -88.548 49.974)" width="5033" height="1085" xlink:href="#rect19802"/>
        <use transform="matrix(4.12903 0 0 .99998 -866.355 59.974)" width="5033" height="1085" xlink:href="#rect19802"/>
        <use transform="matrix(4.12903 0 0 .99998 -866.355 69.975)" width="5033" height="1085" xlink:href="#rect19802"/>
        <use transform="matrix(4.12903 0 0 .99998 -866.355 79.975)" width="5033" height="1085" xlink:href="#rect19802"/>
        <use transform="matrix(4.12903 0 0 .99998 -866.355 89.975)" width="5033" height="1085" xlink:href="#rect19802"/>
        <use transform="matrix(2.70968 0 0 .99998 -477.452 99.975)" width="5033" height="1085" xlink:href="#rect19802"/>
    </g>
    <path d="M10.407 33.913v19.316c-.046 9.358.96 10.317 10.298 10.317h25.97c9.34 0 10.056-.962 10.299-10.317V33.913z" fill="#dcdbdc" opacity=".1"/>
    <path d="M33.689 4.28v59.266h12.985c9.34 0 10.055-.962 10.298-10.317V14.597c0-9.358-.959-10.317-10.298-10.317z" fill="#dcdbdc" opacity=".1"/>
    <path d="M10.407 52.7v.529c-.046 9.358.96 10.317 10.298 10.317h25.97c9.34 0 10.056-.962 10.299-10.317v-.53c-.243 9.356-.96 10.318-10.298 10.318H20.705c-9.339 0-10.344-.96-10.298-10.317z" opacity=".2"/>
    <path d="M20.705 4.28c-9.339 0-10.344.959-10.298 10.317v.529c-.046-9.358.96-10.317 10.298-10.317h25.97c9.34 0 10.299.959 10.299 10.317v-.53c0-9.357-.96-10.316-10.298-10.316z" fill="#dcdbdc" opacity=".2"/>
    <path d="M41.099 63.546l15.875-15.875v5.95c-.014 8.994-1.007 9.925-10.1 9.925z" fill="#dcdbdc" opacity=".08"/>
</svg>
