<svg width="256" height="256" viewBox="0 0 67.73 67.73" xmlns="http://www.w3.org/2000/svg">
    <defs>
        <linearGradient id="d" x1="208" x2="96" y1="28" y2="284" gradientTransform="matrix(-.26458 0 0 .26458 73.906 221.64)" gradientUnits="userSpaceOnUse">
            <stop offset="0" stop-color="#16181D"/>
            <stop offset="1" stop-color="#353431"/>
        </linearGradient>
        <linearGradient id="c" x1="529.655" x2="-35.31" y1="401.584" y2="119.093" gradientTransform="matrix(0 -.11989 -.11989 0 67.016 292.548)" gradientUnits="userSpaceOnUse">
            <stop offset="0" stop-color="#F69331"/>
            <stop offset="1" stop-color="#F69331"/>
        </linearGradient>
        <linearGradient id="b" x1="88" x2="488" y1="88" y2="488" gradientUnits="userSpaceOnUse">
            <stop offset="0" stop-opacity=".588"/>
            <stop offset=".88" stop-opacity="0"/>
            <stop offset="1"/>
        </linearGradient>
        <filter id="a" x="-.01" y="-.01" width="1.026" height="1.022" color-interpolation-filters="sRGB">
            <feGaussianBlur stdDeviation="2.12"/>
        </filter>
    </defs>
    <path transform="matrix(.1323 0 0 .1323 -4.41 -5.51)" d="M189.843 74c-70.593 0-78.189 7.25-77.843 77.987v292.026c-.346 70.736 7.25 77.987 77.843 77.987h196.314c70.593 0 76.006-7.274 77.843-77.987V151.987C464 81.25 456.75 74 386.157 74z" filter="url(#a)" opacity=".1"/>
    <path transform="matrix(.1323 0 0 .1323 -4.41 -5.51)" d="M189.843 74c-70.593 0-78.189 7.25-77.843 77.987v292.026c-.346 70.736 7.25 77.987 77.843 77.987h196.314C456.75 522 464 514.75 464 444.013V151.987C464 81.25 456.75 74 386.157 74z" fill="url(#b)" filter="url(#filter4380)" opacity=".3"/>
    <path d="M46.674 233.282c9.34 0 10.344.959 10.298 10.317v38.632c.046 9.358-.959 10.317-10.298 10.317h-25.97c-9.34 0-10.298-.959-10.298-10.317V243.6c0-9.358.959-10.317 10.298-10.317z" fill="url(#c)" transform="translate(0 -229.267)"/>
    <path d="M46.675 235.398c2.298 0 4.033.07 5.204.267 1.172.197 1.677.473 1.969.764.292.291.566.79.76 1.957.194 1.167.26 2.901.248 5.202v38.653c.011 2.301-.054 4.035-.248 5.203-.194 1.167-.468 1.665-.76 1.956-.292.291-.797.568-1.969.765-1.171.196-2.906.266-5.204.266h-25.97c-2.298 0-4.033-.07-5.205-.266-1.171-.197-1.676-.474-1.968-.765-.292-.29-.566-.789-.76-1.956-.188-1.13-.253-2.8-.247-4.991v-.03l-.002-.192v-38.642c-.01-2.302.055-4.036.249-5.203s.468-1.666.76-1.957c.292-.291.797-.568 1.968-.764 1.172-.197 2.907-.267 5.205-.267h12.984z" fill="url(#d)" transform="translate(0 -229.267)"/>
    <path d="M10.407 52.435v.53c-.046 9.357.96 10.317 10.298 10.317h25.97c9.34 0 10.056-.963 10.299-10.318v-.529c-.243 9.355-.96 10.317-10.298 10.317h-25.97c-9.34 0-10.345-.959-10.299-10.317z" opacity=".2"/>
    <path class="st1" d="M26.569 36.92l-1.533 5.821c-.039.155-.097.194-.291.194h-2.852c-.194 0-.233-.058-.194-.29l5.51-19.287c.097-.35.155-.66.194-1.61 0-.136.058-.195.155-.195h4.075c.136 0 .194.04.233.194l6.17 20.936c.039.155 0 .252-.155.252H34.66c-.155 0-.252-.039-.291-.174l-1.61-5.84zm5.394-3.143c-.544-2.154-1.824-6.85-2.31-9.12h-.038c-.407 2.27-1.436 6.113-2.25 9.12zm8.731-10.788c0-1.242.873-1.979 1.98-1.979 1.183 0 1.978.796 1.978 1.98 0 1.28-.834 1.978-2.018 1.978-1.125 0-1.94-.698-1.94-1.979zm.233 4.405c0-.156.058-.233.233-.233h3.046c.155 0 .233.058.233.233v15.308c0 .156-.04.233-.233.233h-3.008c-.194 0-.252-.097-.252-.252v-15.29z" fill="#F69331"/>
    <path d="M10.407 33.648v19.317c-.046 9.358.96 10.317 10.298 10.317h25.97c9.34 0 10.056-.963 10.299-10.317V33.648z" fill="#dcdbdc" opacity=".05"/>
    <path d="M33.689 4.015v59.267h12.985c9.34 0 10.055-.963 10.298-10.317V14.332c0-9.358-.959-10.317-10.298-10.317z" fill="#dcdbdc" opacity=".05"/>
    <path d="M41.099 63.282l15.875-15.875v5.949c-.014 8.994-1.006 9.926-10.1 9.926z" fill="#dcdbdc" opacity=".1"/>
    <path d="M20.705 4.015c-9.339 0-10.344.96-10.298 10.317v.53c-.046-9.358.96-10.318 10.298-10.318h25.97c9.34 0 10.299.96 10.299 10.317v-.529c0-9.358-.96-10.317-10.298-10.317z" fill="#dcdbdc" opacity=".4"/>
</svg>
