<svg width="256" height="256" viewBox="0 0 67.73 67.73" xmlns="http://www.w3.org/2000/svg">
    <defs>
        <linearGradient id="c" x1="529.655" x2="-35.31" y1="401.584" y2="119.093" gradientTransform="matrix(0 .11989 .11989 0 .363 233.282)" gradientUnits="userSpaceOnUse">
            <stop offset="0" stop-color="#dcdbdc"/>
            <stop offset="1" stop-color="#dcdbdc"/>
        </linearGradient>
        <linearGradient id="b" x1="88" x2="488" y1="88" y2="488" gradientUnits="userSpaceOnUse">
            <stop offset="0" stop-opacity=".588"/>
            <stop offset=".88" stop-opacity="0"/>
            <stop offset="1"/>
        </linearGradient>
        <filter id="a" x="-.01" y="-.01" width="1.026" height="1.022" color-interpolation-filters="sRGB">
            <feGaussianBlur stdDeviation="2.12"/>
        </filter>
    </defs>
    <path d="M20.705 4.015c-9.339 0-10.344.96-10.298 10.317v38.633c-.046 9.357.96 10.317 10.298 10.317h25.97c9.34 0 10.299-.96 10.299-10.317V14.332c0-9.358-.96-10.317-10.298-10.317z" fill="none" opacity=".2" stroke-width="1.058" stroke="#16181D"/>
    <path transform="matrix(.1323 0 0 .1323 -4.41 -5.51)" d="M189.843 74c-70.593 0-78.189 7.25-77.843 77.987v292.026c-.346 70.736 7.25 77.987 77.843 77.987h196.314c70.593 0 76.006-7.274 77.843-77.987V151.987C464 81.25 456.75 74 386.157 74z" filter="url(#a)" opacity=".1"/>
    <path transform="matrix(.1323 0 0 .1323 -4.41 -5.51)" d="M189.843 74c-70.593 0-78.189 7.25-77.843 77.987v292.026c-.346 70.736 7.25 77.987 77.843 77.987h196.314C456.75 522 464 514.75 464 444.013V151.987C464 81.25 456.75 74 386.157 74z" fill="url(#b)" filter="url(#filter4380)" opacity=".3"/>
    <path d="M20.705 292.548c-9.339 0-10.344-.959-10.298-10.317V243.6c-.046-9.358.96-10.317 10.298-10.317h25.97c9.34 0 10.299.959 10.299 10.317v38.632c0 9.358-.96 10.317-10.298 10.317z" fill="url(#c)" transform="translate(0 -229.267)"/>
    <path d="M20.705 4.015c-9.339 0-10.344.96-10.298 10.317v.53c-.046-9.358.96-10.318 10.298-10.318h25.97c9.34 0 10.299.96 10.299 10.317v-.529c0-9.358-.96-10.317-10.298-10.317z" fill="#dcdbdc" opacity=".6"/>
    <path d="M33.69 4.015v59.267h12.986c9.339 0 10.055-.963 10.298-10.317V14.332c0-9.358-.96-10.317-10.298-10.317z" fill="#dcdbdc" opacity=".1"/>
    <path d="M10.407 33.648v19.317c-.046 9.358.96 10.317 10.298 10.317h25.97c9.34 0 10.056-.963 10.299-10.317V33.648z" fill="#dcdbdc" opacity=".2"/>
    <path d="M41.099 63.282l15.875-15.875v5.949c-.014 8.994-1.006 9.926-10.1 9.926z" fill="#dcdbdc" opacity=".4"/>
    <path d="M26.848 54.913c1.56 0 2.621-1.236 2.621-3.333s-1.01-3.346-2.621-3.346c-.737 0-1.199.287-1.536.661v-.511h-1.298v8.889l1.298-.6v-2.459c.312.387.787.7 1.536.7zm-.188-1.223c-.611 0-1.06-.35-1.348-.737v-2.772c.287-.462.75-.724 1.348-.724.962 0 1.511.887 1.511 2.123 0 1.36-.537 2.11-1.51 2.11zM33.165 57.26c1.973-.137 3.009-.886 3.009-2.909v-5.967h-1.298v.449c-.275-.287-.762-.6-1.511-.6-1.56 0-2.647 1.237-2.647 3.334 0 2.223 1.161 3.346 2.622 3.346.662 0 1.174-.212 1.536-.662v.562c0 .787-.487 1.336-2.36 1.449zm.412-3.57c-.961 0-1.56-.824-1.56-2.123 0-1.36.549-2.11 1.56-2.11.525 0 1.036.3 1.299.724v2.76c-.288.474-.774.749-1.299.749zM40.88 54.913c1.562 0 2.623-1.236 2.623-3.333s-1.012-3.346-2.622-3.346c-.737 0-1.199.287-1.536.661v-.511h-1.298v8.889l1.298-.6v-2.459c.312.387.787.7 1.536.7zm-.186-1.223c-.612 0-1.062-.35-1.349-.737v-2.772c.287-.462.75-.724 1.349-.724.961 0 1.51.887 1.51 2.123 0 1.36-.537 2.11-1.51 2.11z" fill="#353431"/>
    <path fill="none" d="M47.83 16.016v28.209H19.621v-28.21z"/>
    <path d="M23.147 28.357v15.868h21.157V28.358zm1.763 1.764h17.631v12.341h-17.63zM33.726 16.016a8.814 8.814 0 0 0-8.815 8.815v3.526h1.763v-3.526c0-3.917 3.134-7.052 7.052-7.052s7.052 3.135 7.052 7.052v3.526h1.763v-3.526a8.814 8.814 0 0 0-8.815-8.815z" fill="gray"/>
    <path d="M23.147 28.357v15.868h21.157V28.357zm1.764 1.763h17.63v12.342h-17.63zm7.052 3.526v5.29h3.526v-5.73z" fill="gray"/>
</svg>
