<svg width="256" height="256" viewBox="0 0 67.73 67.73" xmlns="http://www.w3.org/2000/svg">
    <defs>
        <linearGradient id="d" x1="592" x2="592" y1="204" y2="-4" gradientTransform="translate(-85.853 238.35) scale(.2001)" gradientUnits="userSpaceOnUse">
            <stop offset="0" stop-color="#DF6B73"/>
            <stop offset=".483" stop-color="#F26D4B"/>
            <stop offset="1" stop-color="#F26D4B"/>
        </linearGradient>
        <linearGradient id="c" x1="529.655" x2="-35.31" y1="401.584" y2="119.093" gradientTransform="matrix(0 -.11989 .11989 0 .363 292.548)" gradientUnits="userSpaceOnUse">
            <stop offset="0" stop-color="#dcdbdc"/>
            <stop offset="1" stop-color="#dcdbdc"/>
        </linearGradient>
        <linearGradient id="b" x1="88" x2="488" y1="88" y2="488" gradientUnits="userSpaceOnUse">
            <stop offset="0" stop-opacity=".588"/>
            <stop offset=".88" stop-opacity="0"/>
            <stop offset="1"/>
        </linearGradient>
        <filter id="a" x="-.01" y="-.01" width="1.026" height="1.022" color-interpolation-filters="sRGB">
            <feGaussianBlur stdDeviation="2.12"/>
        </filter>
    </defs>
    <path d="M20.705 4.015c-9.339 0-10.344.96-10.298 10.317v38.633c-.046 9.357.96 10.317 10.298 10.317h25.97c9.34 0 10.299-.96 10.299-10.317V14.332c0-9.358-.96-10.317-10.298-10.317z" fill="none" opacity=".2" stroke-width="1.058" stroke="#16181D"/>
    <path transform="matrix(.1323 0 0 .1323 -4.41 -5.51)" d="M189.843 74c-70.593 0-78.189 7.25-77.843 77.987v292.026c-.346 70.736 7.25 77.987 77.843 77.987h196.314c70.593 0 76.006-7.274 77.843-77.987V151.987C464 81.25 456.75 74 386.157 74z" filter="url(#a)" opacity=".1"/>
    <path transform="matrix(.1323 0 0 .1323 -4.41 -5.51)" d="M189.843 74c-70.593 0-78.189 7.25-77.843 77.987v292.026c-.346 70.736 7.25 77.987 77.843 77.987h196.314C456.75 522 464 514.75 464 444.013V151.987C464 81.25 456.75 74 386.157 74z" fill="url(#b)" filter="url(#filter4380)" opacity=".3"/>
    <path d="M20.705 233.282c-9.339 0-10.344.959-10.298 10.317v38.632c-.046 9.358.96 10.317 10.298 10.317h25.97c9.34 0 10.299-.959 10.299-10.317V243.6c0-9.358-.96-10.317-10.298-10.317z" fill="url(#c)" transform="translate(0 -229.267)"/>
    <path d="M20.705 4.015c-9.339 0-10.344.96-10.298 10.317v.53c-.046-9.358.96-10.318 10.298-10.318h25.97c9.34 0 10.299.96 10.299 10.317v-.529c0-9.358-.96-10.317-10.298-10.317z" fill="#dcdbdc" opacity=".6"/>
    <path d="M42.882 243.865c-.376-.004-.876.055-1.541.155l-11.065 1.691c-2.671.57-2.662.746-2.67 3.003v18.313c-.112-.078-.222-.157-.337-.234-.85-.568-1.754-.973-2.969-.973-1.522 0-2.43.583-2.979 1.35-.549.768-.731 1.735-.731 2.483 0 .902.308 1.865.976 2.598.668.734 1.695 1.247 3.171 1.247 1.668 0 2.84-.465 3.504-1.375.522-.716.81-1.672.913-2.852v-.003a11 11 0 0 0 .034-.441c.014-.234.011-.67.011-.67v-14.021c0-2.003 0-2.123 2.672-2.58l7.869-1.234c2.677-.35 2.677-.107 2.677 1.398v12.868c-.108-.076-.215-.153-.327-.228-.849-.568-1.753-.973-2.968-.973-1.522 0-2.43.583-2.98 1.35-.549.768-.731 1.736-.731 2.484 0 .901.308 1.864.976 2.597.668.734 1.695 1.248 3.172 1.248 1.667 0 2.84-.466 3.503-1.375.522-.716.81-1.672.914-2.852v-.004c.014-.143.024-.29.034-.442.014-.233.01-.67.01-.67v-19.506c0-1.757-.01-2.34-1.138-2.352z" fill="url(#d)" opacity=".8" transform="translate(0 -229.267)"/>
    <path d="M33.69 4.015v59.267h12.986c9.339 0 10.055-.963 10.298-10.317V14.332c0-9.358-.96-10.317-10.298-10.317z" fill="#dcdbdc" opacity=".1"/>
    <path d="M10.407 33.648v19.317c-.046 9.358.96 10.317 10.298 10.317h25.97c9.34 0 10.056-.963 10.299-10.317V33.648z" fill="#dcdbdc" opacity=".2"/>
    <path d="M41.099 63.282l15.875-15.875v5.949c-.014 8.994-1.006 9.926-10.1 9.926z" fill="#dcdbdc" opacity=".4"/>
    <g fill="#353431">
        <path d="M22.078 48.536q.4-.1 1.048-.212.662-.113 1.523-.113.625 0 1.05.175.424.162.71.487.088-.062.276-.175.187-.112.461-.212.275-.112.612-.187.337-.088.724-.088.75 0 1.224.225.474.212.736.612.275.4.363.949.1.549.1 1.198v3.646h-1.162v-3.396q0-.574-.062-.986-.05-.412-.212-.687-.15-.275-.425-.4-.262-.137-.687-.137-.586 0-.973.162-.375.15-.512.275.1.325.15.712.05.387.05.811v3.646H25.91v-3.396q0-.574-.062-.986-.062-.412-.225-.687-.15-.275-.424-.4-.262-.137-.674-.137-.175 0-.375.012t-.387.038q-.175.012-.325.037-.15.025-.2.038v5.48h-1.16zM37.338 51.607q0-1.136-.562-1.748-.561-.612-1.498-.612-.524 0-.824.038-.287.037-.462.087v4.095q.213.175.612.337.4.163.874.163.5 0 .849-.175.362-.187.587-.5.224-.324.324-.749.1-.436.1-.936zm1.211 0q0 .737-.2 1.361-.187.624-.561 1.074t-.924.699q-.537.25-1.236.25-.562 0-.999-.15-.424-.15-.637-.287v2.596h-1.16v-8.602q.411-.1 1.023-.212.624-.125 1.436-.125.749 0 1.348.237.6.238 1.024.675.424.437.65 1.073.236.625.236 1.411zM42.018 53.992q1.111 0 1.586-.437.487-.437.487-1.174 0-.474-.2-.799t-.525-.512q-.324-.2-.761-.274-.425-.088-.874-.088h-.3v-.949h.412q.312 0 .637-.062.337-.062.612-.225t.45-.437q.174-.287.174-.711 0-.35-.125-.6t-.337-.412q-.2-.162-.474-.224-.262-.075-.562-.075-.6 0-1.024.174-.412.175-.699.363l-.45-.887q.15-.1.375-.212.237-.125.524-.225t.612-.162q.337-.075.7-.075.686 0 1.185.175.5.162.824.474.325.3.487.724.163.412.163.9 0 .673-.387 1.16-.387.475-.937.724.337.1.65.288.312.187.536.474.237.287.375.662.15.374.15.836 0 .562-.2 1.049-.187.474-.6.824-.399.35-1.01.55-.612.199-1.449.199-.325 0-.674-.05-.337-.05-.637-.125t-.524-.15q-.225-.075-.325-.124l.225-1.012q.212.1.7.262.498.163 1.21.163z"/>
    </g>
</svg>
