<svg width="256" height="256" viewBox="0 0 67.73 67.73" xmlns="http://www.w3.org/2000/svg">
    <defs>
        <linearGradient id="d" x1="592" x2="592" y1="204" y2="-4" gradientTransform="translate(-85.853 238.35) scale(.2001)" gradientUnits="userSpaceOnUse">
            <stop offset="0" stop-color="#DF6B73"/>
            <stop offset=".483" stop-color="#F26D4B"/>
            <stop offset="1" stop-color="#F26D4B"/>
        </linearGradient>
        <linearGradient id="c" x1="529.655" x2="-35.31" y1="401.584" y2="119.093" gradientTransform="matrix(0 -.11989 .11989 0 .363 292.548)" gradientUnits="userSpaceOnUse">
            <stop offset="0" stop-color="#dcdbdc"/>
            <stop offset="1" stop-color="#dcdbdc"/>
        </linearGradient>
        <linearGradient id="b" x1="88" x2="488" y1="88" y2="488" gradientUnits="userSpaceOnUse">
            <stop offset="0" stop-opacity=".588"/>
            <stop offset=".88" stop-opacity="0"/>
            <stop offset="1"/>
        </linearGradient>
        <filter id="a" x="-.01" y="-.01" width="1.026" height="1.022" color-interpolation-filters="sRGB">
            <feGaussianBlur stdDeviation="2.12"/>
        </filter>
    </defs>
    <path d="M20.705 4.015c-9.339 0-10.344.96-10.298 10.317v38.633c-.046 9.357.96 10.317 10.298 10.317h25.97c9.34 0 10.299-.96 10.299-10.317V14.332c0-9.358-.96-10.317-10.298-10.317z" fill="none" opacity=".2" stroke-width="1.058" stroke="#16181D"/>
    <path transform="matrix(.1323 0 0 .1323 -4.41 -5.51)" d="M189.843 74c-70.593 0-78.189 7.25-77.843 77.987v292.026c-.346 70.736 7.25 77.987 77.843 77.987h196.314c70.593 0 76.006-7.274 77.843-77.987V151.987C464 81.25 456.75 74 386.157 74z" filter="url(#a)" opacity=".1"/>
    <path transform="matrix(.1323 0 0 .1323 -4.41 -5.51)" d="M189.843 74c-70.593 0-78.189 7.25-77.843 77.987v292.026c-.346 70.736 7.25 77.987 77.843 77.987h196.314C456.75 522 464 514.75 464 444.013V151.987C464 81.25 456.75 74 386.157 74z" fill="url(#b)" filter="url(#filter4380)" opacity=".3"/>
    <path d="M20.705 233.282c-9.339 0-10.344.959-10.298 10.317v38.632c-.046 9.358.96 10.317 10.298 10.317h25.97c9.34 0 10.299-.959 10.299-10.317V243.6c0-9.358-.96-10.317-10.298-10.317z" fill="url(#c)" transform="translate(0 -229.267)"/>
    <path d="M20.705 4.015c-9.339 0-10.344.96-10.298 10.317v.53c-.046-9.358.96-10.318 10.298-10.318h25.97c9.34 0 10.299.96 10.299 10.317v-.529c0-9.358-.96-10.317-10.298-10.317z" fill="#dcdbdc" opacity=".6"/>
    <path d="M42.881 243.865c-.375-.004-.875.055-1.54.155l-11.065 1.691c-2.671.57-2.662.746-2.671 3.003v18.313c-.111-.078-.221-.157-.337-.234-.848-.568-1.753-.973-2.968-.973-1.522 0-2.43.583-2.979 1.35-.55.768-.731 1.735-.731 2.483 0 .902.308 1.865.976 2.598.667.734 1.694 1.247 3.171 1.247 1.667 0 2.84-.465 3.503-1.375.522-.716.811-1.672.914-2.852v-.003a11 11 0 0 0 .034-.441c.014-.234.011-.67.011-.67v-14.021c0-2.003 0-2.123 2.672-2.58l7.869-1.234c2.677-.35 2.677-.107 2.677 1.398v12.868c-.108-.076-.215-.153-.327-.228-.85-.568-1.753-.973-2.968-.973-1.522 0-2.43.583-2.98 1.35-.549.768-.731 1.736-.731 2.484 0 .901.308 1.864.976 2.597.668.734 1.695 1.248 3.172 1.248 1.667 0 2.84-.466 3.503-1.375.522-.716.81-1.672.913-2.852v-.004c.015-.143.025-.29.034-.442.014-.233.012-.67.012-.67v-19.506c0-1.757-.012-2.34-1.14-2.352z" fill="url(#d)" opacity=".8" transform="translate(0 -229.267)"/>
    <path d="M33.69 4.015v59.267h12.986c9.339 0 10.055-.963 10.298-10.317V14.332c0-9.358-.96-10.317-10.298-10.317z" fill="#dcdbdc" opacity=".1"/>
    <path d="M10.407 33.648v19.317c-.046 9.358.96 10.317 10.298 10.317h25.97c9.34 0 10.056-.963 10.299-10.317V33.648z" fill="#dcdbdc" opacity=".2"/>
    <path d="M41.099 63.282l15.875-15.875v5.949c-.014 8.994-1.006 9.926-10.1 9.926z" fill="#dcdbdc" opacity=".4"/>
    <g fill="#353431">
        <path d="M26.94 45.602q.413 0 .709.06.295.047.425.094l-.154.945q-.13-.047-.354-.095-.225-.059-.544-.059-.768 0-1.075.426-.307.413-.307 1.122v.532h2.363v.921H25.64v5.223h-1.099v-6.7q0-1.181.58-1.819.578-.65 1.819-.65zm4.052 9.287q-1.016-.024-1.441-.437t-.426-1.288V45.79l1.1-.189v7.385q0 .271.047.449t.153.283.284.166q.177.047.437.082zM34.444 53.98q.39 0 .685-.013.307-.023.508-.07v-1.832q-.118-.059-.39-.094-.26-.048-.638-.048-.248 0-.532.036-.271.035-.508.153-.224.107-.378.307-.153.19-.153.509 0 .59.378.827.378.224 1.028.224zm-.095-5.507q.662 0 1.11.177.461.166.733.485.284.307.402.744.118.426.118.945v3.84q-.142.024-.402.071-.248.036-.567.071t-.697.06q-.366.035-.732.035-.52 0-.957-.107t-.757-.33q-.319-.237-.496-.615t-.177-.91q0-.508.2-.874.213-.366.568-.59t.827-.332.992-.106q.166 0 .343.024.177.012.33.047.166.024.284.047t.166.036v-.307q0-.272-.06-.532-.058-.272-.212-.473-.153-.212-.425-.33-.26-.13-.685-.13-.544 0-.957.082-.402.071-.603.154l-.13-.91q.213-.095.709-.177.496-.095 1.075-.095zM41.196 54.912q-.745 0-1.312-.236-.555-.236-.945-.661-.378-.426-.567-1.005-.19-.59-.19-1.3t.202-1.3q.212-.59.59-1.015.379-.437.922-.674.555-.248 1.229-.248.413 0 .827.071t.791.225l-.248.933q-.248-.118-.579-.189-.319-.07-.685-.07-.921 0-1.418.578-.484.579-.484 1.69 0 .496.106.91.118.413.355.708.248.296.626.461.378.154.921.154.438 0 .792-.083t.555-.177l.154.921q-.095.06-.272.118-.177.048-.401.083-.225.047-.485.071-.248.035-.484.035z"/>
    </g>
</svg>
