<svg width="256" height="256" viewBox="0 0 67.73 67.73" xmlns="http://www.w3.org/2000/svg">
    <defs>
        <linearGradient id="d" x1="592" x2="592" y1="204" y2="-4" gradientTransform="translate(-85.853 238.35) scale(.2001)" gradientUnits="userSpaceOnUse">
            <stop offset="0" stop-color="#DF6B73"/>
            <stop offset=".483" stop-color="#F26D4B"/>
            <stop offset="1" stop-color="#F26D4B"/>
        </linearGradient>
        <linearGradient id="c" x1="-35.31" x2="529.655" y1="401.584" y2="189.716" gradientTransform="matrix(0 .11989 .11989 0 .363 233.282)" gradientUnits="userSpaceOnUse">
            <stop offset="0" stop-color="#dcdbdc"/>
            <stop offset="1" stop-color="#dcdbdc"/>
        </linearGradient>
        <linearGradient id="b" x1="88" x2="488" y1="88" y2="488" gradientUnits="userSpaceOnUse">
            <stop offset="0" stop-opacity=".588"/>
            <stop offset=".88" stop-opacity="0"/>
            <stop offset="1"/>
        </linearGradient>
        <filter id="a" x="-.01" y="-.01" width="1.026" height="1.022" color-interpolation-filters="sRGB">
            <feGaussianBlur stdDeviation="2.12"/>
        </filter>
    </defs>
    <path d="M20.705 4.015c-9.339 0-10.344.96-10.298 10.317v38.633c-.046 9.357.96 10.317 10.298 10.317h25.97c9.34 0 10.299-.96 10.299-10.317V14.332c0-9.358-.96-10.317-10.298-10.317z" fill="none" opacity=".2" stroke-width="1.058" stroke="#16181D"/>
    <path transform="matrix(.1323 0 0 .1323 -4.41 -5.51)" d="M189.843 74c-70.593 0-78.189 7.25-77.843 77.987v292.026c-.346 70.736 7.25 77.987 77.843 77.987h196.314c70.593 0 76.006-7.274 77.843-77.987V151.987C464 81.25 456.75 74 386.157 74z" filter="url(#a)" opacity=".1"/>
    <path transform="matrix(.1323 0 0 .1323 -4.41 -5.51)" d="M189.843 74c-70.593 0-78.189 7.25-77.843 77.987v292.026c-.346 70.736 7.25 77.987 77.843 77.987h196.314C456.75 522 464 514.75 464 444.013V151.987C464 81.25 456.75 74 386.157 74z" fill="url(#b)" filter="url(#filter4380)" opacity=".3"/>
    <path d="M20.705 292.548c-9.339 0-10.344-.959-10.298-10.317V243.6c-.046-9.358.96-10.317 10.298-10.317h25.97c9.34 0 10.299.959 10.299 10.317v38.632c0 9.358-.96 10.317-10.298 10.317z" fill="url(#c)" transform="translate(0 -229.267)"/>
    <path d="M20.705 4.015c-9.339 0-10.344.96-10.298 10.317v.53c-.046-9.358.96-10.318 10.298-10.318h25.97c9.34 0 10.299.96 10.299 10.317v-.529c0-9.358-.96-10.317-10.298-10.317z" fill="#dcdbdc" opacity=".6"/>
    <path d="M42.882 243.865c-.376-.004-.876.055-1.541.155l-11.065 1.691c-2.671.57-2.662.746-2.67 3.003v18.313c-.112-.078-.222-.157-.337-.234-.85-.568-1.754-.973-2.969-.973-1.522 0-2.43.583-2.979 1.35-.549.768-.731 1.735-.731 2.483 0 .902.308 1.865.976 2.598.668.734 1.695 1.247 3.171 1.247 1.668 0 2.84-.465 3.504-1.375.522-.716.81-1.672.913-2.852v-.003c.015-.143.025-.29.034-.441.014-.234.011-.67.011-.67v-14.021c0-2.003 0-2.123 2.672-2.58l7.869-1.234c2.677-.35 2.677-.107 2.677 1.398v12.868c-.108-.076-.215-.153-.327-.228-.849-.568-1.753-.973-2.968-.973-1.522 0-2.43.583-2.98 1.35-.549.768-.731 1.736-.731 2.484 0 .901.308 1.864.976 2.597.668.734 1.695 1.248 3.172 1.248 1.667 0 2.84-.466 3.503-1.375.522-.716.81-1.672.914-2.852v-.004c.014-.143.024-.29.034-.442.014-.233.01-.67.01-.67v-19.506c0-1.757-.01-2.34-1.138-2.352z" fill="url(#d)" opacity=".8" transform="translate(0 -229.267)"/>
    <path d="M33.69 4.015v59.267h12.986c9.339 0 10.055-.963 10.298-10.317V14.332c0-9.358-.96-10.317-10.298-10.317z" fill="#dcdbdc" opacity=".1"/>
    <path d="M10.407 33.648v19.317c-.046 9.358.96 10.317 10.298 10.317h25.97c9.34 0 10.056-.963 10.299-10.317V33.648z" fill="#dcdbdc" opacity=".2"/>
    <path d="M41.099 63.282l15.875-15.875v5.949c-.014 8.994-1.006 9.926-10.1 9.926z" fill="#dcdbdc" opacity=".4"/>
    <g fill="#353431">
        <path d="M27.235 54.712q-.35-.898-.75-2.047-.386-1.161-.71-2.41-.325 1.249-.712 2.41-.387 1.149-.737 2.047h-1.011q-.575-1.285-1.124-2.934-.55-1.648-1.036-3.558h1.248q.125.587.3 1.274.175.686.362 1.373.2.687.412 1.323.212.637.4 1.112.212-.587.412-1.236.212-.662.399-1.324.187-.674.35-1.31.174-.65.3-1.212h.96q.113.562.275 1.211.163.637.35 1.311.187.662.387 1.324.212.649.424 1.236.188-.475.387-1.112.213-.636.412-1.323.2-.687.375-1.373.175-.687.3-1.274h1.198q-.487 1.91-1.036 3.558-.55 1.649-1.124 2.934zM31.634 48.408q.4-.1 1.049-.213.661-.112 1.523-.112.624 0 1.049.175.424.162.711.487.088-.063.275-.175.187-.112.462-.212.274-.113.612-.188.337-.087.724-.087.749 0 1.223.225.475.212.737.611.274.4.362.95.1.549.1 1.198v3.645H39.3v-3.395q0-.575-.063-.987-.05-.412-.212-.686-.15-.275-.425-.4-.262-.137-.686-.137-.587 0-.974.162-.375.15-.512.275.1.324.15.711.05.387.05.812v3.645h-1.161v-3.395q0-.575-.063-.987-.062-.412-.224-.686-.15-.275-.425-.4-.262-.137-.674-.137-.175 0-.375.012t-.387.038q-.174.012-.324.037-.15.025-.2.038v5.48h-1.161zM44.585 53.876q.412 0 .724-.013.325-.025.537-.074v-1.936q-.125-.062-.412-.1-.275-.05-.674-.05-.263 0-.562.038-.287.037-.537.162-.237.113-.4.325-.162.2-.162.537 0 .624.4.874.4.237 1.086.237zm-.1-5.818q.7 0 1.174.187.486.175.774.512.3.325.424.787.125.45.125.998V54.6q-.15.025-.425.075-.262.037-.599.075-.337.037-.736.062-.387.038-.774.038-.55 0-1.012-.113t-.799-.35q-.337-.249-.524-.648-.187-.4-.187-.962 0-.537.212-.924.225-.387.6-.624t.873-.35q.5-.112 1.049-.112.175 0 .362.025.187.013.35.05.174.025.299.05t.175.038v-.325q0-.287-.063-.562-.062-.287-.224-.5-.163-.224-.45-.349-.274-.137-.724-.137-.574 0-1.011.087-.425.075-.637.162l-.137-.96q.224-.1.749-.188.524-.1 1.136-.1z"/>
    </g>
</svg>
