<svg width="256" height="256" viewBox="0 0 67.73 67.73" xmlns="http://www.w3.org/2000/svg">
    <defs>
        <linearGradient id="d" x1="592" x2="592" y1="204" y2="-4" gradientTransform="translate(-85.853 238.35) scale(.2001)" gradientUnits="userSpaceOnUse">
            <stop offset="0" stop-color="#DF6B73"/>
            <stop offset=".483" stop-color="#F26D4B"/>
            <stop offset="1" stop-color="#F26D4B"/>
        </linearGradient>
        <linearGradient id="c" x1="-35.31" x2="529.655" y1="401.584" y2="119.093" gradientTransform="matrix(0 .11989 .11989 0 .363 233.282)" gradientUnits="userSpaceOnUse">
            <stop offset="0" stop-color="#dcdbdc"/>
            <stop offset="1" stop-color="#dcdbdc"/>
        </linearGradient>
        <linearGradient id="b" x1="88" x2="488" y1="88" y2="488" gradientUnits="userSpaceOnUse">
            <stop offset="0" stop-opacity=".588"/>
            <stop offset=".88" stop-opacity="0"/>
            <stop offset="1"/>
        </linearGradient>
        <filter id="a" x="-.01" y="-.01" width="1.026" height="1.022" color-interpolation-filters="sRGB">
            <feGaussianBlur stdDeviation="2.12"/>
        </filter>
    </defs>
    <path d="M20.705 4.015c-9.339 0-10.344.96-10.298 10.317v38.633c-.046 9.357.96 10.317 10.298 10.317h25.97c9.34 0 10.299-.96 10.299-10.317V14.332c0-9.358-.96-10.317-10.298-10.317z" fill="none" opacity=".2" stroke-width="1.058" stroke="#16181D"/>
    <path transform="matrix(.1323 0 0 .1323 -4.41 -5.51)" d="M189.843 74c-70.593 0-78.189 7.25-77.843 77.987v292.026c-.346 70.736 7.25 77.987 77.843 77.987h196.314c70.593 0 76.006-7.274 77.843-77.987V151.987C464 81.25 456.75 74 386.157 74z" filter="url(#a)" opacity=".1"/>
    <path transform="matrix(.1323 0 0 .1323 -4.41 -5.51)" d="M189.843 74c-70.593 0-78.189 7.25-77.843 77.987v292.026c-.346 70.736 7.25 77.987 77.843 77.987h196.314C456.75 522 464 514.75 464 444.013V151.987C464 81.25 456.75 74 386.157 74z" fill="url(#b)" filter="url(#filter4380)" opacity=".3"/>
    <path d="M20.705 292.548c-9.339 0-10.344-.959-10.298-10.317V243.6c-.046-9.358.96-10.317 10.298-10.317h25.97c9.34 0 10.299.959 10.299 10.317v38.632c0 9.358-.96 10.317-10.298 10.317z" fill="url(#c)" transform="translate(0 -229.267)"/>
    <path d="M20.705 4.015c-9.339 0-10.344.96-10.298 10.317v.53c-.046-9.358.96-10.318 10.298-10.318h25.97c9.34 0 10.299.96 10.299 10.317v-.529c0-9.358-.96-10.317-10.298-10.317z" fill="#dcdbdc" opacity=".6"/>
    <path d="M42.882 243.865c-.376-.004-.876.055-1.541.155l-11.065 1.691c-2.671.57-2.662.746-2.67 3.003v18.313c-.112-.078-.222-.157-.337-.234-.85-.568-1.754-.973-2.969-.973-1.522 0-2.43.583-2.979 1.35-.549.768-.731 1.735-.731 2.483 0 .902.308 1.865.976 2.598.668.734 1.695 1.247 3.171 1.247 1.668 0 2.84-.465 3.504-1.375.522-.716.81-1.672.913-2.852v-.003a11 11 0 0 0 .034-.441c.014-.234.011-.67.011-.67v-14.021c0-2.003 0-2.123 2.672-2.58l7.869-1.234c2.677-.35 2.677-.107 2.677 1.398v12.868c-.108-.076-.215-.153-.327-.228-.849-.568-1.753-.973-2.968-.973-1.522 0-2.43.583-2.98 1.35-.549.768-.731 1.736-.731 2.484 0 .901.308 1.864.976 2.597.668.734 1.695 1.248 3.172 1.248 1.667 0 2.84-.466 3.503-1.375.522-.716.81-1.672.914-2.852v-.004c.014-.143.024-.29.034-.442.014-.233.01-.67.01-.67v-19.506c0-1.757-.01-2.34-1.138-2.352z" fill="url(#d)" opacity=".8" transform="translate(0 -229.267)"/>
    <path d="M33.69 4.015v59.267h12.986c9.339 0 10.055-.963 10.298-10.317V14.332c0-9.358-.96-10.317-10.298-10.317z" fill="#dcdbdc" opacity=".1"/>
    <path d="M10.407 33.648v19.317c-.046 9.358.96 10.317 10.298 10.317h25.97c9.34 0 10.056-.963 10.299-10.317V33.648z" fill="#dcdbdc" opacity=".2"/>
    <path d="M41.099 63.282l15.875-15.875v5.949c-.014 8.994-1.006 9.926-10.1 9.926z" fill="#dcdbdc" opacity=".4"/>
    <g fill="#353431">
        <path d="M30.104 51.567q0 .774-.224 1.398-.225.625-.637 1.074-.4.45-.961.7-.562.237-1.224.237t-1.223-.238q-.562-.25-.974-.699-.4-.45-.624-1.074-.225-.624-.225-1.398 0-.761.225-1.386.224-.636.624-1.086.412-.45.974-.687.561-.25 1.223-.25t1.224.25q.562.238.961.687.412.45.637 1.086.224.625.224 1.386zm-1.21 0q0-1.099-.5-1.735-.487-.65-1.336-.65t-1.348.65q-.487.636-.487 1.735t.487 1.748q.5.637 1.348.637t1.336-.637q.5-.65.5-1.748zM35.808 54.164q-.15.1-.587.262-.424.15-.998.15-.587 0-1.112-.187-.511-.188-.899-.575-.387-.4-.611-.986-.225-.587-.225-1.398 0-.712.212-1.299.212-.599.612-1.023.412-.437.999-.675.587-.25 1.323-.25.812 0 1.411.126.612.112 1.024.212v5.793q0 1.498-.774 2.172-.774.674-2.347.674-.612 0-1.162-.1-.536-.1-.936-.237l.212-1.011q.35.137.85.237.511.113 1.06.113 1.037 0 1.486-.412.462-.412.462-1.311zm-.012-4.82q-.175-.05-.475-.087-.287-.05-.786-.05-.937 0-1.449.612-.499.612-.499 1.623 0 .562.137.962.15.4.387.661.25.263.562.387.325.125.662.125.462 0 .849-.125.387-.137.612-.312zM43.026 54.164q-.15.1-.587.262-.424.15-.999.15-.586 0-1.11-.187-.513-.188-.9-.575-.387-.4-.611-.986-.225-.587-.225-1.398 0-.712.212-1.299.212-.599.612-1.023.412-.437.999-.675.586-.25 1.323-.25.812 0 1.41.126.613.112 1.025.212v5.793q0 1.498-.774 2.172t-2.348.674q-.611 0-1.16-.1-.538-.1-.937-.237l.212-1.011q.35.137.85.237.511.113 1.06.113 1.037 0 1.486-.412.462-.412.462-1.311zm-.013-4.82q-.174-.05-.474-.087-.287-.05-.786-.05-.937 0-1.449.612-.5.612-.5 1.623 0 .562.138.962.15.4.387.661.25.263.562.387.325.125.662.125.462 0 .849-.125.387-.137.611-.312z"/>
    </g>
</svg>
