<svg width="256" height="256" viewBox="0 0 67.73 67.73" xmlns="http://www.w3.org/2000/svg">
    <defs>
        <linearGradient id="c" x1="529.655" x2="-35.31" y1="401.584" y2="119.093" gradientTransform="matrix(0 -.11989 .11989 0 .363 292.548)" gradientUnits="userSpaceOnUse">
            <stop offset="0" stop-color="#dcdbdc"/>
            <stop offset="1" stop-color="#dcdbdc"/>
        </linearGradient>
        <linearGradient id="b" x1="88" x2="488" y1="88" y2="488" gradientUnits="userSpaceOnUse">
            <stop offset="0" stop-opacity=".588"/>
            <stop offset=".88" stop-opacity="0"/>
            <stop offset="1"/>
        </linearGradient>
        <filter id="a" x="-.01" y="-.01" width="1.026" height="1.022" color-interpolation-filters="sRGB">
            <feGaussianBlur stdDeviation="2.12"/>
        </filter>
    </defs>
    <path d="M20.705 4.015c-9.339 0-10.344.96-10.298 10.317v38.633c-.046 9.357.96 10.317 10.298 10.317h25.97c9.34 0 10.299-.96 10.299-10.317V14.332c0-9.358-.96-10.317-10.298-10.317z" fill="none" opacity=".2" stroke-width="1.058" stroke="#16181D"/>
    <path transform="matrix(.1323 0 0 .1323 -4.41 -5.51)" d="M189.843 74c-70.593 0-78.189 7.25-77.843 77.987v292.026c-.346 70.736 7.25 77.987 77.843 77.987h196.314c70.593 0 76.006-7.274 77.843-77.987V151.987C464 81.25 456.75 74 386.157 74z" filter="url(#a)" opacity=".1"/>
    <path transform="matrix(.1323 0 0 .1323 -4.41 -5.51)" d="M189.843 74c-70.593 0-78.189 7.25-77.843 77.987v292.026c-.346 70.736 7.25 77.987 77.843 77.987h196.314C456.75 522 464 514.75 464 444.013V151.987C464 81.25 456.75 74 386.157 74z" fill="url(#b)" filter="url(#filter4380)" opacity=".3"/>
    <path d="M20.705 233.282c-9.339 0-10.344.959-10.298 10.317v38.632c-.046 9.358.96 10.317 10.298 10.317h25.97c9.34 0 10.299-.959 10.299-10.317V243.6c0-9.358-.96-10.317-10.298-10.317z" fill="url(#c)" transform="translate(0 -229.267)"/>
    <path d="M25.982 45.1l2.152-7.337 1.839 11.58 2.735-13.447 1.48 12.806 2.69-13.74 1.345 13.34 2.152-9.471 1.21 5.469" fill="none" stroke-width="1.142" stroke="#F0DD3F"/>
    <path d="M40.797 47.007L38.74 36.382 36.403 49.3 34.72 37.71l-3.268 9.117L29.578 36.1l-3.459 11.63-3.408-9.415" fill="none" paint-order="fill markers stroke" stroke-linecap="round" stroke-linejoin="bevel" stroke-width="1.099" stroke="#F26D4B"/>
    <path d="M33.69 16.45c-3.404-.002-6.148.635-8.379 1.657-.456.2-.9.419-1.328.661-.116.068-.22.143-.333.213-.282.171-.566.342-.833.532-.22.158-.418.332-.624.5-1.451 1.18-2.514 2.612-3.304 4.169-.04.078-.092.153-.13.231-.038.081-.064.164-.101.245-.484 1.052-.884 2.137-1.12 3.267-.044.212-.051.43-.088.643a19.22 19.22 0 0 0-.24 1.721l-.015.153c-.057.68-.04 1.301-.032 1.939.005.236-.002.471.01.708.03.681.082 1.29.166 1.883.05.414.116.821.185 1.23.012.055.016.132.028.186v.004l.05.231c.074.403.129.813.218 1.208l.259 1.157.019-.005 2.498 11.863 2.781-.49c1.565-.278 2.68-.521 3.197-.935.26-.208.41-.432.486-.833.077-.4.057-.984-.11-1.781l-1.875-8.86c-.168-.798-.386-1.347-.624-1.698s-.48-.518-.815-.625c-.669-.214-1.799-.057-3.373.222l-.384.07c-.431-2.532-.516-5.146-.023-7.51.584-2.801 1.902-5.225 4.335-6.963 2.396-1.712 5.958-2.576 9.499-2.568 3.54-.007 7.103.856 9.499 2.568 2.433 1.738 3.75 4.162 4.335 6.963.493 2.364.408 4.978-.024 7.51l-.384-.07c-1.574-.279-2.704-.436-3.373-.222-.334.107-.575.273-.814.625s-.456.9-.625 1.698l-1.873 8.86c-.169.797-.189 1.38-.112 1.781.077.4.226.625.486.833.518.414 1.633.657 3.197.935l2.781.49 2.499-11.863.019.005.259-1.157c.089-.395.144-.805.217-1.208l.051-.23v-.005c.012-.054.017-.131.028-.186a27.9 27.9 0 0 0 .185-1.23c.084-.593.135-1.202.166-1.883.012-.237.005-.472.01-.708.007-.638.024-1.258-.033-1.939l-.014-.153a19.289 19.289 0 0 0-.24-1.72c-.037-.214-.044-.432-.088-.644-.236-1.13-.636-2.215-1.12-3.267-.037-.08-.063-.164-.102-.245-.038-.078-.09-.153-.13-.231-.79-1.557-1.852-2.989-3.303-4.169-.206-.168-.404-.342-.625-.5-.266-.19-.55-.36-.833-.532-.112-.07-.217-.145-.333-.213-.427-.242-.871-.46-1.328-.661-2.23-1.022-4.973-1.659-8.378-1.657z" fill="#3371C2"/>
    <path d="M33.69 4.015v59.267h12.986c9.339 0 10.055-.963 10.298-10.317V14.332c0-9.358-.96-10.317-10.298-10.317z" fill="#dcdbdc" opacity=".1"/>
    <path d="M10.407 33.648v19.317c-.046 9.358.96 10.317 10.298 10.317h25.97c9.34 0 10.056-.963 10.299-10.317V33.648z" fill="#dcdbdc" opacity=".2"/>
    <path d="M41.099 63.282l15.875-15.875v5.949c-.014 8.994-1.006 9.926-10.1 9.926z" fill="#dcdbdc" opacity=".4"/>
    <path d="M20.705 4.015c-9.339 0-10.344.96-10.298 10.317v.53c-.046-9.358.96-10.318 10.298-10.318h25.97c9.34 0 10.299.96 10.299 10.317v-.529c0-9.358-.96-10.317-10.298-10.317z" fill="#dcdbdc" opacity=".6"/>
</svg>
