<svg width="256" height="256" viewBox="0 0 67.73 67.73" xmlns="http://www.w3.org/2000/svg">
    <defs>
        <linearGradient id="c" x1="529.655" x2="-35.31" y1="401.584" y2="119.093" gradientTransform="matrix(0 -.11989 .11989 0 .363 292.548)" gradientUnits="userSpaceOnUse">
            <stop offset="0" stop-color="#dcdbdc"/>
            <stop offset="1" stop-color="#dcdbdc"/>
        </linearGradient>
        <linearGradient id="b" x1="88" x2="488" y1="88" y2="488" gradientUnits="userSpaceOnUse">
            <stop offset="0" stop-opacity=".588"/>
            <stop offset=".88" stop-opacity="0"/>
            <stop offset="1"/>
        </linearGradient>
        <filter id="a" x="-.01" y="-.01" width="1.026" height="1.022" color-interpolation-filters="sRGB">
            <feGaussianBlur stdDeviation="2.12"/>
        </filter>
        <linearGradient id="d" x1="32.35" x2="21.213" y1="28.083" y2="30.293" gradientTransform="matrix(1.33444 0 0 1.33444 -3.37 227.1)" gradientUnits="userSpaceOnUse">
            <stop offset="0"/>
            <stop offset="1" stop-opacity="0"/>
        </linearGradient>
    </defs>
    <path d="M20.705 4.015c-9.339 0-10.344.96-10.298 10.317v38.633c-.046 9.357.96 10.317 10.298 10.317h25.97c9.34 0 10.299-.96 10.299-10.317V14.332c0-9.358-.96-10.317-10.298-10.317z" fill="none" opacity=".2" stroke-width="1.058" stroke="#16181D"/>
    <path transform="matrix(.1323 0 0 .1323 -4.41 -5.51)" d="M189.843 74c-70.593 0-78.189 7.25-77.843 77.987v292.026c-.346 70.736 7.25 77.987 77.843 77.987h196.314c70.593 0 76.006-7.274 77.843-77.987V151.987C464 81.25 456.75 74 386.157 74z" filter="url(#a)" opacity=".1"/>
    <path transform="matrix(.1323 0 0 .1323 -4.41 -5.51)" d="M189.843 74c-70.593 0-78.189 7.25-77.843 77.987v292.026c-.346 70.736 7.25 77.987 77.843 77.987h196.314C456.75 522 464 514.75 464 444.013V151.987C464 81.25 456.75 74 386.157 74z" fill="url(#b)" filter="url(#filter4380)" opacity=".3"/>
    <path d="M20.705 233.282c-9.339 0-10.344.959-10.298 10.317v38.632c-.046 9.358.96 10.317 10.298 10.317h25.97c9.34 0 10.299-.959 10.299-10.317V243.6c0-9.358-.96-10.317-10.298-10.317z" fill="url(#c)" transform="translate(0 -229.267)"/>
    <path d="M20.705 4.015c-9.339 0-10.344.96-10.298 10.317v.53c-.046-9.358.96-10.318 10.298-10.318h25.97c9.34 0 10.299.96 10.299 10.317v-.529c0-9.358-.96-10.317-10.298-10.317z" fill="#dcdbdc" opacity=".6"/>
    <path d="M41.099 63.282l15.875-15.875v5.949c-.014 8.994-1.006 9.926-10.1 9.926z" fill="#dcdbdc" opacity=".4"/>
    <g transform="matrix(.55809 0 0 .55809 14.31 -111.45)">
        <path d="M12.38 240.523s4.2 9.09 14.025 8.833c20.59-.542 24.2-11.815 24.717-13.442.516-1.626 1.307-1.38 1.49.123 6.714 63.976-46.602 36.526-48.496 25.63 10.59-3.253 8.169-6.973 8.169-6.973z" fill-rule="evenodd" fill="#353431"/>
        <path d="M30.154 249.015a6.977 7.506 0 0 0-6.03 3.744 6.195 6.41 0 0 0-5.519-3.499 6.195 6.41 0 0 0-6.195 6.41 6.195 6.41 0 0 0 6.195 6.412 6.195 6.41 0 0 0 5.083-2.75 6.977 7.506 0 0 0 6.466 4.695 6.977 7.506 0 0 0 6.977-7.506 6.977 7.506 0 0 0-6.977-7.506z" fill="#dcdbdc"/>
        <ellipse transform="rotate(-24.043)" cx="-97.563" cy="242.372" rx="7.046" ry="8.727"/>
        <ellipse cx="19.718" cy="256.156" rx="2.091" ry="2.203" fill="#353431"/>
        <ellipse cx="31.755" cy="256.972" rx="2.418" ry="2.285" fill="#353431"/>
        <path d="M22.752 266.76c8.992 1.799 13.572.131 16.252-1.938-.708-.914-1.917-1.917-1.917-1.917s3.14.873 4.247 2.3c1.102 1.423.409 2.3.12 4.121-.642-1.6-1.841-2.2-2.003-2.835-2.41 3.332-8.416 3.194-16.7.27z" fill-rule="evenodd" fill="url(#d)"/>
        <path d="M50.574 274.8l1.236-2.461c-4.6-3.365-13.077-5.813-13.077-5.813-1.47-.684-1.933.636-.915 1.494 0 0 7.25 5.198 12.756 6.78z" fill="#F69331" stroke-linecap="round" stroke-width="1.3342055999999998" stroke="#F69331"/>
        <path d="M56.47 277.07l.661-1.465-5.134-3.29-.41-.034-.176-.567c-.746.467-1.83 2.202-1.543 3.178l.555-.21.3.29z" fill="#dcdbdc" stroke-linecap="round" stroke-width="1.3342055999999998" stroke="#dcdbdc"/>
        <path d="M63.931 283.291c-1.6-5.433-2.168-9.747-6.351-9.363-3.371.309-3.607 5.14-.124 6.472 3.356 1.284 6.475 2.891 6.475 2.891z" fill="#353431"/>
    </g>
    <path d="M33.69 4.015v59.267h12.986c9.339 0 10.055-.963 10.298-10.317V14.332c0-9.358-.96-10.317-10.298-10.317z" fill="#dcdbdc" opacity=".1"/>
    <path d="M10.407 33.648v19.317c-.046 9.358.96 10.317 10.298 10.317h25.97c9.34 0 10.056-.963 10.299-10.317V33.648z" fill="#dcdbdc" opacity=".2"/>
</svg>
