<svg width="256" height="256" viewBox="0 0 67.73 67.73" xmlns="http://www.w3.org/2000/svg">
    <defs>
        <linearGradient id="c" x1="529.655" x2="-35.31" y1="401.584" y2="119.093" gradientTransform="matrix(.11989 0 0 .11989 4.187 232.14)" gradientUnits="userSpaceOnUse">
            <stop offset="0" stop-color="#C677DD"/>
            <stop offset="1" stop-color="#C677DD"/>
        </linearGradient>
        <linearGradient id="b" x1="88" x2="488" y1="88" y2="488" gradientUnits="userSpaceOnUse">
            <stop offset="0" stop-opacity=".588"/>
            <stop offset=".88" stop-opacity="0"/>
            <stop offset="1"/>
        </linearGradient>
        <filter id="a" x="-.01" y="-.01" width="1.026" height="1.022" color-interpolation-filters="sRGB">
            <feGaussianBlur stdDeviation="2.12"/>
        </filter>
    </defs>
    <path transform="matrix(0 -.1323 .1323 0 -5.602 74.564)" d="M189.843 74c-70.593 0-78.189 7.25-77.843 77.987v292.026c-.346 70.736 7.25 77.987 77.843 77.987h228.314c70.593 0 75.906-7.277 77.843-77.987V151.987C496 81.25 488.75 74 418.157 74z" filter="url(#a)" opacity=".1"/>
    <path transform="matrix(0 .1323 .1323 0 -5.602 -5.867)" d="M189.843 74c-70.593 0-78.189 7.25-77.843 77.987v292.026c-.346 70.736 7.25 77.987 77.843 77.987h228.314C488.75 522 496 514.75 496 444.013V151.987C496 81.25 488.75 74 418.157 74z" fill="url(#b)" filter="url(#filter4380)" opacity=".3"/>
    <path d="M63.454 248.25c0-9.34-.96-10.344-10.317-10.299H14.504c-9.358-.046-10.317.96-10.317 10.298v30.204c0 9.34.96 10.298 10.317 10.298h38.633c9.358 0 10.317-.959 10.317-10.298z" fill="url(#c)" transform="translate(0 -229.267)"/>
    <path d="M4.187 48.658v.529c0 9.339.959 10.297 10.317 10.297h38.633c9.358 0 10.317-.958 10.317-10.297v-.53c0 9.34-.96 10.298-10.317 10.298H14.504c-9.358 0-10.317-.958-10.317-10.297z" opacity=".2"/>
    <path d="M14.504 8.684c-9.358-.045-10.317.96-10.317 10.299v.529c0-9.34.96-10.344 10.317-10.298h38.633c9.358-.046 10.317.959 10.317 10.298v-.53c0-9.338-.96-10.343-10.317-10.298H33.82z" fill="#dcdbdc" opacity=".2"/>
    <path d="M28.104 27.404L16.888 48.9h27.105l-8.29-15.89-2.337 4.48zM45.464 19.267a5.292 5.292 0 1 0 0 10.584 5.292 5.292 0 0 0 0-10.584z" fill="#dcdbdc" opacity=".6"/>
    <path d="M4.187 34.085h59.267v15.102c0 9.338-.962 10.055-10.317 10.298H14.504c-9.358 0-10.317-.96-10.317-10.298z" fill="#dcdbdc" opacity=".1"/>
    <path d="M33.82 8.685h19.317c9.358-.046 10.317.959 10.317 10.298v30.204c0 9.338-.962 10.055-10.317 10.298H33.82z" fill="#dcdbdc" opacity=".1"/>
    <path d="M47.579 59.113l15.875-15.875v5.949c-.014 8.994-1.006 9.926-10.1 9.926z" fill="#dcdbdc" opacity=".1"/>
</svg>
