<svg width="256" height="256" viewBox="0 0 67.73 67.73" xmlns="http://www.w3.org/2000/svg" xmlns:xlink="http://www.w3.org/1999/xlink">
    <defs>
        <radialGradient id="k" cx="152.333" cy="-754.638" r="15" gradientTransform="matrix(0 .27074 -4.04344 0 -2201.98 -1535.94)" gradientUnits="userSpaceOnUse">
            <stop offset="0" stop-color="gray" stop-opacity=".502"/>
            <stop offset="1" stop-opacity="0"/>
        </radialGradient>
        <linearGradient id="l" x1="850.25" x2="850.25" y1="-1506.575" y2="-1510.583" gradientUnits="userSpaceOnUse" xlink:href="#a"/>
        <linearGradient id="a">
            <stop offset="0" stop-color="gray"/>
            <stop offset="1" stop-color="#353431"/>
        </linearGradient>
        <linearGradient id="m" x1="809.625" x2="809.625" y1="-1074.763" y2="-1116.764" gradientTransform="matrix(2.03333 0 0 2.04762 -752.267 686.81)" gradientUnits="userSpaceOnUse">
            <stop offset="0" stop-color="#F69331"/>
            <stop offset="1" stop-color="#F69331"/>
        </linearGradient>
        <linearGradient id="n" x1="812" x2="812" y1="-1075.638" y2="-1115.638" gradientTransform="matrix(2.03333 0 0 2.15 -752.267 798.982)" gradientUnits="userSpaceOnUse">
            <stop offset="0" stop-color="#dcdbdc"/>
            <stop offset="1" stop-color="#dcdbdc"/>
        </linearGradient>
        <radialGradient id="p" cx="-1535.455" cy="-853" r="10" gradientTransform="matrix(-3.31574 0 0 -3.2 -6604.01 -3579.6)" gradientUnits="userSpaceOnUse">
            <stop offset="0" stop-color="#dcdbdc"/>
            <stop offset="1" stop-color="#dcdbdc" stop-opacity="0"/>
        </radialGradient>
        <linearGradient id="q" x1="825.25" x2="825.25" y1="-1559.638" y2="-1525.638" gradientUnits="userSpaceOnUse" xlink:href="#b"/>
        <linearGradient id="b">
            <stop offset="0" stop-color="#F26D4B"/>
            <stop offset="1" stop-color="#353431"/>
        </linearGradient>
        <linearGradient id="r" x1="895.5" x2="895.5" y1="647.812" y2="735.75" gradientUnits="userSpaceOnUse" xlink:href="#c"/>
        <linearGradient id="c">
            <stop offset="0" stop-color="#F69331"/>
            <stop offset="1" stop-color="#F26D4B"/>
        </linearGradient>
        <linearGradient id="s" x1="798.245" x2="902" y1="-1589.138" y2="-1589.138" gradientUnits="userSpaceOnUse">
            <stop offset="0" stop-color="#F26D4B"/>
            <stop offset=".169" stop-color="#F69331"/>
            <stop offset=".838" stop-color="#F69331"/>
            <stop offset="1" stop-color="#F26D4B"/>
        </linearGradient>
        <linearGradient id="t" x1="902.25" x2="902.25" y1="-1534.416" y2="-1524.357" gradientUnits="userSpaceOnUse">
            <stop offset="0" stop-color="gray"/>
            <stop offset="1" stop-color="#353431"/>
        </linearGradient>
        <linearGradient id="u" x1="714" x2="714" y1="-1063.638" y2="-1079.16" gradientTransform="matrix(1.17949 0 0 1.5 10.846 67.82)" gradientUnits="userSpaceOnUse">
            <stop offset="0" stop-color="#dcdbdc"/>
            <stop offset="1" stop-color="#dcdbdc" stop-opacity="0"/>
        </linearGradient>
        <linearGradient id="v" x1="889" x2="879" y1="-1054.638" y2="-1042.638" gradientTransform="matrix(2 0 0 2 -898 556.638)" gradientUnits="userSpaceOnUse">
            <stop offset="0" stop-color="#97C378"/>
            <stop offset="1" stop-color="#97C378"/>
        </linearGradient>
        <linearGradient id="w" x1="818.035" x2="882.237" y1="-1575.703" y2="-1575.703" gradientUnits="userSpaceOnUse">
            <stop offset="0" stop-color="#F26D4B"/>
            <stop offset=".169" stop-color="#F26D4B"/>
            <stop offset=".838" stop-color="#F26D4B"/>
            <stop offset="1" stop-color="#F26D4B"/>
        </linearGradient>
        <linearGradient id="x" x1="-17" x2="144" y1="-1194.638" y2="-1194.638" gradientTransform="matrix(.7267 0 0 1 802.354 -405)" gradientUnits="userSpaceOnUse" xlink:href="#d"/>
        <linearGradient id="d">
            <stop offset="0" stop-color="#dcdbdc" stop-opacity="0"/>
            <stop offset=".493" stop-color="#dcdbdc"/>
            <stop offset="1" stop-color="#dcdbdc" stop-opacity="0"/>
        </linearGradient>
        <linearGradient id="y" x1="895.5" x2="895.5" y1="621.562" y2="709.5" gradientUnits="userSpaceOnUse" xlink:href="#c"/>
        <linearGradient id="z" x1="895.5" x2="895.5" y1="595.312" y2="683.25" gradientUnits="userSpaceOnUse" xlink:href="#c"/>
        <linearGradient id="A" x1="895.5" x2="895.5" y1="569.062" y2="657" gradientUnits="userSpaceOnUse" xlink:href="#c"/>
        <linearGradient id="B" x1="-17" x2="144" y1="-1194.638" y2="-1194.638" gradientTransform="matrix(.64596 0 0 1 808.981 -396)" gradientUnits="userSpaceOnUse" xlink:href="#e"/>
        <linearGradient id="e">
            <stop offset="0" stop-opacity="0"/>
            <stop offset=".493"/>
            <stop offset="1" stop-opacity="0"/>
        </linearGradient>
        <linearGradient id="C" x1="-17" x2="144" y1="-1194.638" y2="-1194.638" gradientTransform="matrix(.39752 0 0 1 824.758 -386)" gradientUnits="userSpaceOnUse" xlink:href="#e"/>
        <linearGradient id="D" x1="-17" x2="144" y1="-1194.638" y2="-1194.638" gradientTransform="matrix(.7205 0 0 1 804.248 -319)" gradientUnits="userSpaceOnUse" xlink:href="#e"/>
        <linearGradient id="F" x1="-17" x2="144" y1="-1194.638" y2="-1194.638" gradientTransform="matrix(.2861 0 0 1 858.013 -333.937)" gradientUnits="userSpaceOnUse" xlink:href="#d"/>
        <linearGradient id="I" x1="881" x2="887" y1="-1042.638" y2="-1048.638" gradientTransform="matrix(2 0 0 2 -898 556.638)" gradientUnits="userSpaceOnUse">
            <stop offset="0" stop-color="#97C378"/>
            <stop offset="1" stop-color="#dcdbdc"/>
        </linearGradient>
        <linearGradient id="i" x1="208" x2="96" y1="28" y2="284" gradientTransform="matrix(.26458 0 0 .26458 -6.526 221.64)" gradientUnits="userSpaceOnUse">
            <stop offset="0" stop-color="#dcdbdc"/>
            <stop offset="1" stop-color="#dcdbdc"/>
        </linearGradient>
        <linearGradient id="h" x1="529.655" x2="-35.31" y1="401.584" y2="119.093" gradientTransform="matrix(0 -.11989 -.11989 0 67.016 292.548)" gradientUnits="userSpaceOnUse">
            <stop offset="0" stop-color="#F26D4B"/>
            <stop offset="1" stop-color="#F26D4B"/>
        </linearGradient>
        <linearGradient id="g" x1="88" x2="488" y1="88" y2="488" gradientUnits="userSpaceOnUse">
            <stop offset="0" stop-opacity=".588"/>
            <stop offset=".88" stop-opacity="0"/>
            <stop offset="1"/>
        </linearGradient>
        <filter id="f" x="-.01" y="-.01" width="1.026" height="1.022" color-interpolation-filters="sRGB">
            <feGaussianBlur stdDeviation="2.12"/>
        </filter>
        <radialGradient id="j" cx="152.333" cy="-754.638" r="15" gradientTransform="matrix(0 .16921 -.83542 0 197.029 -1517.95)" gradientUnits="userSpaceOnUse">
            <stop offset="0" stop-opacity=".502"/>
            <stop offset="1" stop-opacity="0"/>
        </radialGradient>
        <linearGradient id="o" x1="529.25" x2="535" y1="-1568.638" y2="-1574.638" gradientTransform="matrix(1.66667 0 0 7 -91.667 9465.83)" gradientUnits="userSpaceOnUse">
            <stop offset="0" stop-color="#F26D4B"/>
            <stop offset="1" stop-color="#F0DD3F" stop-opacity="0"/>
        </linearGradient>
        <linearGradient id="E" x1="-17" x2="144" y1="-1194.638" y2="-1194.638" gradientTransform="matrix(.2861 0 0 1 857.864 -364)" gradientUnits="userSpaceOnUse" xlink:href="#e"/>
        <linearGradient id="G" x1="-17" x2="144" y1="-1194.638" y2="-1194.638" gradientTransform="matrix(.18634 0 0 1 813.168 -365)" gradientUnits="userSpaceOnUse" xlink:href="#e"/>
        <linearGradient id="H" x1="-17" x2="144" y1="-1194.638" y2="-1194.638" gradientTransform="matrix(.50932 0 0 1 -1588.98 403.638)" gradientUnits="userSpaceOnUse">
            <stop offset="0" stop-color="#F26D4B" stop-opacity="0"/>
            <stop offset=".493" stop-color="#F26D4B"/>
            <stop offset="1" stop-color="#F26D4B" stop-opacity="0"/>
        </linearGradient>
    </defs>
    <path transform="matrix(.1323 0 0 .1323 -4.41 -5.51)" d="M189.843 74c-70.593 0-78.189 7.25-77.843 77.987v292.026c-.346 70.736 7.25 77.987 77.843 77.987h196.314c70.593 0 76.006-7.274 77.843-77.987V151.987C464 81.25 456.75 74 386.157 74z" filter="url(#f)" opacity=".1"/>
    <path transform="matrix(.1323 0 0 .1323 -4.41 -5.51)" d="M189.843 74c-70.593 0-78.189 7.25-77.843 77.987v292.026c-.346 70.736 7.25 77.987 77.843 77.987h196.314C456.75 522 464 514.75 464 444.013V151.987C464 81.25 456.75 74 386.157 74z" fill="url(#g)" filter="url(#filter4380)" opacity=".3"/>
    <path d="M46.674 233.282c9.34 0 10.344.959 10.298 10.317v38.632c.046 9.358-.959 10.317-10.298 10.317h-25.97c-9.34 0-10.298-.959-10.298-10.317V243.6c0-9.358.959-10.317 10.298-10.317z" fill="url(#h)" transform="translate(0 -229.267)"/>
    <path d="M20.705 290.432c-2.298 0-4.033-.07-5.205-.267s-1.676-.473-1.968-.764c-.292-.291-.566-.79-.76-1.957-.194-1.167-.26-2.901-.248-5.203V243.59c-.012-2.302.054-4.035.248-5.203.194-1.167.468-1.665.76-1.956.292-.292.797-.568 1.968-.765s2.907-.266 5.205-.266h22.51l11.642 11.641v35.191c0 2.303-.07 4.04-.267 5.21-.196 1.17-.471 1.672-.761 1.963-.29.29-.789.565-1.956.761-1.167.196-2.899.267-5.197.267z" fill="url(#i)" transform="translate(0 -229.267)"/>
    <g transform="translate(-163.094 393.05) scale(.23151)">
        <path fill="url(#j)" opacity=".5" d="M815-1494.64h25v5h-25z"/>
        <path fill="url(#k)" opacity=".4" d="M789-1498.64h121v8H789z"/>
        <path d="M846.242-1508.638l-24.242 16h9.769l3.398-1.114L854-1508.638z" fill="#353431"/>
        <use transform="matrix(-1 0 0 1 1699 0)" width="5033" height="1085" xlink:href="#path10476"/>
        <path d="M854-1508.638l24 16H867.99l-3.086-.878L846-1508.638z" fill="#353431"/>
        <path d="M844.242-1508.638l-24.242 16h11.758l20.242-16z" fill="url(#l)"/>
        <path fill="url(#l)" d="M844-1512.64h12v6h-12z"/>
        <rect x="786" y="-1602.64" width="128" height="92" rx="2" ry="2" fill="#F26D4B"/>
        <rect x="789" y="-1599.64" width="122" height="86" rx="4" ry="4" fill="url(#m)"/>
        <rect x="789" y="-1599.64" width="122" height="86" rx="4" ry="4" fill="url(#n)"/>
        <rect x="790" y="-1598.64" width="20" height="84" rx="4" ry="4" fill="url(#o)" opacity=".35"/>
        <path fill="#dcdbdc" opacity=".5" d="M850-1559.64h52v36h-52z"/>
        <path transform="rotate(90)" fill="url(#p)" d="M-1545.64-882h32v64h-32z"/>
        <g opacity=".5" fill="#dcdbdc">
            <path d="M810-1558.64h30v4h-30zM810-1548.64h30v4h-30zM810-1538.64h30v4h-30zM810-1528.64h30v4h-30z"/>
        </g>
        <path fill="url(#q)" d="M810-1559.64h30v4h-30z"/>
        <path d="M804-1546.635a2 2 0 1 1-4 0 2 2 0 1 1 4 0zM804-1536.635a2 2 0 1 1-4 0 2 2 0 1 1 4 0zM804-1556.635a2 2 0 1 1-4 0 2 2 0 1 1 4 0zM804-1526.635a2 2 0 1 1-4 0 2 2 0 1 1 4 0z" fill="#dcdbdc"/>
        <path transform="matrix(.36364 0 0 .38095 476.364 -1805.92)" d="M901 651.75a5.5 5.25 0 1 1-11 0 5.5 5.25 0 1 1 11 0z" fill="url(#r)"/>
        <path fill="#dcdbdc" d="M798-1589.64h104v5H798z"/>
        <path fill="url(#s)" d="M798-1590.64h104v5H798z"/>
        <path fill="url(#t)" d="M850-1560.64h52v36h-52z"/>
        <path fill="#dcdbdc" d="M853-1557.64h46v30h-46z"/>
        <path fill="url(#u)" d="M853-1557.64h46v30h-46z"/>
        <path opacity=".05" d="M856-1552.64h40v2h-40z"/>
        <path d="M859-1533.638l11-11 8 8 15-15" fill="none" stroke-linecap="round" stroke-linejoin="round" stroke-width="3" stroke="url(#v)"/>
        <path fill="#dcdbdc" d="M818-1579.64h64v5h-64z"/>
        <path fill="url(#w)" d="M818-1580.64h64v5h-64z"/>
        <path fill="url(#x)" d="M790-1599.64h117v1H790z"/>
        <path fill="url(#q)" d="M810-1549.64h30v4h-30z"/>
        <path transform="matrix(.36364 0 0 .38095 476.364 -1795.92)" d="M901 651.75a5.5 5.25 0 1 1-11 0 5.5 5.25 0 1 1 11 0z" fill="url(#y)"/>
        <path fill="url(#q)" d="M810-1539.64h30v4h-30z"/>
        <path transform="matrix(.36364 0 0 .38095 476.364 -1785.92)" d="M901 651.75a5.5 5.25 0 1 1-11 0 5.5 5.25 0 1 1 11 0z" fill="url(#z)"/>
        <path fill="url(#q)" d="M810-1529.64h30v4h-30z"/>
        <path transform="matrix(.36364 0 0 .38095 476.364 -1775.92)" d="M901 651.75a5.5 5.25 0 1 1-11 0 5.5 5.25 0 1 1 11 0z" fill="url(#A)"/>
        <path fill="url(#B)" opacity=".25" d="M798-1590.64h104v1H798z"/>
        <path fill="url(#C)" opacity=".5" d="M818-1580.64h64v1h-64z"/>
        <path fill="url(#D)" opacity=".5" d="M792-1513.64h116v1H792z"/>
        <path fill="url(#E)" opacity=".25" d="M853-1558.64h46.063v1H853z"/>
        <path fill="url(#F)" d="M853.15-1528.58h46.063v1H853.15z"/>
        <path fill="url(#G)" opacity=".25" d="M810-1559.64h30v1h-30z"/>
        <path transform="rotate(90)" fill="url(#H)" opacity=".15" d="M-1597.64-791h82v1h-82z"/>
        <use transform="translate(119)" width="5033" height="1085" xlink:href="#rect11596"/>
        <use transform="matrix(-1 0 0 1 1700 0)" width="5033" height="1085" xlink:href="#rect10082"/>
        <use transform="translate(0 10)" width="5033" height="1085" xlink:href="#rect10652"/>
        <use transform="translate(0 20)" width="5033" height="1085" xlink:href="#rect10652"/>
        <use transform="translate(0 30)" width="5033" height="1085" xlink:href="#rect10652"/>
        <use transform="translate(0 31)" width="5033" height="1085" xlink:href="#rect10629"/>
        <use transform="translate(0 6)" width="5033" height="1085" xlink:href="#rect9936"/>
        <use transform="translate(0 12)" width="5033" height="1085" xlink:href="#rect9936"/>
        <use transform="translate(0 17)" width="5033" height="1085" xlink:href="#rect9936"/>
        <path d="M859-1533.638l11-11 8 8 15-15" fill="none" stroke-linecap="round" stroke-linejoin="round" stroke-width="1.5" stroke="url(#I)"/>
        <use transform="matrix(-1 0 0 1 1699 0)" width="5033" height="1085" xlink:href="#rect10490"/>
        <use transform="matrix(-1 0 0 1 1699 0)" width="5033" height="1085" xlink:href="#path9896"/>
    </g>
    <path d="M10.407 33.648v19.317c-.046 9.358.96 10.317 10.298 10.317h25.97c9.34 0 10.056-.963 10.299-10.317V33.648z" fill="#dcdbdc" opacity=".1"/>
    <path d="M33.689 4.015v59.267h12.985c9.34 0 10.055-.963 10.298-10.317V14.332c0-9.358-.959-10.317-10.298-10.317z" fill="#dcdbdc" opacity=".1"/>
    <path d="M10.407 52.435v.53c-.046 9.357.96 10.317 10.298 10.317h25.97c9.34 0 10.056-.963 10.299-10.318v-.529c-.243 9.355-.96 10.317-10.298 10.317h-25.97c-9.34 0-10.345-.959-10.299-10.317z" opacity=".2"/>
    <path d="M20.705 4.015c-9.339 0-10.344.96-10.298 10.317v.53c-.046-9.358.96-10.318 10.298-10.318h25.97c9.34 0 10.299.96 10.299 10.317v-.529c0-9.358-.96-10.317-10.298-10.317z" fill="#dcdbdc" opacity=".2"/>
    <path d="M41.099 63.282l15.875-15.875v5.949c-.014 8.994-1.006 9.926-10.1 9.926z" fill="#dcdbdc" opacity=".08"/>
</svg>
