<svg width="256" height="256" viewBox="0 0 67.73 67.73" xmlns="http://www.w3.org/2000/svg" xmlns:xlink="http://www.w3.org/1999/xlink">
    <defs>
        <clipPath id="h">
            <circle transform="translate(-40.845 -23.293) scale(1.03448)" cx="1184.5" cy="675.5" r="16.5" fill="#3371C2" opacity=".228"/>
        </clipPath>
        <linearGradient id="i" x1="298" x2="298" y1="-1571.194" y2="-1497.572" gradientTransform="matrix(.5 0 0 .5 1416.5 -317.818)" gradientUnits="userSpaceOnUse">
            <stop offset="0" stop-color="#3371C2"/>
            <stop offset="1" stop-color="#353431"/>
        </linearGradient>
        <radialGradient id="j" cx="1181.018" cy="672.731" r="16.5" gradientTransform="matrix(.97864 .69764 -.77137 1.08205 542.961 -883.643)" gradientUnits="userSpaceOnUse">
            <stop offset="0" stop-color="#3371C2"/>
            <stop offset="1" stop-color="#353431"/>
        </radialGradient>
        <linearGradient id="l" x1="3065.442" x2="3051.413" y1="-1071.263" y2="-1082.95" gradientUnits="userSpaceOnUse" xlink:href="#a"/>
        <linearGradient id="a">
            <stop offset="0" stop-color="#3371C2"/>
            <stop offset="1" stop-color="#dcdbdc"/>
        </linearGradient>
        <clipPath id="k">
            <circle transform="matrix(.9091 0 0 .9091 1987.18 -1698.73)" cx="1184.5" cy="675.5" r="16.5" fill="#3371C2" opacity=".228"/>
        </clipPath>
        <linearGradient id="n" x1="3054.224" x2="3059.684" y1="-1072.649" y2="-1099.399" gradientUnits="userSpaceOnUse" xlink:href="#a"/>
        <clipPath id="m">
            <circle transform="matrix(.9091 0 0 .9091 1987.18 -1698.73)" cx="1184.5" cy="675.5" r="16.5" fill="#3371C2" opacity=".228"/>
        </clipPath>
        <linearGradient id="p" x1="3075.297" x2="3049.657" y1="-1093.031" y2="-1085.656" gradientTransform="matrix(1.14289 .0903 -.1239 .99656 -574.642 -278.417)" gradientUnits="userSpaceOnUse" xlink:href="#a"/>
        <clipPath id="o">
            <circle transform="matrix(.9091 0 0 .9091 1987.18 -1698.73)" cx="1184.5" cy="675.5" r="16.5" fill="#3371C2" opacity=".228"/>
        </clipPath>
        <linearGradient id="r" x1="3075.072" x2="3066.395" y1="-1074.963" y2="-1098.338" gradientUnits="userSpaceOnUse" xlink:href="#a"/>
        <clipPath id="q">
            <circle transform="matrix(.9091 0 0 .9091 1987.18 -1698.73)" cx="1184.5" cy="675.5" r="16.5" fill="#3371C2" opacity=".228"/>
        </clipPath>
        <linearGradient id="t" x1="3067.784" x2="3057.163" y1="-1071.481" y2="-1096.168" gradientUnits="userSpaceOnUse" xlink:href="#a"/>
        <clipPath id="s">
            <circle transform="matrix(.9091 0 0 .9091 1987.18 -1698.73)" cx="1184.5" cy="675.5" r="16.5" fill="#3371C2" opacity=".228"/>
        </clipPath>
        <linearGradient id="v" x1="3069.716" x2="3059.889" y1="-1071.376" y2="-1092.938" gradientUnits="userSpaceOnUse" xlink:href="#a"/>
        <clipPath id="u">
            <circle transform="matrix(.9091 0 0 .9091 1987.18 -1698.73)" cx="1184.5" cy="675.5" r="16.5" fill="#3371C2" opacity=".228"/>
        </clipPath>
        <linearGradient id="x" x1="3070.922" x2="3058.134" y1="-1072.243" y2="-1095.993" gradientTransform="rotate(14.05 3063.084 -1065.374)" gradientUnits="userSpaceOnUse" xlink:href="#a"/>
        <clipPath id="w">
            <circle transform="matrix(.9091 0 0 .9091 1987.18 -1698.73)" cx="1184.5" cy="675.5" r="16.5" fill="#3371C2" opacity=".228"/>
        </clipPath>
        <linearGradient id="z" x1="3070.922" x2="3058.134" y1="-1072.243" y2="-1095.993" gradientTransform="rotate(-16.426 3055.512 -1076.536)" gradientUnits="userSpaceOnUse" xlink:href="#a"/>
        <clipPath id="y">
            <circle transform="matrix(.9091 0 0 .9091 1987.18 -1698.73)" cx="1184.5" cy="675.5" r="16.5" fill="#3371C2" opacity=".228"/>
        </clipPath>
        <radialGradient id="B" cx="3180.938" cy="660.766" r="1.5" gradientTransform="matrix(0 .96258 -1.02418 0 3857.69 -2401.15)" gradientUnits="userSpaceOnUse" xlink:href="#b"/>
        <linearGradient id="b">
            <stop offset="0" stop-color="#dcdbdc"/>
            <stop offset="1" stop-color="#3371C2" stop-opacity="0"/>
        </linearGradient>
        <clipPath id="A">
            <circle transform="matrix(.30799 0 0 .30799 2815.68 454.154)" cx="1184.5" cy="675.5" r="16.5" fill="#3371C2" opacity=".228"/>
        </clipPath>
        <linearGradient id="C" x1="762.75" x2="791" y1="3695.776" y2="3695.776" gradientTransform="matrix(.5 0 0 .5 1158 -2948.28)" gradientUnits="userSpaceOnUse" xlink:href="#c"/>
        <linearGradient id="c">
            <stop offset="0" stop-color="#C677DD"/>
            <stop offset="1" stop-color="#353431" stop-opacity="0"/>
        </linearGradient>
        <linearGradient id="D" x1="762.75" x2="791" y1="3695.776" y2="3695.776" gradientTransform="matrix(-.5 0 0 .5 1984 -2948.28)" gradientUnits="userSpaceOnUse" xlink:href="#c"/>
        <linearGradient id="E" x1="292.559" x2="453.422" y1="571.225" y2="571.225" gradientTransform="matrix(.39752 0 0 1 1422.76 -1687.64)" gradientUnits="userSpaceOnUse">
            <stop offset="0" stop-opacity="0"/>
            <stop offset=".493"/>
            <stop offset="1" stop-opacity="0"/>
        </linearGradient>
        <linearGradient id="F" x1="1184.683" x2="1184.683" y1="685.548" y2="662.021" gradientUnits="userSpaceOnUse">
            <stop offset="0" stop-color="#dcdbdc"/>
            <stop offset="1" stop-color="#dcdbdc" stop-opacity="0"/>
        </linearGradient>
        <linearGradient id="g" x1="208" x2="96" y1="28" y2="284" gradientTransform="matrix(.26458 0 0 .26458 -6.526 221.64)" gradientUnits="userSpaceOnUse">
            <stop offset="0" stop-color="#dcdbdc"/>
            <stop offset="1" stop-color="#dcdbdc"/>
        </linearGradient>
        <linearGradient id="f" x1="529.655" x2="-35.31" y1="401.584" y2="119.093" gradientTransform="matrix(0 -.11989 -.11989 0 67.016 292.548)" gradientUnits="userSpaceOnUse">
            <stop offset="0" stop-color="#353431"/>
            <stop offset="1" stop-color="#353431"/>
        </linearGradient>
        <linearGradient id="e" x1="88" x2="488" y1="88" y2="488" gradientUnits="userSpaceOnUse">
            <stop offset="0" stop-opacity=".588"/>
            <stop offset=".88" stop-opacity="0"/>
            <stop offset="1"/>
        </linearGradient>
        <filter id="d" x="-.01" y="-.01" width="1.026" height="1.022" color-interpolation-filters="sRGB">
            <feGaussianBlur stdDeviation="2.12"/>
        </filter>
    </defs>
    <path transform="matrix(.1323 0 0 .1323 -4.41 -5.51)" d="M189.843 74c-70.593 0-78.189 7.25-77.843 77.987v292.026c-.346 70.736 7.25 77.987 77.843 77.987h196.314c70.593 0 76.006-7.274 77.843-77.987V151.987C464 81.25 456.75 74 386.157 74z" filter="url(#d)" opacity=".1"/>
    <path transform="matrix(.1323 0 0 .1323 -4.41 -5.51)" d="M189.843 74c-70.593 0-78.189 7.25-77.843 77.987v292.026c-.346 70.736 7.25 77.987 77.843 77.987h196.314C456.75 522 464 514.75 464 444.013V151.987C464 81.25 456.75 74 386.157 74z" fill="url(#e)" filter="url(#filter4380-7)" opacity=".3"/>
    <path d="M46.674 233.282c9.34 0 10.344.959 10.298 10.317v38.632c.046 9.358-.959 10.317-10.298 10.317h-25.97c-9.34 0-10.298-.959-10.298-10.317V243.6c0-9.358.959-10.317 10.298-10.317z" fill="url(#f)" transform="translate(0 -229.267)"/>
    <path d="M20.705 290.432c-2.298 0-4.033-.07-5.205-.267s-1.676-.473-1.968-.764c-.292-.291-.566-.79-.76-1.957-.194-1.167-.26-2.901-.248-5.203V243.59c-.012-2.302.054-4.035.248-5.203.194-1.167.468-1.665.76-1.956.292-.292.797-.568 1.968-.765s2.907-.266 5.205-.266h22.51l11.642 11.641v35.191c0 2.303-.07 4.04-.267 5.21-.196 1.17-.471 1.672-.761 1.963-.29.29-.789.565-1.956.761-1.167.196-2.899.267-5.197.267z" fill="url(#g)" transform="translate(0 -229.267)"/>
    <g transform="matrix(.52917 0 0 .52917 -797.63 612.894)">
        <circle transform="matrix(.96742 0 0 .24242 439.086 -1230.53)" cx="1184.5" cy="675.5" r="16.5" clip-path="url(#h)" fill="#3371C2" opacity=".15"/>
        <circle transform="matrix(.805 0 0 .22272 631.468 -1216.9)" cx="1184.5" cy="675.5" r="16.5" clip-path="url(#h)" fill="#3371C2" opacity=".25"/>
        <path d="M1539-1118.638v4h64v-4zm0 8v4h64v-4zm0 8v4h37.313a19.865 19.865 0 0 1 17.374 0H1603v-4zm0 8v4h28.688a20.106 20.106 0 0 1 3.03-4zm60.281 0a20.106 20.106 0 0 1 3.031 4h.688v-4zm-60.281 8v4h26.094c.138-1.38.44-2.717.844-4zm0 8v4h26.938a19.924 19.924 0 0 1-.844-4zm0 8v4h31.719a20.106 20.106 0 0 1-3.031-4z" fill="url(#i)"/>
        <circle transform="matrix(.64213 0 0 .15495 824.398 -1169.99)" cx="1184.5" cy="675.5" r="16.5" clip-path="url(#h)" fill="#3371C2" opacity=".75"/>
        <circle transform="translate(335.891 -1792.98) scale(1.05455)" cx="1184.5" cy="675.5" r="16.5" clip-path="url(#h)" fill="url(#j)" stroke-width=".948" stroke="#353431"/>
        <path transform="matrix(1.14061 0 0 1.13981 -1909.83 155.42)" d="M3066.225-1069.306c-2.05-12.755-13.591-15.133-19.22-13.19" clip-path="url(#k)" fill="none" stroke-linecap="round" stroke-width=".877" stroke="url(#l)"/>
        <path transform="translate(-1950.6 170.948) scale(1.15392)" d="M3068.184-1099.537c-15.829 5.576-16.195 20.815-12.408 27.527" clip-path="url(#m)" fill="none" stroke-linecap="round" stroke-width=".867" stroke="url(#n)"/>
        <path transform="translate(-1950.3 169.987) scale(1.15392)" d="M3078.466-1088.391c-15.558-9.69-30.26-1.165-34.175 5.811" clip-path="url(#o)" fill="none" stroke-linecap="round" stroke-width=".867" stroke="url(#p)"/>
        <path transform="translate(-1950.6 170.948) scale(1.15392)" d="M3062.76-1100.091c15.443 6.567 14.843 21.8 10.638 28.257" clip-path="url(#q)" fill="none" stroke-linecap="round" stroke-width=".867" stroke="url(#r)"/>
        <path transform="translate(-1950.6 170.948) scale(1.15392)" d="M3072.413-1068.24c1.647-20.24-13.394-26.745-21.817-25.117" clip-path="url(#s)" fill="none" stroke-linecap="round" stroke-width=".867" stroke="url(#t)"/>
        <path transform="translate(-1950.6 170.948) scale(1.15392)" d="M3085.014-1076.949c-15.877-5.434-25.61 6.297-26.798 13.912" clip-path="url(#u)" fill="none" stroke-linecap="round" stroke-width=".867" stroke="url(#v)"/>
        <path transform="translate(-1950.6 170.948) scale(1.15392)" d="M3086.217-1079.864c-14.139-9.04-26.373.053-29.33 7.17" clip-path="url(#w)" fill="none" stroke-linecap="round" stroke-width=".867" stroke="url(#x)"/>
        <path transform="translate(-1950.6 170.948) scale(1.15392)" d="M3078.52-1092.193c-16.77-.62-22.703 13.422-21.642 21.055" clip-path="url(#y)" fill="none" stroke-linecap="round" stroke-width=".867" stroke="url(#z)"/>
        <circle transform="translate(-10042.5 -3504.26) scale(3.65312)" cx="3181" cy="660.75" r="1.5" clip-path="url(#A)" fill="url(#B)" opacity=".75"/>
        <path d="M1539-1118.638v4h14.5v-4zm0 8v4h14.5v-4zm0 8v4h14.5v-4zm0 8v4h14.5v-4zm0 8v4h14.5v-4zm0 8v4h14.5v-4zm0 8v4h14.5v-4z" fill="url(#C)" opacity=".5"/>
        <path d="M1603-1118.638v4h-14.5v-4zm0 8v4h-14.5v-4zm0 8v4h-9.373c-1.46-.746-3.206-1.314-5.137-1.766l.01-2.234zm0 8v4h-.7a21.532 21.532 0 0 0-3.004-4z" fill="url(#D)" opacity=".5"/>
        <path d="M1539-1118.638v1h64v-1zm0 8v1h64v-1zm0 8v1h64v-1zm0 8v1h30.813c.29-.34.592-.68.906-1zm60.281 0c.314.32.616.66.906 1H1603v-1zm-60.281 8v1h26.656c.09-.333.179-.673.281-1zm0 8v1h26.094c.103 1.028.303 2.024.562 3h.282a19.917 19.917 0 0 1-.844-4zm0 8v1h28.688a20.262 20.262 0 0 0 2.124 3h.907a20.102 20.102 0 0 1-3.031-4z" fill="url(#E)" opacity=".35"/>
        <path d="M1539-1114.64v1h64v-1zm0 8v1h64v-1zm46 6c-3.119 0-6.056.727-8.688 2H1539v1h37.313a19.865 19.865 0 0 1 17.374 0H1603v-1h-9.313a19.865 19.865 0 0 0-8.687-2zm14.875 7c1.17 1.194 1.813 2.54 1.813 4H1603v-1h-.688a20.261 20.261 0 0 0-2.124-3zm-30.781.938c-.5.662-.989 1.34-1.406 2.062H1539v1h29.313c0-1.092.428-2.111.78-3.063zm-3.969 9.843c-.01.073-.024.146-.031.219H1539v1h26.094c.041-.41.041-.817.031-1.219zM1539-1074.64v1h26.938c-.103-.327-.193-.666-.282-1zm0 8v1h31.719c-.557-.568-.695-.787-.781-1z" fill="#dcdbdc" opacity=".75"/>
        <path transform="translate(398.322 -1757.38) scale(1.00184)" d="M1184.5 658.531c-9.369 0-16.969 7.6-16.969 16.969s7.6 16.969 16.969 16.969 16.969-7.6 16.969-16.969-7.6-16.969-16.969-16.969zm0 .938c8.857 0 16.031 7.175 16.031 16.031s-7.175 16.031-16.031 16.031-16.031-7.175-16.031-16.031 7.175-16.031 16.031-16.031z" clip-path="url(#h)" fill="url(#F)" opacity=".75"/>
        <circle transform="translate(-6895.61 -2858.6) scale(2.66667)" cx="3181" cy="660.75" r="1.5" clip-path="url(#A)" fill="url(#B)"/>
        <circle transform="translate(-6887.047 -2851.475) scale(2.66667)" cx="3181" cy="660.75" r="1.5" clip-path="url(#A)" fill="url(#B)"/>
        <circle transform="translate(-6895.735 -2847.662) scale(2.66667)" cx="3181" cy="660.75" r="1.5" clip-path="url(#A)" fill="url(#B)"/>
        <circle transform="translate(-6884.11 -2841.48) scale(2.66667)" cx="3181" cy="660.75" r="1.5" clip-path="url(#A)" fill="url(#B)"/>
        <circle transform="translate(-6909.172 -2840.605) scale(2.66667)" cx="3181" cy="660.75" r="1.5" clip-path="url(#A)" fill="url(#B)"/>
        <circle transform="translate(-6900.67 -2836.1) scale(2.66667)" cx="3181" cy="660.75" r="1.5" clip-path="url(#A)" fill="url(#B)"/>
        <circle transform="translate(-6888.55 -2834.54) scale(2.66667)" cx="3181" cy="660.75" r="1.5" clip-path="url(#A)" fill="url(#B)"/>
    </g>
    <path d="M10.407 33.648v19.317c-.046 9.358.96 10.317 10.298 10.317h25.97c9.34 0 10.056-.963 10.299-10.317V33.648z" fill="#dcdbdc" opacity=".1"/>
    <path d="M33.689 4.015v59.267h12.985c9.34 0 10.055-.963 10.298-10.317V14.332c0-9.358-.959-10.317-10.298-10.317z" fill="#dcdbdc" opacity=".1"/>
    <path d="M10.407 52.435v.53c-.046 9.357.96 10.317 10.298 10.317h25.97c9.34 0 10.056-.963 10.299-10.318v-.529c-.243 9.355-.96 10.317-10.298 10.317h-25.97c-9.34 0-10.345-.959-10.299-10.317z" opacity=".2"/>
    <path d="M20.705 4.015c-9.339 0-10.344.96-10.298 10.317v.53c-.046-9.358.96-10.318 10.298-10.318h25.97c9.34 0 10.299.96 10.299 10.317v-.529c0-9.358-.96-10.317-10.298-10.317z" fill="#dcdbdc" opacity=".2"/>
    <path d="M41.099 63.282l15.875-15.875v5.949c-.014 8.994-1.006 9.926-10.1 9.926z" fill="#dcdbdc" opacity=".08"/>
</svg>
