<svg xmlns="http://www.w3.org/2000/svg" xmlns:xlink="http://www.w3.org/1999/xlink" width="256" height="256" viewBox="0 0 67.733 67.733">
    <defs>
        <linearGradient x1="640" y1="632.998" x2="640" y2="688.52" id="z" xlink:href="#a" gradientUnits="userSpaceOnUse" gradientTransform="matrix(2 0 0 2 -711 -2873.64)"/>
        <linearGradient id="a">
            <stop offset="0" stop-color="#97C378"/>
            <stop offset="1" stop-color="#97C378"/>
        </linearGradient>
        <linearGradient id="c">
            <stop offset="0" stop-opacity="0"/>
            <stop offset=".493"/>
            <stop offset="1" stop-opacity="0"/>
        </linearGradient>
        <linearGradient id="t">
            <stop offset="0" stop-color="green"/>
            <stop offset="1" stop-color="#97C378" stop-opacity="0"/>
        </linearGradient>
        <linearGradient x1="152" y1="-1192.638" x2="113.882" y2="-1230.756" id="J" xlink:href="#b" gradientUnits="userSpaceOnUse" gradientTransform="matrix(.7317 0 0 .7317 -637.22 -625.976)"/>
        <linearGradient id="b">
            <stop offset="0" stop-color="#97C378"/>
            <stop offset="1" stop-color="#97C378" stop-opacity="0"/>
        </linearGradient>
        <linearGradient x1="-17" y1="-1194.638" x2="144" y2="-1194.638" id="K" xlink:href="#c" gradientUnits="userSpaceOnUse" gradientTransform="matrix(.73913 0 0 1 538.565 -303)"/>
        <radialGradient cx="-1535.304" cy="-853" r="10" fx="-1535.304" fy="-853" id="L" xlink:href="#d" gradientUnits="userSpaceOnUse" gradientTransform="matrix(-3.31574 0 0 -4.65 -3490.73 -4550.95)"/>
        <linearGradient id="d">
            <stop offset="0" stop-color="#dcdbdc"/>
            <stop offset="1" stop-color="#dcdbdc" stop-opacity="0"/>
        </linearGradient>
        <linearGradient x1="-17" y1="-1194.638" x2="144" y2="-1194.638" id="M" xlink:href="#c" gradientUnits="userSpaceOnUse" gradientTransform="matrix(.48447 0 0 1 583.236 -297)"/>
        <linearGradient x1="652.25" y1="-1491.638" x2="652.25" y2="-1548.138" id="N" xlink:href="#e" gradientUnits="userSpaceOnUse"/>
        <linearGradient id="e">
            <stop offset="0" stop-color="gray"/>
            <stop offset="1" stop-color="#dcdbdc"/>
        </linearGradient>
        <linearGradient x1="714" y1="-1063.638" x2="714" y2="-1083.638" id="O" xlink:href="#f" gradientUnits="userSpaceOnUse" gradientTransform="matrix(1.89744 0 0 2.6 -777.769 1271.82)"/>
        <linearGradient id="f">
            <stop offset="0" stop-color="#dcdbdc"/>
            <stop offset="1" stop-color="#dcdbdc"/>
        </linearGradient>
        <linearGradient id="g">
            <stop offset="0" stop-opacity=".502"/>
            <stop offset="1" stop-opacity="0"/>
        </linearGradient>
        <linearGradient x1="152" y1="-1192.638" x2="113.882" y2="-1230.756" id="R" xlink:href="#h" gradientUnits="userSpaceOnUse" gradientTransform="matrix(.60976 0 0 .60976 557.317 -767.42)"/>
        <linearGradient id="h">
            <stop offset="0"/>
            <stop offset=".455" stop-opacity=".361"/>
            <stop offset="1" stop-opacity="0"/>
        </linearGradient>
        <linearGradient x1="525.639" y1="-1078.644" x2="525.639" y2="-1068.787" id="U" xlink:href="#i" gradientUnits="userSpaceOnUse" gradientTransform="matrix(1.71429 0 0 3.33333 -316.429 5092.43)"/>
        <linearGradient id="i">
            <stop offset="0" stop-color="#3371C2"/>
            <stop offset="1" stop-color="#dcdbdc"/>
        </linearGradient>
        <linearGradient x1="525.639" y1="-1078.644" x2="525.639" y2="-1068.787" id="V" xlink:href="#j" gradientUnits="userSpaceOnUse" gradientTransform="matrix(1.71429 0 0 4.44444 -298.429 6290.36)"/>
        <linearGradient id="j">
            <stop offset="0" stop-color="#F69331"/>
            <stop offset="1" stop-color="#dcdbdc"/>
        </linearGradient>
        <linearGradient x1="525.639" y1="-1078.644" x2="525.639" y2="-1068.787" id="W" xlink:href="#k" gradientUnits="userSpaceOnUse" gradientTransform="matrix(1.71429 0 0 2 -280.429 3654.91)"/>
        <linearGradient id="k">
            <stop offset="0" stop-color="#F0DD3F"/>
            <stop offset="1" stop-color="#dcdbdc"/>
        </linearGradient>
        <linearGradient x1="525.639" y1="-1078.644" x2="525.639" y2="-1068.787" id="X" xlink:href="#l" gradientUnits="userSpaceOnUse" gradientTransform="matrix(1.71429 0 0 2.88889 -262.429 4613.26)"/>
        <linearGradient id="l">
            <stop offset="0" stop-color="#97C378"/>
            <stop offset="1" stop-color="#dcdbdc"/>
        </linearGradient>
        <linearGradient x1="529.25" y1="-1568.638" x2="535" y2="-1574.638" id="Y" xlink:href="#m" gradientUnits="userSpaceOnUse" gradientTransform="matrix(.83333 0 0 2.33333 141.167 2160.52)"/>
        <linearGradient id="m">
            <stop offset="0" stop-color="#C677DD"/>
            <stop offset="1" stop-color="#353431" stop-opacity="0"/>
        </linearGradient>
        <linearGradient x1="529.25" y1="-1568.638" x2="535" y2="-1574.638" id="Z" xlink:href="#n" gradientUnits="userSpaceOnUse" gradientTransform="matrix(.83333 0 0 3.16667 159.167 3467.72)"/>
        <linearGradient id="n">
            <stop offset="0" stop-color="maroon"/>
            <stop offset="1" stop-color="#F0DD3F" stop-opacity="0"/>
        </linearGradient>
        <linearGradient id="o">
            <stop offset="0" stop-color="#dcdbdc" stop-opacity="0"/>
            <stop offset=".493" stop-color="#dcdbdc"/>
            <stop offset="1" stop-color="#dcdbdc" stop-opacity="0"/>
        </linearGradient>
        <linearGradient x1="-17" y1="-1194.638" x2="144" y2="-1194.638" id="ab" xlink:href="#c" gradientUnits="userSpaceOnUse" gradientTransform="matrix(.45963 0 0 1 584.814 -303)"/>
        <linearGradient x1="-17" y1="-1194.638" x2="144" y2="-1194.638" id="ac" xlink:href="#o" gradientUnits="userSpaceOnUse" gradientTransform="matrix(.45963 0 0 1 584.814 -300)"/>
        <linearGradient x1="529.25" y1="-1568.638" x2="535" y2="-1574.638" id="ad" xlink:href="#p" gradientUnits="userSpaceOnUse" gradientTransform="matrix(.83333 0 0 2 195.167 1637.64)"/>
        <linearGradient id="p">
            <stop offset="0" stop-color="#353431"/>
            <stop offset="1" stop-color="#97C378" stop-opacity="0"/>
        </linearGradient>
        <linearGradient x1="529.25" y1="-1568.638" x2="535" y2="-1574.638" id="ae" xlink:href="#q" gradientUnits="userSpaceOnUse" gradientTransform="matrix(.83333 0 0 1.33333 177.167 591.879)"/>
        <linearGradient id="q">
            <stop offset="0" stop-color="#F26D4B"/>
            <stop offset="1" stop-color="#F0DD3F" stop-opacity="0"/>
        </linearGradient>
        <linearGradient gradientTransform="matrix(.26458 0 0 .26458 -6.526 221.64)" xlink:href="#f" id="y" x1="208" y1="28" x2="96" y2="284" gradientUnits="userSpaceOnUse"/>
        <linearGradient gradientUnits="userSpaceOnUse" y2="119.093" x2="-35.31" y1="401.584" x1="529.655" id="x" xlink:href="#r" gradientTransform="matrix(0 -.11989 -.11989 0 67.016 292.548)"/>
        <linearGradient id="r">
            <stop offset="0" stop-color="#97C378"/>
            <stop offset="1" stop-color="#97C378"/>
        </linearGradient>
        <linearGradient xlink:href="#s" id="v" x1="88" y1="88" x2="488" y2="488" gradientUnits="userSpaceOnUse"/>
        <linearGradient id="s">
            <stop offset="0" stop-opacity=".588"/>
            <stop offset=".88" stop-opacity="0"/>
            <stop offset="1"/>
        </linearGradient>
        <filter id="w" x="-.053" width="1.106" y="-.044" height="1.088" color-interpolation-filters="sRGB">
            <feGaussianBlur stdDeviation="8.48"/>
        </filter>
        <filter id="u" x="-.013" width="1.026" y="-.011" height="1.022" color-interpolation-filters="sRGB">
            <feGaussianBlur stdDeviation="2.12"/>
        </filter>
        <linearGradient xlink:href="#c" id="B" gradientUnits="userSpaceOnUse" gradientTransform="matrix(.1615 0 0 1 530.745 -391)" x1="-17" y1="-1194.638" x2="144" y2="-1194.638"/>
        <linearGradient xlink:href="#t" id="E" gradientUnits="userSpaceOnUse" gradientTransform="translate(0 -18)" x1="529.25" y1="-1568.638" x2="535.438" y2="-1574.826"/>
        <linearGradient xlink:href="#t" id="F" gradientUnits="userSpaceOnUse" gradientTransform="translate(0 -1)" x1="529.25" y1="-1568.638" x2="535.438" y2="-1574.826"/>
        <linearGradient xlink:href="#c" id="S" gradientUnits="userSpaceOnUse" gradientTransform="matrix(.37888 0 0 1 589.441 -344)" x1="-17" y1="-1194.638" x2="144" y2="-1194.638"/>
        <radialGradient xlink:href="#g" id="T" gradientUnits="userSpaceOnUse" gradientTransform="matrix(0 .37784 -.665 -.0001 85.14 -1556.34)" cx="152.333" cy="-754.638" fx="152.333" fy="-754.638" r="15"/>
        <linearGradient xlink:href="#o" id="aa" gradientUnits="userSpaceOnUse" gradientTransform="matrix(.07453 0 0 1 582.267 -334)" x1="-17" y1="-1194.638" x2="144" y2="-1194.638"/>
        <linearGradient xlink:href="#c" id="af" gradientUnits="userSpaceOnUse" gradientTransform="matrix(.45963 0 0 1 -643.186 2740.28)" x1="-17" y1="-1194.638" x2="144" y2="-1194.638"/>
    </defs>
    <path style="marker:none" d="M189.843 74c-70.593 0-78.189 7.25-77.843 77.987v292.026c-.346 70.736 7.25 77.987 77.843 77.987h196.314c70.593 0 76.006-7.274 77.843-77.987V151.987C464 81.25 456.75 74 386.157 74z" transform="matrix(.1323 0 0 .1323 -4.41 -5.51)" color="#16181D" overflow="visible" opacity=".1" filter="url(#u)" enable-background="accumulate"/>
    <path d="M189.843 74c-70.593 0-78.189 7.25-77.843 77.987v292.026c-.346 70.736 7.25 77.987 77.843 77.987h196.314C456.75 522 464 514.75 464 444.013V151.987C464 81.25 456.75 74 386.157 74z" style="marker:none" transform="matrix(.1323 0 0 .1323 -4.41 -5.51)" color="#16181D" overflow="visible" opacity=".3" fill="url(#v)" filter="url(#w)" enable-background="accumulate"/>
    <path style="marker:none" d="M46.674 233.282c9.34 0 10.344.959 10.298 10.317v38.632c.046 9.358-.959 10.317-10.298 10.317h-25.97c-9.34 0-10.298-.959-10.298-10.317V243.6c0-9.358.959-10.317 10.298-10.317z" color="#16181D" overflow="visible" fill="url(#x)" enable-background="accumulate" transform="translate(0 -229.267)"/>
    <path style="line-height:normal;font-variant-ligatures:normal;font-variant-position:normal;font-variant-caps:normal;font-variant-numeric:normal;font-variant-alternates:normal;font-feature-settings:normal;text-indent:0;text-align:start;text-decoration-line:none;text-decoration-style:solid;text-decoration-color:#000;text-transform:none;text-orientation:mixed;white-space:normal;shape-padding:0;isolation:auto;mix-blend-mode:normal;solid-color:#000;solid-opacity:1;marker:none" d="M20.705 290.432c-2.298 0-4.033-.07-5.205-.267-1.171-.197-1.676-.473-1.968-.764-.292-.291-.566-.79-.76-1.957-.194-1.167-.26-2.901-.248-5.203V243.59c-.012-2.302.054-4.035.248-5.203.194-1.167.468-1.665.76-1.956.292-.292.797-.568 1.968-.765 1.172-.196 2.907-.266 5.205-.266h22.51l11.642 11.641v35.191c0 2.304-.07 4.04-.267 5.21-.196 1.171-.471 1.673-.761 1.963-.29.29-.789.565-1.956.761-1.167.197-2.899.267-5.197.267z" color="#16181D" font-weight="400" font-family="sans-serif" overflow="visible" fill="url(#y)" enable-background="accumulate" transform="translate(0 -229.267)"/>
    <g transform="matrix(.24568 0 0 .24568 -110.092 415.22)">
        <path style="marker:none" d="M525-1602.638v105h119v-105z" color="#16181D" overflow="visible" fill="url(#z)"/>
        <use xlink:href="#A" height="1085" width="5033" transform="translate(29 51)"/>
        <use xlink:href="#A" height="1085" width="5033" transform="translate(0 34)"/>
        <path style="marker:none" id="C" color="#16181D" display="inline" overflow="visible" visibility="visible" opacity=".5" fill="url(#B)" fill-opacity="1" fill-rule="nonzero" stroke="none" stroke-width="1" d="M528-1585.638h26v1h-26z"/>
        <use xlink:href="#C" height="1085" width="5033" transform="matrix(0 .61538 -1 0 -999.638 -1925.56)"/>
        <path style="marker:none" id="D" color="#16181D" display="inline" overflow="visible" visibility="visible" fill="#97C378" fill-opacity="1" fill-rule="nonzero" stroke="none" stroke-width="1" d="M528-1599.638h26v14h-26z"/>
        <use xlink:href="#D" height="1085" width="5033" transform="translate(29)"/>
        <use xlink:href="#D" height="1085" width="5033" transform="translate(58)"/>
        <use xlink:href="#D" height="1085" width="5033" transform="translate(87)"/>
        <path style="marker:none" id="G" color="#16181D" display="inline" overflow="visible" visibility="visible" opacity=".5" fill="url(#E)" fill-opacity="1" fill-rule="nonzero" stroke="none" stroke-width="15.997" d="M529-1598.638h12v12h-12z"/>
        <use xlink:href="#C" height="1085" width="5033" transform="matrix(0 .61538 -1 0 -1057.64 -1925.56)"/>
        <g id="A">
            <use xlink:href="#C" height="1085" width="5033" transform="translate(0 17)"/>
            <path style="marker:none" color="#16181D" overflow="visible" fill="#dcdbdc" d="M528-1582.638h26v14h-26z"/>
            <path style="marker:none" color="#16181D" overflow="visible" opacity=".25" fill="url(#F)" stroke-width="15.997" d="M529-1581.638h12v12h-12z"/>
            <use xlink:href="#C" height="1085" width="5033" transform="matrix(0 .61538 -1 0 -1057.64 -1908.56)"/>
        </g>
        <use xlink:href="#C" height="1085" width="5033" transform="matrix(0 .61538 -1 0 -1028.64 -1925.56)"/>
        <use xlink:href="#G" height="1085" width="5033" y="0" x="0" id="H" transform="translate(29)"/>
        <use xlink:href="#H" height="1085" width="5033" y="0" x="0" id="I" transform="translate(29)"/>
        <use xlink:href="#C" height="1085" width="5033" transform="matrix(0 .61538 -1 0 -970.638 -1925.56)"/>
        <use xlink:href="#I" height="1085" width="5033" transform="translate(29)"/>
        <use xlink:href="#A" height="1085" width="5033" transform="translate(29 34)"/>
        <use xlink:href="#A" height="1085" width="5033" transform="translate(29)"/>
        <use xlink:href="#A" height="1085" width="5033" transform="translate(58)"/>
        <use xlink:href="#A" height="1085" width="5033" transform="translate(87)"/>
        <use xlink:href="#A" height="1085" width="5033" transform="translate(0 17)"/>
        <use xlink:href="#A" height="1085" width="5033" transform="translate(29 17)"/>
        <use xlink:href="#A" height="1085" width="5033" transform="translate(58 17)"/>
        <use xlink:href="#A" height="1085" width="5033" transform="translate(87 17)"/>
        <use xlink:href="#A" height="1085" width="5033" transform="translate(0 51)"/>
        <use xlink:href="#A" height="1085" width="5033" transform="translate(0 68)"/>
        <use xlink:href="#A" height="1085" width="5033" transform="translate(29 68)"/>
        <path style="marker:none" transform="scale(-1 1)" color="#16181D" overflow="visible" opacity=".5" fill="url(#J)" d="M-586-1558.638h60v60h-60z"/>
        <use xlink:href="#A" height="1085" width="5033" transform="translate(87 34)"/>
        <use xlink:href="#A" height="1085" width="5033" transform="translate(58 34)"/>
        <path style="marker:none" color="#16181D" overflow="visible" opacity=".5" fill="url(#K)" d="M526-1497.638h119v1H526z"/>
        <rect style="marker:none" transform="matrix(0 -1 -1 0 0 0)" y="-631" x="1567.638" ry="4" rx="4" height="93" width="32" color="#16181D" overflow="visible" opacity=".6" fill="url(#L)"/>
        <path style="marker:none" color="#16181D" overflow="visible" opacity=".25" fill="url(#M)" d="M575-1491.638h78v1h-78z"/>
        <path style="marker:none" color="#16181D" overflow="visible" fill="url(#N)" d="M575-1547.638h78v56h-78z"/>
        <path style="marker:none" color="#16181D" overflow="visible" fill="url(#O)" d="M577-1545.638h74v52h-74z"/>
        <use xlink:href="#P" height="1085" width="5033" transform="translate(18)"/>
        <use xlink:href="#P" height="1085" width="5033" transform="translate(36)"/>
        <use xlink:href="#P" height="1085" width="5033" transform="translate(54)"/>
        <use xlink:href="#Q" height="1085" width="5033" transform="translate(0 30)"/>
        <use xlink:href="#Q" height="1085" width="5033" transform="translate(0 10)"/>
        <path style="marker:none" color="#16181D" overflow="visible" opacity=".15" fill="url(#R)" d="M600-1544.638h50v50h-50z"/>
        <use xlink:href="#Q" height="1085" width="5033" transform="translate(0 20)"/>
        <path style="marker:none" color="#16181D" overflow="visible" fill="#3371C2" d="M580-1529.638h14v32h-14z"/>
        <path style="marker:none" id="Q" color="#16181D" display="inline" overflow="visible" visibility="visible" opacity=".25" fill="url(#S)" fill-opacity="1" fill-rule="nonzero" stroke="none" stroke-width="1" d="M583-1538.638h61v1h-61z"/>
        <path style="marker:none" color="#16181D" overflow="visible" fill="#F26D4B" d="M598-1539.638h14v42h-14z"/>
        <path style="marker:none" color="#16181D" overflow="visible" fill="#F0DD3F" d="M616-1517.638h14v20h-14z"/>
        <path style="marker:none" color="#16181D" overflow="visible" fill="#97C378" d="M634-1525.638h14v28h-14z"/>
        <path style="marker:none" id="P" d="M577.571-1503.638h18.858c.316 0 .571 1.508.571 3.382v3.237c0 1.873-.255 3.381-.571 3.381H577.57c-.316 0-.571-1.508-.571-3.381v-3.237c0-1.874.255-3.382.571-3.382z" color="#16181D" display="inline" overflow="visible" visibility="visible" opacity=".5" fill="url(#T)" fill-opacity="1" fill-rule="nonzero" stroke="none" stroke-width="1"/>
        <path style="marker:none" transform="scale(1 -1)" color="#16181D" overflow="visible" fill="url(#U)" d="M581 1498.638h12v30h-12z"/>
        <path style="marker:none" transform="scale(1 -1)" color="#16181D" overflow="visible" fill="url(#V)" d="M599 1498.638h12v40h-12z"/>
        <path style="marker:none" transform="scale(1 -1)" color="#16181D" overflow="visible" fill="url(#W)" d="M617 1498.638h12v18h-12z"/>
        <path style="marker:none" transform="scale(1 -1)" color="#16181D" overflow="visible" fill="url(#X)" d="M635 1498.638h12v26h-12z"/>
        <path style="marker:none" color="#16181D" overflow="visible" opacity=".35" fill="url(#Y)" d="M582-1527.638h10v28h-10z"/>
        <path style="marker:none" color="#16181D" overflow="visible" opacity=".35" fill="url(#Z)" d="M600-1537.638h10v38h-10z"/>
        <path style="marker:none" id="ah" color="#16181D" display="inline" overflow="visible" visibility="visible" opacity=".75" fill="url(#aa)" fill-opacity="1" fill-rule="nonzero" stroke="none" stroke-width="1" d="M581-1528.638h12v1h-12z"/>
        <path style="marker:none" color="#16181D" overflow="visible" opacity=".5" fill="url(#ab)" d="M577-1497.638h74v1h-74z"/>
        <path style="marker:none" color="#16181D" overflow="visible" opacity=".75" fill="url(#ac)" d="M577-1494.638h74v1h-74z"/>
        <path style="marker:none" color="#16181D" overflow="visible" opacity=".35" fill="url(#ad)" d="M636-1523.638h10v24h-10z"/>
        <path style="marker:none" color="#16181D" overflow="visible" opacity=".35" fill="url(#ae)" d="M618-1515.638h10v16h-10z"/>
        <path style="marker:none" id="ag" transform="scale(-1)" color="#16181D" display="inline" overflow="visible" visibility="visible" opacity=".25" fill="url(#af)" fill-opacity="1" fill-rule="nonzero" stroke="none" stroke-width="1" d="M-651 1545.638h74v1h-74z"/>
        <use xlink:href="#ag" height="1085" width="5033" transform="translate(0 53)"/>
        <use xlink:href="#ah" height="1085" width="5033" transform="translate(18 -10)"/>
        <use xlink:href="#ah" height="1085" width="5033" transform="translate(36 12)"/>
        <use xlink:href="#ah" height="1085" width="5033" transform="translate(54 4)"/>
    </g>
    <path style="marker:none" d="M10.407 33.648v19.317c-.046 9.358.96 10.317 10.298 10.317h25.97c9.34 0 10.056-.963 10.299-10.317V33.648z" color="#16181D" overflow="visible" opacity=".1" fill="#dcdbdc" enable-background="accumulate"/>
    <path style="marker:none" d="M33.689 4.015v59.267h12.985c9.34 0 10.055-.963 10.298-10.317V14.332c0-9.358-.959-10.317-10.298-10.317z" color="#16181D" overflow="visible" opacity=".1" fill="#dcdbdc" enable-background="accumulate"/>
    <path style="marker:none" d="M10.407 52.435v.53c-.046 9.357.96 10.317 10.298 10.317h25.97c9.34 0 10.056-.963 10.299-10.318v-.529c-.243 9.355-.96 10.317-10.298 10.317h-25.97c-9.34 0-10.345-.959-10.299-10.317z" color="#16181D" overflow="visible" opacity=".2" enable-background="accumulate"/>
    <path style="marker:none" d="M20.705 4.015c-9.339 0-10.344.96-10.298 10.317v.53c-.046-9.358.96-10.318 10.298-10.318h25.97c9.34 0 10.299.96 10.299 10.317v-.529c0-9.358-.96-10.317-10.298-10.317z" color="#16181D" overflow="visible" opacity=".2" fill="#dcdbdc" enable-background="accumulate"/>
    <path style="marker:none" d="M41.099 63.282l15.875-15.875v5.949c-.014 8.994-1.006 9.926-10.1 9.926z" color="#16181D" overflow="visible" opacity=".08" fill="#dcdbdc" enable-background="accumulate"/>
</svg>
