<?xml version="1.0" encoding="UTF-8" standalone="no"?>
<svg xmlns:dc="http://purl.org/dc/elements/1.1/" xmlns:cc="http://creativecommons.org/ns#" xmlns:rdf="http://www.w3.org/1999/02/22-rdf-syntax-ns#" xmlns:svg="http://www.w3.org/2000/svg" xmlns="http://www.w3.org/2000/svg" xmlns:sodipodi="http://sodipodi.sourceforge.net/DTD/sodipodi-0.dtd" xmlns:inkscape="http://www.inkscape.org/namespaces/inkscape" width="256" height="256" viewBox="0 0 67.73 67.73" version="1.1" id="svg41" sodipodi:docname="x-office-presentation.svg" inkscape:version="0.92.5 (2060ec1f9f, 2020-04-08)">
    <sodipodi:namedview pagecolor="#dcdbdc" bordercolor="#597981" borderopacity="1" objecttolerance="10" gridtolerance="10" guidetolerance="10" inkscape:pageopacity="0" inkscape:pageshadow="2" inkscape:window-width="1314" inkscape:window-height="716" id="namedview43" showgrid="false" inkscape:zoom="1.84375" inkscape:cx="53.315606" inkscape:cy="143.65673" inkscape:window-x="52" inkscape:window-y="24" inkscape:window-maximized="1" inkscape:current-layer="svg41"/>
    <defs id="defs17">
        <linearGradient id="c" x1="529.655" x2="-35.31" y1="401.584" y2="119.093" gradientTransform="matrix(0 -.11989 .11989 0 .363 292.548)" gradientUnits="userSpaceOnUse">
            <stop offset="0" stop-color="#dcdbdc" id="stop2"/>
            <stop offset="1" stop-color="#dcdbdc" id="stop4"/>
        </linearGradient>
        <linearGradient id="b" x1="88" x2="488" y1="88" y2="488" gradientUnits="userSpaceOnUse">
            <stop offset="0" stop-opacity=".588" id="stop7"/>
            <stop offset=".88" stop-opacity="0" id="stop9"/>
            <stop offset="1" id="stop11"/>
        </linearGradient>
        <filter id="a" x="-.01" y="-.01" width="1.026" height="1.022" color-interpolation-filters="sRGB">
            <feGaussianBlur stdDeviation="2.12" id="feGaussianBlur14"/>
        </filter>
    </defs>
    <path d="M20.705 4.015c-9.339 0-10.344.96-10.298 10.317v38.633c-.046 9.357.96 10.317 10.298 10.317h25.97c9.34 0 10.299-.96 10.299-10.317V14.332c0-9.358-.96-10.317-10.298-10.317z" fill="none" opacity=".2" stroke-width="1.058" stroke="#16181D" id="path19"/>
    <path transform="matrix(.1323 0 0 .1323 -4.41 -5.51)" d="M189.843 74c-70.593 0-78.189 7.25-77.843 77.987v292.026c-.346 70.736 7.25 77.987 77.843 77.987h196.314c70.593 0 76.006-7.274 77.843-77.987V151.987C464 81.25 456.75 74 386.157 74z" filter="url(#a)" opacity=".1" id="path21"/>
    <path transform="matrix(.1323 0 0 .1323 -4.41 -5.51)" d="M189.843 74c-70.593 0-78.189 7.25-77.843 77.987v292.026c-.346 70.736 7.25 77.987 77.843 77.987h196.314C456.75 522 464 514.75 464 444.013V151.987C464 81.25 456.75 74 386.157 74z" fill="url(#b)" filter="url(#filter4380)" opacity=".3" id="path23"/>
    <path d="M20.705 233.282c-9.339 0-10.344.959-10.298 10.317v38.632c-.046 9.358.96 10.317 10.298 10.317h25.97c9.34 0 10.299-.959 10.299-10.317V243.6c0-9.358-.96-10.317-10.298-10.317z" fill="url(#c)" transform="translate(0 -229.267)" id="path25"/>
    <path d="M40.04 22.007v1.058h8.467v-1.058zm0 4.233v1.058h8.467V26.24zm0 4.233v1.059h8.467v-1.059zm0 4.234v1.058h8.467v-1.058zM18.874 38.94v1.058h29.633V38.94zm0 4.233v1.059h29.633v-1.059zm0 4.234v1.058h19.05v-1.058z" fill="#16181D" id="path27" style="fill:#1c001c;fill-opacity:1"/>
    <path d="M27.34 36.823a8.467 8.467 0 0 1-8.466-8.466 8.467 8.467 0 0 1 8.466-8.467v8.467h8.467a8.467 8.467 0 0 1-8.467 8.466z" fill="#F69331" id="path29"/>
    <path d="M37.924 26.24a8.467 8.467 0 0 0-8.467-8.467v8.467h3.763z" fill="#3371C2" id="path31"/>
    <path d="M33.69 4.015v59.267h12.986c9.339 0 10.055-.963 10.298-10.317V14.332c0-9.358-.96-10.317-10.298-10.317z" fill="#dcdbdc" opacity=".1" id="path33"/>
    <path d="M10.407 33.648v19.317c-.046 9.358.96 10.317 10.298 10.317h25.97c9.34 0 10.056-.963 10.299-10.317V33.648z" fill="#dcdbdc" opacity=".2" id="path35"/>
    <path d="M41.099 63.282l15.875-15.875v5.949c-.014 8.994-1.006 9.926-10.1 9.926z" fill="#dcdbdc" opacity=".4" id="path37"/>
    <path d="M20.705 4.015c-9.339 0-10.344.96-10.298 10.317v.53c-.046-9.358.96-10.318 10.298-10.318h25.97c9.34 0 10.299.96 10.299 10.317v-.529c0-9.358-.96-10.317-10.298-10.317z" fill="#dcdbdc" opacity=".6" id="path39"/>
</svg>
