<svg width="256" height="256" viewBox="0 0 67.73 67.73" xmlns="http://www.w3.org/2000/svg">
    <defs>
        <linearGradient id="d" x1="256" x2="256" y1="24" y2="664" gradientTransform="matrix(.09922 0 0 .1323 8.29 230.107)" gradientUnits="userSpaceOnUse">
            <stop offset="0" stop-color="#dcdbdc"/>
            <stop offset="1" stop-color="#dcdbdc"/>
        </linearGradient>
        <linearGradient id="c" x1="529.655" x2="-35.31" y1="401.584" y2="119.093" gradientTransform="matrix(0 -.11989 -.11989 0 67.016 292.548)" gradientUnits="userSpaceOnUse">
            <stop offset="0" stop-color="#DF6B73"/>
            <stop offset="1" stop-color="#DF6B73"/>
        </linearGradient>
        <linearGradient id="b" x1="88" x2="488" y1="88" y2="488" gradientUnits="userSpaceOnUse">
            <stop offset="0" stop-opacity=".588"/>
            <stop offset=".88" stop-opacity="0"/>
            <stop offset="1"/>
        </linearGradient>
        <filter id="a" x="-.01" y="-.01" width="1.026" height="1.022" color-interpolation-filters="sRGB">
            <feGaussianBlur stdDeviation="2.12"/>
        </filter>
    </defs>
    <path transform="matrix(.1323 0 0 .1323 -4.41 -5.51)" d="M189.843 74c-70.593 0-78.189 7.25-77.843 77.987v292.026c-.346 70.736 7.25 77.987 77.843 77.987h196.314c70.593 0 76.006-7.274 77.843-77.987V151.987C464 81.25 456.75 74 386.157 74z" filter="url(#a)" opacity=".1"/>
    <path transform="matrix(.1323 0 0 .1323 -4.41 -5.51)" d="M189.843 74c-70.593 0-78.189 7.25-77.843 77.987v292.026c-.346 70.736 7.25 77.987 77.843 77.987h196.314C456.75 522 464 514.75 464 444.013V151.987C464 81.25 456.75 74 386.157 74z" fill="url(#b)" filter="url(#filter4380)" opacity=".3"/>
    <path d="M46.674 233.282c9.34 0 10.344.959 10.298 10.317v38.632c.046 9.358-.959 10.317-10.298 10.317h-25.97c-9.34 0-10.298-.959-10.298-10.317V243.6c0-9.358.959-10.317 10.298-10.317z" fill="url(#c)" transform="translate(0 -229.267)"/>
    <path fill="url(#d)" opacity=".6" d="M31.57 233.28h4.233v59.267H31.57z" transform="translate(0 -229.267)"/>
    <path fill="#dcdbdc" d="M14.64 46.353h13.758v8.467H14.64z"/>
    <path d="M15.699 48.465v4.233h2.116v-4.233zm3.175 0v4.233h1.058v-4.233zm2.116 0v4.233h2.117v-4.233zm3.175 0v4.233h1.059v-4.233zm2.117 0v4.233h1.058v-4.233z" fill="#353431"/>
    <g fill="#101010">
        <path d="M47.57 51.88c-.261.004.05.135.392.188.095-.074.18-.148.256-.22-.212.051-.429.053-.647.033M48.976 51.53a1.66 1.66 0 0 0 .31-.694c-.035.173-.129.323-.218.482-.49.308-.046-.183 0-.37-.526.663-.073.397-.092.582M49.495 50.18c.032-.472-.092-.322-.134-.143.048.026.087.333.134.143M46.577 43.733c.14.025.302.044.279.077.154-.033.188-.064-.279-.077M46.856 43.81l-.098.021.091-.008.007-.013"/>
        <path d="M51.216 50.359c.015.423-.124.629-.25.993l-.227.113c-.185.36.019.228-.114.514-.29.258-.878.805-1.066.855-.137-.003.093-.162.123-.225-.387.266-.31.4-.903.561l-.017-.038c-1.46.687-3.489-.675-3.462-2.532-.015.118-.044.088-.077.135-.075-.955.442-1.915 1.313-2.307.853-.422 1.852-.25 2.462.32-.335-.439-1.002-.905-1.793-.862-.775.013-1.5.505-1.742 1.04-.397.25-.443.964-.616 1.094-.233 1.711.437 2.45 1.572 3.32.178.12.05.138.074.23a3.078 3.078 0 0 1-1.006-.77c.151.221.314.435.524.604-.356-.12-.83-.861-.97-.892.614 1.097 2.486 1.924 3.467 1.514-.454.017-1.03.01-1.54-.18-.215-.11-.506-.338-.453-.38 1.338.5 2.72.378 3.878-.55.295-.23.617-.62.71-.625-.14.21.024.1-.083.287.293-.474-.128-.193.303-.818l.159.22c-.06-.394.488-.871.432-1.493.126-.19.14.205.007.642.185-.485.05-.563.096-.963.052.135.12.277.154.42-.12-.47.123-.79.184-1.062-.06-.027-.186.207-.215-.347.004-.24.067-.126.09-.185-.046-.027-.17-.212-.245-.565.054-.083.146.215.22.227-.048-.28-.13-.495-.134-.71-.217-.455-.077.06-.253-.196-.231-.72.192-.167.22-.495.351.508.55 1.295.643 1.62a6.634 6.634 0 0 0-.322-1.154c.107.045-.171-.818.139-.246-.331-1.218-1.416-2.356-2.414-2.89.121.113.276.253.22.275-.496-.296-.409-.319-.48-.444-.404-.164-.431.014-.698 0-.763-.404-.91-.36-1.612-.614l.032.15c-.505-.169-.588.063-1.134 0-.033-.026.175-.094.347-.119-.489.064-.466-.096-.944.018.118-.083.243-.138.368-.208-.398.024-.95.232-.78.043-.65.29-1.803.697-2.45 1.304l-.021-.136c-.297.356-1.293 1.063-1.373 1.525l-.08.018c-.153.261-.253.557-.376.826-.202.344-.296.133-.267.187-.397.805-.595 1.48-.765 2.036.122.181.003 1.092.049 1.821-.2 3.602 2.527 7.098 5.508 7.905.437.156 1.086.15 1.639.166-.652-.186-.736-.098-1.372-.32-.458-.216-.558-.462-.883-.744l.129.227c-.636-.225-.37-.279-.888-.442l.137-.18c-.206-.015-.546-.347-.639-.531l-.226.009c-.27-.334-.415-.576-.405-.763l-.073.13c-.082-.141-.997-1.254-.523-.995-.088-.08-.205-.131-.332-.362l.097-.11c-.229-.295-.42-.671-.406-.797.122.165.206.195.29.224-.577-1.431-.61-.08-1.046-1.457l.092-.007c-.07-.108-.114-.223-.17-.337l.04-.4c-.415-.48-.116-2.042-.056-2.898.041-.348.346-.719.578-1.3l-.14-.024c.27-.472 1.542-1.893 2.132-1.82.285-.36-.057-.002-.113-.092.627-.65.825-.459 1.248-.576.456-.27-.392.106-.176-.103.79-.201.56-.458 1.59-.56.108.062-.253.095-.343.175.657-.322 2.08-.248 3.005.179 1.072.501 2.278 1.983 2.326 3.377l.054.015c-.028.554.085 1.195-.11 1.784l.132-.28"/>
        <path d="M44.711 52.24l-.037.184c.173.234.31.487.53.67-.159-.309-.276-.436-.493-.854M45.118 52.224c-.09-.1-.144-.222-.205-.343.058.213.176.395.286.581l-.08-.238M52.32 50.659l-.038.097c-.07.5-.223.996-.457 1.456a4.591 4.591 0 0 0 .495-1.553M46.63 43.607c.176-.065.434-.035.622-.078-.245.02-.488.033-.73.063l.107.015M40.411 46.914c.041.377-.284.524.072.275.191-.43-.074-.12-.072-.275M39.993 48.662c.082-.252.097-.403.128-.55-.227.29-.104.353-.128.55"/>
    </g>
    <path d="M33.69 4.015v59.267h12.986c9.339 0 10.055-.963 10.298-10.317V14.332c0-9.358-.96-10.317-10.298-10.317z" fill="#dcdbdc" opacity=".08"/>
    <path d="M10.407 52.435v.53c-.046 9.357.96 10.317 10.298 10.317h25.97c9.34 0 10.056-.963 10.299-10.318v-.529c-.243 9.355-.96 10.317-10.298 10.317h-25.97c-9.34 0-10.345-.959-10.299-10.317z" opacity=".2"/>
    <path d="M20.705 4.015c-9.339 0-10.344.96-10.298 10.317v.53c-.046-9.358.96-10.318 10.298-10.318h25.97c9.34 0 10.299.96 10.299 10.317v-.529c0-9.358-.96-10.317-10.298-10.317z" fill="#dcdbdc" opacity=".4"/>
    <path d="M41.099 63.282l15.875-15.875v5.949c-.014 8.994-1.006 9.926-10.1 9.926z" fill="#dcdbdc" opacity=".1"/>
</svg>
