<svg width="256" height="256" viewBox="0 0 67.73 67.73" xmlns="http://www.w3.org/2000/svg">
    <defs>
        <clipPath id="d">
            <path d="M102.922 44C67.625 44 63.827 47.625 64 82.994v146.012C63.827 264.375 67.625 268 102.922 268h98.156c35.297 0 38.922-3.625 38.922-38.994V82.994C240 47.625 236.375 44 201.078 44z" fill="url(#linearGradient3288)"/>
        </clipPath>
        <linearGradient id="c" x1="529.655" x2="-35.31" y1="401.584" y2="119.093" gradientTransform="matrix(0 -.11989 .11989 0 .363 292.548)" gradientUnits="userSpaceOnUse">
            <stop offset="0" stop-color="#dcdbdc"/>
            <stop offset="1" stop-color="#dcdbdc"/>
        </linearGradient>
        <linearGradient id="b" x1="88" x2="488" y1="88" y2="488" gradientUnits="userSpaceOnUse">
            <stop offset="0" stop-opacity=".588"/>
            <stop offset=".88" stop-opacity="0"/>
            <stop offset="1"/>
        </linearGradient>
        <filter id="a" x="-.01" y="-.01" width="1.026" height="1.022" color-interpolation-filters="sRGB">
            <feGaussianBlur stdDeviation="2.12"/>
        </filter>
    </defs>
    <path d="M20.705 4.015c-9.339 0-10.344.96-10.298 10.317v38.633c-.046 9.357.96 10.317 10.298 10.317h25.97c9.34 0 10.299-.96 10.299-10.317V14.332c0-9.358-.96-10.317-10.298-10.317z" fill="none" opacity=".2" stroke-width="1.058" stroke="#16181D"/>
    <path transform="matrix(.1323 0 0 .1323 -4.41 -5.51)" d="M189.843 74c-70.593 0-78.189 7.25-77.843 77.987v292.026c-.346 70.736 7.25 77.987 77.843 77.987h196.314c70.593 0 76.006-7.274 77.843-77.987V151.987C464 81.25 456.75 74 386.157 74z" filter="url(#a)" opacity=".1"/>
    <path transform="matrix(.1323 0 0 .1323 -4.41 -5.51)" d="M189.843 74c-70.593 0-78.189 7.25-77.843 77.987v292.026c-.346 70.736 7.25 77.987 77.843 77.987h196.314C456.75 522 464 514.75 464 444.013V151.987C464 81.25 456.75 74 386.157 74z" fill="url(#b)" filter="url(#filter4380)" opacity=".3"/>
    <path d="M20.705 233.282c-9.339 0-10.344.959-10.298 10.317v38.632c-.046 9.358.96 10.317 10.298 10.317h25.97c9.34 0 10.299-.959 10.299-10.317V243.6c0-9.358-.96-10.317-10.298-10.317z" fill="url(#c)" transform="translate(0 -229.267)"/>
    <g transform="matrix(.26458 0 0 .26458 -6.526 -7.627)" clip-path="url(#d)">
        <path d="M96 44h2v224h-2z" fill="#F26D4B" opacity=".1"/>
        <path d="M62 40v2h180v-2zm0 12v2h180v-2zm0 12v2h180v-2zm0 12v2h180v-2zm0 12v2h180v-2zm0 12v2h180v-2zm0 12v2h180v-2zm0 12v2h180v-2zm0 12v2h180v-2zm0 12v2h180v-2zm0 12.121v2h180v-2zm0 12v2h180v-2zM62 184v2h180v-2zm0 12v2h180v-2zm0 12v2h180v-2zm0 12v2h180v-2zm0 12v2h180v-2zm0 12v2h180v-2zm0 12v2h180v-2zm0 12v2h180v-2z" fill="#3371C2" opacity=".05"/>
    </g>
    <path d="M33.69 4.015v59.267h12.986c9.339 0 10.055-.963 10.298-10.317V14.332c0-9.358-.96-10.317-10.298-10.317z" fill="#dcdbdc" opacity=".1"/>
    <path d="M10.407 33.648v19.317c-.046 9.358.96 10.317 10.298 10.317h25.97c9.34 0 10.056-.963 10.299-10.317V33.648z" fill="#dcdbdc" opacity=".2"/>
    <path d="M41.099 63.282l15.875-15.875v5.949c-.014 8.994-1.006 9.926-10.1 9.926z" fill="#dcdbdc" opacity=".4"/>
    <path d="M20.705 4.015c-9.339 0-10.344.96-10.298 10.317v.53c-.046-9.358.96-10.318 10.298-10.318h25.97c9.34 0 10.299.96 10.299 10.317v-.529c0-9.358-.96-10.317-10.298-10.317z" fill="#dcdbdc" opacity=".6"/>
    <path d="M33.778 19.252v1.058h12.7v-1.058zm0 3.175v1.058h12.7v-1.058zm0 3.175v1.058h12.7v-1.058zm0 3.175v1.058h12.7v-1.058zm0 3.175v1.058h12.7v-1.058zM20.46 34.287v1.058h12.7v-1.058zm0 3.175v1.058h12.7v-1.058zm0 3.175v1.058h12.7v-1.058zm0 3.175v1.058h12.7v-1.058zm0 3.175v1.058h12.7v-1.058z" fill="#dcdbdc"/>
    <path d="M38.232 48.025c2.712-1.859 3.992-3.718 3.992-5.85 0-1.829-1.006-3.017-2.499-3.017-1.127 0-1.98.792-1.98 1.828 0 1.097.822 1.798 2.072 1.798.122 0 .426 0 .487-.03h.092c.152 0 .213.09.213.274 0 1.28-1.036 2.712-3.078 4.144zM43.524 48.025c2.712-1.859 3.992-3.718 3.992-5.85 0-1.829-1.006-3.017-2.5-3.017-1.127 0-1.98.792-1.98 1.828 0 1.097.823 1.798 2.072 1.798.122 0 .427 0 .488-.03h.091c.153 0 .214.09.214.274 0 1.28-1.036 2.712-3.078 4.144z" fill-opacity=".8"/>
    <g fill-opacity=".8">
        <path d="M29.147 19.314c-2.712 1.859-3.992 3.717-3.992 5.85 0 1.829 1.006 3.017 2.499 3.017 1.127 0 1.98-.792 1.98-1.828 0-1.097-.822-1.798-2.071-1.798-.122 0-.427 0-.488.03h-.091c-.153 0-.214-.09-.214-.274 0-1.28 1.036-2.712 3.078-4.144zM23.855 19.314c-2.712 1.859-3.991 3.717-3.991 5.85 0 1.829 1.005 3.017 2.498 3.017 1.128 0 1.981-.792 1.981-1.828 0-1.097-.823-1.798-2.072-1.798-.122 0-.427 0-.488.03h-.091c-.152 0-.213-.09-.213-.274 0-1.28 1.036-2.712 3.077-4.144z"/>
    </g>
</svg>
