<svg width="256" height="256" viewBox="0 0 67.73 67.73" xmlns="http://www.w3.org/2000/svg">
    <defs>
        <linearGradient id="c" x1="529.655" x2="-35.31" y1="401.584" y2="119.093" gradientTransform="matrix(0 -.11989 .11989 0 .363 292.548)" gradientUnits="userSpaceOnUse">
            <stop offset="0" stop-color="#dcdbdc"/>
            <stop offset="1" stop-color="#dcdbdc"/>
        </linearGradient>
        <linearGradient id="b" x1="88" x2="488" y1="88" y2="488" gradientUnits="userSpaceOnUse">
            <stop offset="0" stop-opacity=".588"/>
            <stop offset=".88" stop-opacity="0"/>
            <stop offset="1"/>
        </linearGradient>
        <filter id="a" x="-.01" y="-.01" width="1.026" height="1.022" color-interpolation-filters="sRGB">
            <feGaussianBlur stdDeviation="2.12"/>
        </filter>
    </defs>
    <path d="M20.705 4.015c-9.339 0-10.344.96-10.298 10.317v38.633c-.046 9.357.96 10.317 10.298 10.317h25.97c9.34 0 10.299-.96 10.299-10.317V14.332c0-9.358-.96-10.317-10.298-10.317z" fill="none" opacity=".2" stroke-width="1.058" stroke="#16181D"/>
    <path transform="matrix(.1323 0 0 .1323 -4.41 -5.51)" d="M189.843 74c-70.593 0-78.189 7.25-77.843 77.987v292.026c-.346 70.736 7.25 77.987 77.843 77.987h196.314c70.593 0 76.006-7.274 77.843-77.987V151.987C464 81.25 456.75 74 386.157 74z" filter="url(#a)" opacity=".1"/>
    <path transform="matrix(.1323 0 0 .1323 -4.41 -5.51)" d="M189.843 74c-70.593 0-78.189 7.25-77.843 77.987v292.026c-.346 70.736 7.25 77.987 77.843 77.987h196.314C456.75 522 464 514.75 464 444.013V151.987C464 81.25 456.75 74 386.157 74z" fill="url(#b)" filter="url(#filter4380)" opacity=".3"/>
    <path d="M20.705 233.282c-9.339 0-10.344.959-10.298 10.317v38.632c-.046 9.358.96 10.317 10.298 10.317h25.97c9.34 0 10.299-.959 10.299-10.317V243.6c0-9.358-.96-10.317-10.298-10.317z" fill="url(#c)" transform="translate(0 -229.267)"/>
    <path d="M20.705 4.015c-9.339 0-10.344.96-10.298 10.317v.53c-.046-9.358.96-10.318 10.298-10.318h25.97c9.34 0 10.299.96 10.299 10.317v-.529c0-9.358-.96-10.317-10.298-10.317z" fill="#dcdbdc" opacity=".6"/>
    <path d="M48.035 35.55a7.01 7.01 0 0 0-3.068.711c-.316-.625-.631-1.182-.687-1.59-.062-.476-.136-.767-.062-1.336.074-.569.408-1.38.402-1.441-.006-.062-.074-.353-.754-.359-.68-.006-1.269.13-1.337.31-.068.179-.198.587-.284 1.008-.118.618-1.361 2.827-2.072 3.983-.23-.451-.427-.847-.47-1.163-.062-.476-.137-.767-.062-1.336.074-.569.408-1.38.402-1.441-.007-.062-.075-.353-.755-.359-.68-.006-1.268.13-1.336.31-.068.179-.142.6-.285 1.008-.142.408-1.794 4.095-2.227 5.047-.222.49-.414.879-.55 1.145 0 0-.006.018-.025.05-.117.228-.186.352-.186.352v.006c-.092.167-.191.322-.24.322-.038 0-.106-.446.012-1.052.247-1.28.835-3.272.829-3.34 0-.038.11-.384-.384-.563-.483-.18-.656.117-.699.117-.043 0-.074.105-.074.105s.538-2.239-1.027-2.239c-.977 0-2.326 1.07-2.994 2.035a829.4 829.4 0 0 0-2.276 1.244c-.365.204-.743.408-1.095.6-.025-.025-.05-.056-.075-.08-1.892-2.024-5.394-3.453-5.245-6.168.055-.99.396-3.588 6.724-6.743 5.208-2.567 9.353-1.856 10.07-.278 1.027 2.252-2.22 6.433-7.602 7.04-2.054.228-3.13-.563-3.402-.86-.285-.31-.328-.328-.433-.266-.173.092-.062.37 0 .532.16.42.822 1.163 1.942 1.527.99.322 3.396.502 6.31-.624 3.26-1.262 5.808-4.77 5.06-7.708-.749-2.981-5.697-3.965-10.38-2.301-2.784.99-5.803 2.549-7.974 4.578-2.58 2.412-2.988 4.509-2.82 5.387.6 3.118 4.899 5.147 6.618 6.65-.086.05-.167.093-.235.13-.86.427-4.138 2.14-4.955 3.953-.927 2.054.149 3.526.86 3.724 2.209.612 4.479-.489 5.697-2.308 1.22-1.818 1.07-4.181.508-5.264a.13.13 0 0 0-.025-.037l.674-.396c.44-.26.872-.5 1.244-.699-.21.576-.365 1.262-.44 2.252-.092 1.163.384 2.672 1.009 3.266.278.26.606.266.816.266.73 0 1.058-.606 1.423-1.324.445-.878.847-1.899.847-1.899s-.5 2.76.86 2.76c.495 0 .996-.644 1.219-.972v.006s.012-.019.037-.062l.08-.13v-.012c.198-.347.644-1.132 1.306-2.437.853-1.683 1.676-3.786 1.676-3.786s.074.513.328 1.367c.148.5.458 1.051.705 1.583-.198.279-.322.433-.322.433l.007.006c-.161.21-.334.44-.526.662-.674.804-1.479 1.726-1.59 1.992-.13.316-.099.545.148.73.18.136.502.155.83.136a3.806 3.806 0 0 0 1.243-.284 4.173 4.173 0 0 0 1.07-.563c.662-.489 1.064-1.188 1.027-2.11-.019-.507-.186-1.014-.39-1.49.062-.087.118-.174.18-.26 1.045-1.528 1.855-3.205 1.855-3.205s.074.514.328 1.368c.124.433.377.903.6 1.36-.983.798-1.59 1.726-1.806 2.333-.39 1.125-.087 1.633.489 1.75.26.056.63-.068.903-.185a4.114 4.114 0 0 0 1.144-.588c.662-.489 1.3-1.17 1.262-2.09a3.953 3.953 0 0 0-.285-1.238c.836-.347 1.912-.538 3.285-.377 2.945.346 3.526 2.183 3.415 2.956-.112.774-.73 1.194-.934 1.324-.204.13-.273.173-.254.266.025.136.124.13.297.105.241-.043 1.546-.624 1.602-2.047.093-1.819-1.64-3.805-4.701-3.786zM25.32 43.208c-.977 1.064-2.338 1.466-2.926 1.126-.63-.365-.383-1.937.817-3.062.73-.687 1.67-1.324 2.295-1.714.142-.087.352-.21.606-.365.043-.025.068-.037.068-.037.05-.03.1-.062.149-.093.439 1.609.018 3.025-1.009 4.145zm7.114-4.838c-.34.83-1.052 2.951-1.485 2.834-.37-.1-.6-1.708-.074-3.298.266-.798.83-1.75 1.157-2.121.532-.594 1.12-.792 1.262-.55.18.315-.65 2.616-.86 3.135zm5.87 2.809c-.142.074-.278.123-.34.086-.043-.024.062-.123.062-.123s.736-.792 1.027-1.15c.167-.211.365-.459.575-.737v.08c0 .947-.915 1.584-1.324 1.844zm4.528-1.033c-.105-.074-.086-.322.266-1.095.137-.303.458-.81 1.009-1.3.062.199.105.39.099.57-.006 1.194-.86 1.64-1.374 1.825z" fill="#C677DD"/>
    <path d="M33.69 4.015v59.267h12.986c9.339 0 10.055-.963 10.298-10.317V14.332c0-9.358-.96-10.317-10.298-10.317z" fill="#dcdbdc" opacity=".1"/>
    <path d="M10.407 33.648v19.317c-.046 9.358.96 10.317 10.298 10.317h25.97c9.34 0 10.056-.963 10.299-10.317V33.648z" fill="#dcdbdc" opacity=".2"/>
    <path d="M41.099 63.282l15.875-15.875v5.949c-.014 8.994-1.006 9.926-10.1 9.926z" fill="#dcdbdc" opacity=".4"/>
</svg>
