<?xml version="1.0" encoding="UTF-8" standalone="no"?>
<svg
   xmlns:dc="http://purl.org/dc/elements/1.1/"
   xmlns:cc="http://creativecommons.org/ns#"
   xmlns:rdf="http://www.w3.org/1999/02/22-rdf-syntax-ns#"
   xmlns:svg="http://www.w3.org/2000/svg"
   xmlns="http://www.w3.org/2000/svg"
   xmlns:sodipodi="http://sodipodi.sourceforge.net/DTD/sodipodi-0.dtd"
   xmlns:inkscape="http://www.inkscape.org/namespaces/inkscape"
   width="256"
   height="256"
   viewBox="0 0 67.73 67.73"
   version="1.1"
   id="svg37"
   sodipodi:docname="text-x-qml.svg"
   inkscape:version="0.92.5 (2060ec1f9f, 2020-04-08)">
  <metadata
     id="metadata41">
    <rdf:RDF>
      <cc:Work
         rdf:about="">
        <dc:format>image/svg+xml</dc:format>
        <dc:type
           rdf:resource="http://purl.org/dc/dcmitype/StillImage" />
      </cc:Work>
    </rdf:RDF>
  </metadata>
  <sodipodi:namedview
     pagecolor="#dcdbdc"
     bordercolor="#597981"
     borderopacity="1"
     objecttolerance="10"
     gridtolerance="10"
     guidetolerance="10"
     inkscape:pageopacity="0"
     inkscape:pageshadow="2"
     inkscape:window-width="1314"
     inkscape:window-height="716"
     id="namedview39"
     showgrid="false"
     inkscape:zoom="2.6074563"
     inkscape:cx="109.23516"
     inkscape:cy="134.17713"
     inkscape:window-x="52"
     inkscape:window-y="24"
     inkscape:window-maximized="1"
     inkscape:current-layer="svg37" />
  <defs
     id="defs17">
    <linearGradient
       id="c"
       x1="529.655"
       x2="-35.31"
       y1="401.584"
       y2="119.093"
       gradientTransform="matrix(0 -.11989 -.11989 0 67.016 292.548)"
       gradientUnits="userSpaceOnUse">
      <stop
         offset="0"
         stop-color="#97C378"
         id="stop2" />
      <stop
         offset="1"
         stop-color="#97C378"
         id="stop4" />
    </linearGradient>
    <linearGradient
       id="b"
       x1="88"
       x2="488"
       y1="88"
       y2="488"
       gradientUnits="userSpaceOnUse">
      <stop
         offset="0"
         stop-opacity=".588"
         id="stop7" />
      <stop
         offset=".88"
         stop-opacity="0"
         id="stop9" />
      <stop
         offset="1"
         id="stop11" />
    </linearGradient>
    <filter
       id="a"
       x="-.01"
       y="-.01"
       width="1.026"
       height="1.022"
       color-interpolation-filters="sRGB">
      <feGaussianBlur
         stdDeviation="2.12"
         id="feGaussianBlur14" />
    </filter>
    <linearGradient
       gradientTransform="matrix(.5 0 0-.48276 384.57 547.25)"
       gradientUnits="userSpaceOnUse"
       x2="61.689"
       x1="3.116"
       y2="-3.454"
       y1="68.42"
       id="a-1">
      <stop
         id="stop848"
         stop-color="#97C378" />
      <stop
         id="stop850"
         stop-color="#8CBEA2"
         offset="1" />
    </linearGradient>
    <linearGradient
       gradientUnits="userSpaceOnUse"
       x2="411.57"
       y2="531.8"
       x1="404.57"
       y1="524.8"
       id="b-1">
      <stop
         id="stop853"
         stop-color="#282C33" />
      <stop
         id="stop855"
         stop-opacity="0"
         stop-color="#597981"
         offset="1" />
    </linearGradient>
  </defs>
  <path
     transform="matrix(.1323 0 0 .1323 -4.41 -5.51)"
     d="M189.843 74c-70.593 0-78.189 7.25-77.843 77.987v292.026c-.346 70.736 7.25 77.987 77.843 77.987h196.314c70.593 0 76.006-7.274 77.843-77.987V151.987C464 81.25 456.75 74 386.157 74z"
     filter="url(#a)"
     opacity=".1"
     id="path19" />
  <path
     transform="matrix(.1323 0 0 .1323 -4.41 -5.51)"
     d="M189.843 74c-70.593 0-78.189 7.25-77.843 77.987v292.026c-.346 70.736 7.25 77.987 77.843 77.987h196.314C456.75 522 464 514.75 464 444.013V151.987C464 81.25 456.75 74 386.157 74z"
     fill="url(#b)"
     filter="url(#filter4380)"
     opacity=".3"
     id="path21" />
  <path
     d="M46.674 233.282c9.34 0 10.344.959 10.298 10.317v38.632c.046 9.358-.959 10.317-10.298 10.317h-25.97c-9.34 0-10.298-.959-10.298-10.317V243.6c0-9.358.959-10.317 10.298-10.317z"
     fill="url(#c)"
     transform="translate(0 -229.267)"
     id="path23" />
  <path
     d="M33.69 4.015v59.267h12.986c9.339 0 10.055-.963 10.298-10.317V14.332c0-9.358-.96-10.317-10.298-10.317z"
     fill="#dcdbdc"
     opacity=".08"
     id="path27" />
  <path
     d="M10.407 33.648v19.317c-.046 9.358.96 10.317 10.298 10.317h25.97c9.34 0 10.056-.963 10.299-10.317V33.648z"
     fill="#dcdbdc"
     opacity=".08"
     id="path29" />
  <path
     d="M41.099 63.282l15.875-15.875v5.949c-.014 8.994-1.006 9.926-10.1 9.926z"
     fill="#dcdbdc"
     opacity=".08"
     id="path31" />
  <path
     d="M10.407 52.435v.53c-.046 9.357.96 10.317 10.298 10.317h25.97c9.34 0 10.056-.963 10.299-10.318v-.529c-.243 9.355-.96 10.317-10.298 10.317h-25.97c-9.34 0-10.345-.959-10.299-10.317z"
     opacity=".2"
     id="path33" />
  <path
     d="M20.705 4.015c-9.339 0-10.344.96-10.298 10.317v.53c-.046-9.358.96-10.318 10.298-10.318h25.97c9.34 0 10.299.96 10.299 10.317v-.529c0-9.358-.96-10.317-10.298-10.317z"
     fill="#dcdbdc"
     opacity=".4"
     id="path35" />
  <g
     id="g876"
     transform="matrix(0.26457031,0,0,0.26457031,-57.764354,-154.55245)">
    <path
       id="path874"
       d="M 403.49679,656.94415 H 289.1595 c -3.77438,0 -6.82678,3.05242 -6.82678,6.82679 v 95.56622 c 0,3.77442 3.0524,6.82683 6.82678,6.82683 h 114.34644 c 3.76524,0 6.82678,-3.05241 6.82678,-6.82683 v -95.58449 c -0.0183,-3.76525 -3.0707,-6.81768 -6.84508,-6.81768 m -15.07009,8.54494 c 2.97928,0 5.39196,2.41271 5.39196,5.392 0,2.97932 -2.41268,5.38286 -5.39196,5.38286 -2.9793,0 -5.39198,-2.41269 -5.39198,-5.38286 0,-2.97929 2.41268,-5.392 5.39198,-5.392 m -15.21635,0 c 2.9793,0 5.39197,2.41271 5.39197,5.392 0,2.97932 -2.41267,5.38286 -5.39197,5.38286 -2.97929,0 -5.39198,-2.41269 -5.39198,-5.38286 0,-2.97929 2.41269,-5.392 5.39198,-5.392 m -15.21634,0 c 2.97929,0 5.39198,2.41271 5.39198,5.392 0,2.97932 -2.41269,5.38286 -5.39198,5.38286 -2.9793,0 -5.39198,-2.41269 -5.39198,-5.38286 0,-2.97929 2.41268,-5.392 5.39198,-5.392 m 38.68515,87.02131 H 295.95888 v -69.40136 h 100.71113 z"
       inkscape:connector-curvature="0"
       style="fill:#e3f5df;stroke-width:1" />
  </g>
</svg>
