<svg width="256" height="256" viewBox="0 0 67.73 67.73" xmlns="http://www.w3.org/2000/svg">
    <defs>
        <linearGradient id="c" x1="529.655" x2="-35.31" y1="401.584" y2="119.093" gradientTransform="matrix(0 -.11989 .11989 0 .363 292.548)" gradientUnits="userSpaceOnUse">
            <stop offset="0" stop-color="#dcdbdc"/>
            <stop offset="1" stop-color="#dcdbdc"/>
        </linearGradient>
        <linearGradient id="b" x1="88" x2="488" y1="88" y2="488" gradientUnits="userSpaceOnUse">
            <stop offset="0" stop-opacity=".588"/>
            <stop offset=".88" stop-opacity="0"/>
            <stop offset="1"/>
        </linearGradient>
        <filter id="a" x="-.01" y="-.01" width="1.026" height="1.022" color-interpolation-filters="sRGB">
            <feGaussianBlur stdDeviation="2.12"/>
        </filter>
    </defs>
    <path d="M20.705 4.015c-9.339 0-10.344.96-10.298 10.317v38.633c-.046 9.357.96 10.317 10.298 10.317h25.97c9.34 0 10.299-.96 10.299-10.317V14.332c0-9.358-.96-10.317-10.298-10.317z" fill="none" opacity=".2" stroke-width="1.058" stroke="#16181D"/>
    <path transform="matrix(.1323 0 0 .1323 -4.41 -5.51)" d="M189.843 74c-70.593 0-78.189 7.25-77.843 77.987v292.026c-.346 70.736 7.25 77.987 77.843 77.987h196.314c70.593 0 76.006-7.274 77.843-77.987V151.987C464 81.25 456.75 74 386.157 74z" filter="url(#a)" opacity=".1"/>
    <path transform="matrix(.1323 0 0 .1323 -4.41 -5.51)" d="M189.843 74c-70.593 0-78.189 7.25-77.843 77.987v292.026c-.346 70.736 7.25 77.987 77.843 77.987h196.314C456.75 522 464 514.75 464 444.013V151.987C464 81.25 456.75 74 386.157 74z" fill="url(#b)" filter="url(#filter4380)" opacity=".3"/>
    <path d="M20.705 233.282c-9.339 0-10.344.959-10.298 10.317v38.632c-.046 9.358.96 10.317 10.298 10.317h25.97c9.34 0 10.299-.959 10.299-10.317V243.6c0-9.358-.96-10.317-10.298-10.317z" fill="url(#c)" transform="translate(0 -229.267)"/>
    <path d="M38.684 20.932a6.37 6.37 0 0 0-2.546.508h-.002a5.844 5.844 0 0 0-2.043 1.405l-.006.007-.002.002c-.559.613-.993 1.352-1.3 2.199v.001c-.311.843-.464 1.77-.464 2.77 0 1.016.152 1.95.464 2.793a6.586 6.586 0 0 0 1.3 2.178l.002.002.004.005.001.001c.574.61 1.26 1.09 2.039 1.427l.002.001.003.002.002.001h.002a6.636 6.636 0 0 0 2.544.483c.906 0 1.76-.16 2.544-.483l.005-.002.004-.002a5.87 5.87 0 0 0 2.02-1.434l.001-.001a6.387 6.387 0 0 0 1.326-2.178c.311-.843.462-1.777.462-2.792 0-1-.151-1.925-.461-2.766l-.002-.006a6.345 6.345 0 0 0-1.325-2.199l-.001-.001a5.615 5.615 0 0 0-2.024-1.412h-.002a6.37 6.37 0 0 0-2.542-.508zm-.003 1.081h.003c.776 0 1.479.141 2.123.42l.002.001.003.002.003.001h.001a4.503 4.503 0 0 1 1.644 1.145l.002.002.005.006c.47.5.837 1.107 1.101 1.835l.005.013.001.008c.258.705.391 1.494.391 2.379 0 .908-.135 1.71-.396 2.418a5.279 5.279 0 0 1-1.102 1.816l-.002.002-.003.005-.002.002c-.455.5-.999.886-1.645 1.167l-.001.001h-.002c-.645.266-1.35.4-2.128.4a5.533 5.533 0 0 1-2.128-.4h-.003a5.005 5.005 0 0 1-1.67-1.17l-.003-.002a5.488 5.488 0 0 1-1.081-1.82c-.261-.707-.397-1.51-.397-2.418 0-.886.134-1.677.393-2.382l.003-.011v-.002l.002-.004c.264-.73.625-1.338 1.08-1.839h.002v-.003a4.731 4.731 0 0 1 1.67-1.147l.004-.002.005-.002a5.264 5.264 0 0 1 2.12-.42zM25.545 24.11c-.686 0-1.338.129-1.936.387h-.003a4.467 4.467 0 0 0-1.559 1.073l-.001.002-.003.002-.001.002a4.978 4.978 0 0 0-.99 1.675l-.001.003v.001a6.022 6.022 0 0 0-.35 2.09c0 .765.114 1.472.351 2.113.233.631.564 1.189.99 1.656l.001.002.004.004c.437.465.962.831 1.555 1.088h.001l.01.006a5.054 5.054 0 0 0 1.933.366c.685 0 1.334-.12 1.93-.366h.002l.005-.003.005-.002a4.484 4.484 0 0 0 1.54-1.093l.002-.001v-.001a4.865 4.865 0 0 0 1.008-1.655c.237-.642.351-1.349.351-2.113 0-.752-.114-1.453-.35-2.092v-.002a4.831 4.831 0 0 0-1.01-1.676v-.001l-.001-.001a4.297 4.297 0 0 0-1.544-1.075l-.002-.002a4.855 4.855 0 0 0-1.936-.386zm-.031 1.082h.031c.557 0 1.056.1 1.513.299h.002l.004.002.004.002c.459.188.84.455 1.163.808l.003.004.004.004c.335.356.596.787.785 1.31l.002.008c.186.505.283 1.075.283 1.718 0 .656-.097 1.233-.284 1.738-.188.512-.45.938-.786 1.295l-.003.004-.001.002-.002.002a3.372 3.372 0 0 1-1.168.828h-.002l-.002.001a3.946 3.946 0 0 1-1.515.285 3.948 3.948 0 0 1-1.515-.285h-.002l-.002-.001c-.46-.2-.85-.474-1.186-.83l-.002-.003a3.908 3.908 0 0 1-.772-1.297c-.186-.505-.284-1.082-.284-1.739 0-.643.097-1.213.284-1.719v-.003l.001-.003a3.88 3.88 0 0 1 .771-1.312l.002-.002a3.353 3.353 0 0 1 1.182-.812l.004-.002.005-.002c.446-.193.934-.29 1.473-.295zm13.32 11.859c-4.767 0-7.673.435-9.49 1.78-.905.671-1.5 1.581-1.842 2.67-.33 1.047-.438 2.361-.45 3.787l1.082.003c.012-1.366.122-2.582.4-3.465.289-.92.735-1.592 1.455-2.125 1.447-1.073 4.15-1.569 8.846-1.569s7.399.497 8.844 1.569c.719.533 1.165 1.205 1.452 2.124.277.884.385 2.1.395 3.465h1.082c-.01-1.427-.116-2.74-.444-3.788-.34-1.089-.936-2-1.84-2.67-1.816-1.346-4.722-1.78-9.49-1.78zm-13.61-.227c-3.38.01-5.377.34-6.731 1.35-.685.511-1.14 1.217-1.397 2.046-.256.831-.336 1.791-.339 2.925v1.617h1.081v-1.616c.003-1.08.087-1.944.292-2.608.203-.66.512-1.126 1.009-1.497.988-.738 2.781-1.122 6.085-1.135z" fill="#353431"/>
    <path d="M33.69 4.015v59.267h12.986c9.339 0 10.055-.963 10.298-10.317V14.332c0-9.358-.96-10.317-10.298-10.317z" fill="#dcdbdc" opacity=".1"/>
    <path d="M10.407 33.648v19.317c-.046 9.358.96 10.317 10.298 10.317h25.97c9.34 0 10.056-.963 10.299-10.317V33.648z" fill="#dcdbdc" opacity=".2"/>
    <path d="M41.099 63.282l15.875-15.875v5.949c-.014 8.994-1.006 9.926-10.1 9.926z" fill="#dcdbdc" opacity=".4"/>
    <path d="M20.705 4.015c-9.339 0-10.344.96-10.298 10.317v.53c-.046-9.358.96-10.318 10.298-10.318h25.97c9.34 0 10.299.96 10.299 10.317v-.529c0-9.358-.96-10.317-10.298-10.317z" fill="#dcdbdc" opacity=".6"/>
</svg>
