<svg width="256" height="256" viewBox="0 0 67.73 67.73" xmlns="http://www.w3.org/2000/svg">
    <defs>
        <linearGradient id="c" x1="529.655" x2="-35.31" y1="401.584" y2="119.093" gradientTransform="matrix(0 -.11989 .11989 0 .363 292.548)" gradientUnits="userSpaceOnUse">
            <stop offset="0" stop-color="#dcdbdc"/>
            <stop offset="1" stop-color="#dcdbdc"/>
        </linearGradient>
        <linearGradient id="b" x1="88" x2="488" y1="88" y2="488" gradientUnits="userSpaceOnUse">
            <stop offset="0" stop-opacity=".588"/>
            <stop offset=".88" stop-opacity="0"/>
            <stop offset="1"/>
        </linearGradient>
        <filter id="a" x="-.01" y="-.01" width="1.026" height="1.022" color-interpolation-filters="sRGB">
            <feGaussianBlur stdDeviation="2.12"/>
        </filter>
    </defs>
    <path d="M20.705 4.015c-9.339 0-10.344.96-10.298 10.317v38.633c-.046 9.357.96 10.317 10.298 10.317h25.97c9.34 0 10.299-.96 10.299-10.317V14.332c0-9.358-.96-10.317-10.298-10.317z" fill="none" opacity=".2" stroke-width="1.058" stroke="#16181D"/>
    <path transform="matrix(.1323 0 0 .1323 -4.41 -5.51)" d="M189.843 74c-70.593 0-78.189 7.25-77.843 77.987v292.026c-.346 70.736 7.25 77.987 77.843 77.987h196.314c70.593 0 76.006-7.274 77.843-77.987V151.987C464 81.25 456.75 74 386.157 74z" filter="url(#a)" opacity=".1"/>
    <path transform="matrix(.1323 0 0 .1323 -4.41 -5.51)" d="M189.843 74c-70.593 0-78.189 7.25-77.843 77.987v292.026c-.346 70.736 7.25 77.987 77.843 77.987h196.314C456.75 522 464 514.75 464 444.013V151.987C464 81.25 456.75 74 386.157 74z" fill="url(#b)" filter="url(#filter4380)" opacity=".3"/>
    <path d="M20.705 233.282c-9.339 0-10.344.959-10.298 10.317v38.632c-.046 9.358.96 10.317 10.298 10.317h25.97c9.34 0 10.299-.959 10.299-10.317V243.6c0-9.358-.96-10.317-10.298-10.317z" fill="url(#c)" transform="translate(0 -229.267)"/>
    <path d="M20.705 4.015c-9.339 0-10.344.96-10.298 10.317v.53c-.046-9.358.96-10.318 10.298-10.318h25.97c9.34 0 10.299.96 10.299 10.317v-.529c0-9.358-.96-10.317-10.298-10.317z" fill="#dcdbdc" opacity=".6"/>
    <g fill="#C6C752">
        <path d="M33.326 29.678c-1.477.375-2.485.657-3.94 1.032-.35.094-.374.117-.68-.235-.35-.398-.609-.656-1.101-.89-1.477-.728-2.908-.516-4.244.351-1.594 1.032-2.415 2.556-2.392 4.455.024 1.876 1.313 3.423 3.166 3.681 1.594.211 2.93-.352 3.986-1.547.21-.258.398-.54.633-.868h-4.525c-.493 0-.61-.305-.446-.703.305-.727.868-1.946 1.196-2.556a.633.633 0 0 1 .586-.375H34.1c-.047.633-.047 1.266-.141 1.899-.258 1.688-.891 3.236-1.923 4.596-1.688 2.227-3.892 3.61-6.682 3.985-2.298.305-4.431-.14-6.307-1.547-1.735-1.313-2.72-3.048-2.978-5.205-.305-2.556.446-4.854 1.993-6.87 1.665-2.18 3.869-3.564 6.565-4.056 2.204-.399 4.314-.141 6.214 1.149 1.242.82 2.133 1.946 2.72 3.306.14.21.046.328-.235.398z"/>
        <path d="M41.087 42.644c-2.134-.047-4.08-.656-5.721-2.063-1.384-1.196-2.251-2.72-2.533-4.525-.422-2.65.305-4.995 1.9-7.081 1.711-2.251 3.775-3.423 6.565-3.916 2.391-.422 4.642-.187 6.682 1.196 1.852 1.266 3.001 2.978 3.306 5.229.399 3.165-.516 5.744-2.696 7.948-1.548 1.57-3.447 2.556-5.628 3.001-.633.117-1.266.14-1.875.211zm5.58-9.472c-.023-.305-.023-.54-.07-.774-.422-2.321-2.556-3.634-4.783-3.118-2.181.492-3.588 1.875-4.104 4.08-.422 1.828.47 3.68 2.157 4.43 1.29.563 2.58.493 3.822-.14 1.853-.961 2.86-2.462 2.978-4.478z"/>
    </g>
    <path d="M33.69 4.015v59.267h12.986c9.339 0 10.055-.963 10.298-10.317V14.332c0-9.358-.96-10.317-10.298-10.317z" fill="#dcdbdc" opacity=".1"/>
    <path d="M10.407 33.648v19.317c-.046 9.358.96 10.317 10.298 10.317h25.97c9.34 0 10.056-.963 10.299-10.317V33.648z" fill="#dcdbdc" opacity=".2"/>
    <path d="M41.099 63.282l15.875-15.875v5.949c-.014 8.994-1.006 9.926-10.1 9.926z" fill="#dcdbdc" opacity=".4"/>
</svg>
