<svg width="256" height="256" viewBox="0 0 67.73 67.73" xmlns="http://www.w3.org/2000/svg">
    <defs>
        <linearGradient id="c" x1="529.655" x2="-35.31" y1="401.584" y2="119.093" gradientTransform="matrix(0 -.11989 .11989 0 .363 292.548)" gradientUnits="userSpaceOnUse">
            <stop offset="0" stop-color="#dcdbdc"/>
            <stop offset="1" stop-color="#dcdbdc"/>
        </linearGradient>
        <linearGradient id="b" x1="88" x2="488" y1="88" y2="488" gradientUnits="userSpaceOnUse">
            <stop offset="0" stop-opacity=".588"/>
            <stop offset=".88" stop-opacity="0"/>
            <stop offset="1"/>
        </linearGradient>
        <filter id="a" x="-.01" y="-.01" width="1.026" height="1.022" color-interpolation-filters="sRGB">
            <feGaussianBlur stdDeviation="2.12"/>
        </filter>
    </defs>
    <path d="M20.705 4.015c-9.339 0-10.344.96-10.298 10.317v38.633c-.046 9.357.96 10.317 10.298 10.317h25.97c9.34 0 10.299-.96 10.299-10.317V14.332c0-9.358-.96-10.317-10.298-10.317z" fill="none" opacity=".2" stroke-width="1.058" stroke="#16181D"/>
    <path transform="matrix(.1323 0 0 .1323 -4.41 -5.51)" d="M189.843 74c-70.593 0-78.189 7.25-77.843 77.987v292.026c-.346 70.736 7.25 77.987 77.843 77.987h196.314c70.593 0 76.006-7.274 77.843-77.987V151.987C464 81.25 456.75 74 386.157 74z" filter="url(#a)" opacity=".1"/>
    <path transform="matrix(.1323 0 0 .1323 -4.41 -5.51)" d="M189.843 74c-70.593 0-78.189 7.25-77.843 77.987v292.026c-.346 70.736 7.25 77.987 77.843 77.987h196.314C456.75 522 464 514.75 464 444.013V151.987C464 81.25 456.75 74 386.157 74z" fill="url(#b)" filter="url(#filter4380)" opacity=".3"/>
    <path d="M20.705 233.282c-9.339 0-10.344.959-10.298 10.317v38.632c-.046 9.358.96 10.317 10.298 10.317h25.97c9.34 0 10.299-.959 10.299-10.317V243.6c0-9.358-.96-10.317-10.298-10.317z" fill="url(#c)" transform="translate(0 -229.267)"/>
    <path d="M20.705 4.015c-9.339 0-10.344.96-10.298 10.317v.53c-.046-9.358.96-10.318 10.298-10.318h25.97c9.34 0 10.299.96 10.299 10.317v-.529c0-9.358-.96-10.317-10.298-10.317z" fill="#dcdbdc" opacity=".6"/>
    <path d="M33.69 17.773a.452.452 0 0 0-.39.203l-.826 1.335-.388.038-1.07-1.148c-.217-.232-.655-.146-.766.153l-.548 1.466-.378.114-1.27-.914c-.258-.186-.671-.015-.722.299l-.252 1.546-.347.186-1.425-.65c-.29-.132-.662.116-.65.434l.055 1.569-.301.247-1.528-.36c-.31-.072-.625.243-.552.553l.36 1.528-.248.3-1.568-.055c-.317-.009-.566.36-.434.65l.65 1.426-.186.347-1.546.251c-.314.051-.484.464-.299.722l.914 1.27-.114.378-1.466.548c-.298.11-.385.548-.152.766l1.146 1.07-.037.388-1.335.826c-.27.167-.27.614 0 .78l1.335.826.037.389-1.146 1.07c-.233.216-.146.654.152.765l1.466.549.114.378-.914 1.27c-.186.258-.014.671.3.721l1.545.252.186.347-.65 1.425c-.132.29.117.663.434.65l1.568-.055.248.301-.36 1.528c-.073.31.242.624.552.552l1.528-.36.301.247-.055 1.569c-.012.317.36.566.65.434l1.425-.65.347.186.252 1.545c.051.315.464.485.722.3l1.27-.916.378.115.548 1.466c.11.297.549.385.765.152l1.07-1.147.39.039.825 1.334c.166.27.614.27.78 0l.827-1.334.388-.039 1.07 1.147c.216.233.654.145.765-.152l.548-1.466.379-.115 1.27.915c.258.186.67.015.721-.299l.252-1.545.347-.186 1.425.65c.29.132.661-.116.65-.434l-.055-1.57.3-.246 1.529.36c.31.073.625-.242.552-.552l-.36-1.528.247-.301 1.569.055c.316.013.566-.36.433-.65l-.65-1.425.187-.347 1.545-.252c.315-.05.485-.463.299-.721l-.914-1.27.114-.378 1.466-.549c.298-.111.385-.549.152-.765l-1.146-1.07.038-.389 1.334-.825c.27-.167.27-.614 0-.781l-1.334-.826-.038-.389 1.146-1.07c.234-.217.146-.654-.152-.765l-1.465-.548-.115-.379.914-1.27c.187-.257.015-.67-.298-.72l-1.546-.252-.186-.347.65-1.426c.132-.29-.115-.662-.434-.65l-1.568.055-.249-.3.361-1.528c.073-.31-.242-.626-.552-.553l-1.528.36-.301-.247.055-1.569c.012-.318-.36-.566-.65-.434l-1.425.65-.346-.186-.253-1.546c-.05-.313-.463-.485-.721-.299l-1.27.914-.379-.114-.547-1.466c-.111-.299-.55-.385-.766-.153l-1.07 1.147-.388-.037-.826-1.335a.453.453 0 0 0-.39-.203zm-.05 2.797c.472 0 .944.315.944.944 0 1.258-1.887 1.258-1.888 0 0-.63.472-.944.944-.944zm2.19 1.555c3.355.628 6.264 2.7 7.954 5.665l-1.113 2.513a.863.863 0 0 0 .438 1.137l2.143.952c.067.67.075 1.345.024 2.017h-1.192c-.119 0-.167.079-.167.196v.547c0 1.289-.727 1.569-1.363 1.64-.607.068-1.279-.254-1.362-.625-.357-2.012-.953-2.441-1.895-3.184 1.168-.741 2.384-1.836 2.384-3.3 0-1.582-1.084-2.578-1.823-3.067-1.037-.683-2.185-.748-2.495-.748H25.035c1.704-1.904 3.988-3.266 6.5-3.74l1.453 1.524a.86.86 0 0 0 1.216.028zm-13.447 6.99c.471 0 .943.314.943.943 0 1.258-1.887 1.258-1.887 0 0-.63.472-.944.944-.944zm22.514.043c.472 0 .945.315.944.944 0 1.258-1.887 1.258-1.887 0 0-.63.471-.944.943-.944zm-20.534.374h1.39l-.005 7.354h-3.234c-.41-1.44-.538-3.099-.376-4.588l2.033-.903a.862.862 0 0 0 .437-1.137zm6.274 0h4.292c.203 0 1.43.081 1.43 1 0 .761-.941 1.137-1.716 1.137h-4.006v-2.137zm0 4.884h3.424c.274 0 1.466.384 1.847 1.907.12.468.381 1.993.56 2.48.18.548.906 1.72 1.68 1.72h4.903c-.329.44-.688.777-1.076 1.166l-1.996-.429a.86.86 0 0 0-1.021.662l-.474 2.21a11.618 11.618 0 0 1-9.69-.046l-.473-2.21a.86.86 0 0 0-1.021-.662l-1.951.419c-.363-.374-.7-.692-1.01-1.11h9.35v-3.664h-3.052zm-3.989 7.996c.472 0 .945.315.944.944 0 1.258-1.887 1.258-1.887 0 0-.63.471-.944.943-.944zm13.983.044c.472 0 .944.315.944.944 0 1.258-1.887 1.258-1.888 0 0-.63.472-.944.944-.944z" fill="#353431"/>
    <path d="M33.69 4.015v59.267h12.986c9.339 0 10.055-.963 10.298-10.317V14.332c0-9.358-.96-10.317-10.298-10.317z" fill="#dcdbdc" opacity=".1"/>
    <path d="M10.407 33.648v19.317c-.046 9.358.96 10.317 10.298 10.317h25.97c9.34 0 10.056-.963 10.299-10.317V33.648z" fill="#dcdbdc" opacity=".2"/>
    <path d="M41.099 63.282l15.875-15.875v5.949c-.014 8.994-1.006 9.926-10.1 9.926z" fill="#dcdbdc" opacity=".4"/>
</svg>
