<svg width="256" height="256" viewBox="0 0 67.73 67.73" xmlns="http://www.w3.org/2000/svg">
    <defs>
        <linearGradient id="c" x1="529.655" x2="-35.31" y1="401.584" y2="119.093" gradientTransform="matrix(0 -.11989 .11989 0 .363 292.548)" gradientUnits="userSpaceOnUse">
            <stop offset="0" stop-color="#dcdbdc"/>
            <stop offset="1" stop-color="#dcdbdc"/>
        </linearGradient>
        <linearGradient id="b" x1="88" x2="488" y1="88" y2="488" gradientUnits="userSpaceOnUse">
            <stop offset="0" stop-opacity=".588"/>
            <stop offset=".88" stop-opacity="0"/>
            <stop offset="1"/>
        </linearGradient>
        <filter id="a" x="-.01" y="-.01" width="1.026" height="1.022" color-interpolation-filters="sRGB">
            <feGaussianBlur stdDeviation="2.12"/>
        </filter>
    </defs>
    <path d="M20.705 4.015c-9.339 0-10.344.96-10.298 10.317v38.633c-.046 9.357.96 10.317 10.298 10.317h25.97c9.34 0 10.299-.96 10.299-10.317V14.332c0-9.358-.96-10.317-10.298-10.317z" fill="none" opacity=".2" stroke-width="1.058" stroke="#16181D"/>
    <path transform="matrix(.1323 0 0 .1323 -4.41 -5.51)" d="M189.843 74c-70.593 0-78.189 7.25-77.843 77.987v292.026c-.346 70.736 7.25 77.987 77.843 77.987h196.314c70.593 0 76.006-7.274 77.843-77.987V151.987C464 81.25 456.75 74 386.157 74z" filter="url(#a)" opacity=".1"/>
    <path transform="matrix(.1323 0 0 .1323 -4.41 -5.51)" d="M189.843 74c-70.593 0-78.189 7.25-77.843 77.987v292.026c-.346 70.736 7.25 77.987 77.843 77.987h196.314C456.75 522 464 514.75 464 444.013V151.987C464 81.25 456.75 74 386.157 74z" fill="url(#b)" filter="url(#filter4380)" opacity=".3"/>
    <path d="M20.705 233.282c-9.339 0-10.344.959-10.298 10.317v38.632c-.046 9.358.96 10.317 10.298 10.317h25.97c9.34 0 10.299-.959 10.299-10.317V243.6c0-9.358-.96-10.317-10.298-10.317z" fill="url(#c)" transform="translate(0 -229.267)"/>
    <path d="M33.69 4.015v59.267h12.986c9.339 0 10.055-.963 10.298-10.317V14.332c0-9.358-.96-10.317-10.298-10.317z" fill="#dcdbdc" opacity=".1"/>
    <path d="M10.407 33.648v19.317c-.046 9.358.96 10.317 10.298 10.317h25.97c9.34 0 10.056-.963 10.299-10.317V33.648z" fill="#dcdbdc" opacity=".2"/>
    <path d="M41.099 63.282l15.875-15.875v5.949c-.014 8.994-1.006 9.926-10.1 9.926z" fill="#dcdbdc" opacity=".4"/>
    <path d="M20.705 4.015c-9.339 0-10.344.96-10.298 10.317v.53c-.046-9.358.96-10.318 10.298-10.318h25.97c9.34 0 10.299.96 10.299 10.317v-.529c0-9.358-.96-10.317-10.298-10.317z" fill="#dcdbdc" opacity=".6"/>
    <path d="M16.18 48.823a1.75 1.75 0 0 0-1.75 1.75 1.75 1.75 0 0 0 1.75 1.752 1.75 1.75 0 0 0 1.751-1.751 1.75 1.75 0 0 0-1.75-1.751zm5.837 0a1.75 1.75 0 0 0-1.751 1.75 1.75 1.75 0 0 0 1.75 1.752 1.75 1.75 0 0 0 1.752-1.751 1.75 1.75 0 0 0-1.751-1.751zm5.836 0a1.75 1.75 0 0 0-1.75 1.75 1.75 1.75 0 0 0 1.75 1.752 1.75 1.75 0 0 0 1.751-1.751 1.75 1.75 0 0 0-1.75-1.751zm5.837 0a1.75 1.75 0 0 0-1.751 1.75 1.75 1.75 0 0 0 1.75 1.752 1.75 1.75 0 0 0 1.752-1.751 1.75 1.75 0 0 0-1.751-1.751zm5.836 0a1.75 1.75 0 0 0-1.75 1.75 1.75 1.75 0 0 0 1.75 1.752 1.75 1.75 0 0 0 1.75-1.751 1.75 1.75 0 0 0-1.75-1.751zm5.836 0a1.75 1.75 0 0 0-1.75 1.75 1.75 1.75 0 0 0 1.75 1.752 1.75 1.75 0 0 0 1.751-1.751 1.75 1.75 0 0 0-1.75-1.751zm5.837 0a1.75 1.75 0 0 0-1.751 1.75 1.75 1.75 0 0 0 1.75 1.752 1.75 1.75 0 0 0 1.752-1.751 1.75 1.75 0 0 0-1.751-1.751z" fill="#353431"/>
    <path d="M25.811 13.805a.874.874 0 0 0-.875.875v15.758c0 .485.39.876.875.876h14.591c.485 0 .876-.39.876-.876V14.68a.874.874 0 0 0-.876-.875zm.292 1.167h1.167v1.167h-1.167zm2.918 0h8.171c.323 0 .584.26.584.583v5.837c0 .323-.26.584-.584.584h-8.17a.582.582 0 0 1-.585-.584v-5.837c0-.323.26-.583.584-.583zm9.922 0h1.167v1.167h-1.167zm-12.84 2.334h1.167v1.168h-1.167zm12.84 0h1.167v1.168h-1.167zm-12.84 2.335h1.167v1.167h-1.167zm12.84 0h1.167v1.167h-1.167zm-12.84 2.335h1.167v1.167h-1.167zm12.84 0h1.167v1.167h-1.167zm-9.922 1.167h8.171c.323 0 .584.26.584.583v5.837c0 .323-.26.583-.584.583h-8.17a.582.582 0 0 1-.585-.583v-5.837c0-.323.26-.583.584-.583zm-2.918 1.167h1.167v1.167h-1.167zm12.84 0h1.167v1.167h-1.167zm-12.84 2.335h1.167v1.167h-1.167zm12.84 0h1.167v1.167h-1.167zm-12.84 2.334h1.167v1.167h-1.167zm12.84 0h1.167v1.167h-1.167z" fill="#353431"/>
</svg>
