<svg width="256" height="256" viewBox="0 0 67.73 67.73" xmlns="http://www.w3.org/2000/svg">
    <defs>
        <linearGradient id="c" x1="529.655" x2="-35.31" y1="401.584" y2="119.093" gradientTransform="matrix(0 -.11989 .11989 0 .363 292.548)" gradientUnits="userSpaceOnUse">
            <stop offset="0" stop-color="#dcdbdc"/>
            <stop offset="1" stop-color="#dcdbdc"/>
        </linearGradient>
        <linearGradient id="b" x1="88" x2="488" y1="88" y2="488" gradientUnits="userSpaceOnUse">
            <stop offset="0" stop-opacity=".588"/>
            <stop offset=".88" stop-opacity="0"/>
            <stop offset="1"/>
        </linearGradient>
        <filter id="a" x="-.01" y="-.01" width="1.026" height="1.022" color-interpolation-filters="sRGB">
            <feGaussianBlur stdDeviation="2.12"/>
        </filter>
    </defs>
    <path d="M20.705 4.015c-9.339 0-10.344.96-10.298 10.317v38.633c-.046 9.357.96 10.317 10.298 10.317h25.97c9.34 0 10.299-.96 10.299-10.317V14.332c0-9.358-.96-10.317-10.298-10.317z" fill="none" opacity=".2" stroke-width="1.058" stroke="#16181D"/>
    <path transform="matrix(.1323 0 0 .1323 -4.41 -5.51)" d="M189.843 74c-70.593 0-78.189 7.25-77.843 77.987v292.026c-.346 70.736 7.25 77.987 77.843 77.987h196.314c70.593 0 76.006-7.274 77.843-77.987V151.987C464 81.25 456.75 74 386.157 74z" filter="url(#a)" opacity=".1"/>
    <path transform="matrix(.1323 0 0 .1323 -4.41 -5.51)" d="M189.843 74c-70.593 0-78.189 7.25-77.843 77.987v292.026c-.346 70.736 7.25 77.987 77.843 77.987h196.314C456.75 522 464 514.75 464 444.013V151.987C464 81.25 456.75 74 386.157 74z" fill="url(#b)" filter="url(#filter4380)" opacity=".3"/>
    <path d="M20.705 233.282c-9.339 0-10.344.959-10.298 10.317v38.632c-.046 9.358.96 10.317 10.298 10.317h25.97c9.34 0 10.299-.959 10.299-10.317V243.6c0-9.358-.96-10.317-10.298-10.317z" fill="url(#c)" transform="translate(0 -229.267)"/>
    <path d="M20.705 4.015c-9.339 0-10.344.96-10.298 10.317v.53c-.046-9.358.96-10.318 10.298-10.318h25.97c9.34 0 10.299.96 10.299 10.317v-.529c0-9.358-.96-10.317-10.298-10.317z" fill="#dcdbdc" opacity=".6"/>
    <path d="M36.868 17.773c1.33 5.242-4.694 6.825-6.868 10.09-1.48 2.224.727 4.614 3.736 7.329-1.173-2.653-5.153-4.973.002-9.045 6.428-5.073 3.13-8.374 3.13-8.374zm3.976 6.486s-10.869 2.713-5.678 8.695c1.533 1.764-.402 3.35-.402 3.35s3.889-2.007 2.103-4.522c-1.668-2.343-2.947-3.508 3.977-7.523zm1.925 10.684a3.655 3.655 0 0 0-1.203.214c-.334.118-.509.392-.509.392s.211-.084.681-.183c1.923-.4 4.678 2.574-1.28 5.669-.027.074-.119.156-.119.156 7.085-1.862 5.54-6.254 2.43-6.248zm-12.764.302c-.467-.01-2.484.02-4.895 1.186-3.259 1.576 8.06 2.293 13.921.752.61-.416 1.451-.777 1.451-.777s-2.397.429-4.785.63c-2.923.244-6.06.293-7.633.082-3.727-.498 2.043-1.869 2.043-1.869s-.035-.003-.102-.004zm-1.242 3.606c-5.376 1.784 2.993 3.81 10.507 1.611a3.752 3.752 0 0 1-1.305-.796c-3.674.707-5.796.684-8.484.407-2.078-.215-.718-1.222-.718-1.222zm.76 3.476c-4.882 1.364 2.97 4.181 9.186 1.518-1.018-.395-1.748-.852-1.748-.852-2.772.524-4.058.565-6.574.278-2.076-.238-.864-.944-.864-.944zm-3.39 2.304c-2.193.068-6.48 2.039-2.56 2.675 12.673 2.054 23.1-.925 19.814-2.408 0 0 .898.74-.989 1.312-3.587 1.087-14.932 1.415-18.083.044-1.132-.493.992-1.176 1.66-1.32.697-.152 1.094-.124 1.094-.124-.196-.139-.53-.191-.937-.179zm19.266 1.884s-.4 1.026-4.725 1.84c-4.88.918-10.9.81-14.47.222 0 0 .731.605 4.488.847 5.717.365 14.499-.204 14.707-2.909z" clip-rule="evenodd" fill-rule="evenodd" fill="#F26D4B"/>
    <path d="M33.69 4.015v59.267h12.986c9.339 0 10.055-.963 10.298-10.317V14.332c0-9.358-.96-10.317-10.298-10.317z" fill="#dcdbdc" opacity=".1"/>
    <path d="M10.407 33.648v19.317c-.046 9.358.96 10.317 10.298 10.317h25.97c9.34 0 10.056-.963 10.299-10.317V33.648z" fill="#dcdbdc" opacity=".2"/>
    <path d="M41.099 63.282l15.875-15.875v5.949c-.014 8.994-1.006 9.926-10.1 9.926z" fill="#dcdbdc" opacity=".4"/>
</svg>
