<svg width="256" height="256" viewBox="0 0 67.73 67.73" xmlns="http://www.w3.org/2000/svg">
    <defs>
        <linearGradient id="c" x1="529.655" x2="-35.31" y1="401.584" y2="119.093" gradientTransform="matrix(0 -.11989 .11989 0 .363 292.548)" gradientUnits="userSpaceOnUse">
            <stop offset="0" stop-color="#dcdbdc"/>
            <stop offset="1" stop-color="#dcdbdc"/>
        </linearGradient>
        <linearGradient id="b" x1="88" x2="488" y1="88" y2="488" gradientUnits="userSpaceOnUse">
            <stop offset="0" stop-opacity=".588"/>
            <stop offset=".88" stop-opacity="0"/>
            <stop offset="1"/>
        </linearGradient>
        <filter id="a" x="-.01" y="-.01" width="1.026" height="1.022" color-interpolation-filters="sRGB">
            <feGaussianBlur stdDeviation="2.12"/>
        </filter>
    </defs>
    <path d="M20.705 4.015c-9.339 0-10.344.96-10.298 10.317v38.633c-.046 9.357.96 10.317 10.298 10.317h25.97c9.34 0 10.299-.96 10.299-10.317V14.332c0-9.358-.96-10.317-10.298-10.317z" fill="none" opacity=".2" stroke-width="1.058" stroke="#16181D"/>
    <path transform="matrix(.1323 0 0 .1323 -4.41 -5.51)" d="M189.843 74c-70.593 0-78.189 7.25-77.843 77.987v292.026c-.346 70.736 7.25 77.987 77.843 77.987h196.314c70.593 0 76.006-7.274 77.843-77.987V151.987C464 81.25 456.75 74 386.157 74z" filter="url(#a)" opacity=".1"/>
    <path transform="matrix(.1323 0 0 .1323 -4.41 -5.51)" d="M189.843 74c-70.593 0-78.189 7.25-77.843 77.987v292.026c-.346 70.736 7.25 77.987 77.843 77.987h196.314C456.75 522 464 514.75 464 444.013V151.987C464 81.25 456.75 74 386.157 74z" fill="url(#b)" filter="url(#filter4380)" opacity=".3"/>
    <path d="M20.705 233.282c-9.339 0-10.344.959-10.298 10.317v38.632c-.046 9.358.96 10.317 10.298 10.317h25.97c9.34 0 10.299-.959 10.299-10.317V243.6c0-9.358-.96-10.317-10.298-10.317z" fill="url(#c)" transform="translate(0 -229.267)"/>
    <path d="M33.92 42.03q-1.599 0-2.993-.574-1.352-.574-2.377-1.64-1.024-1.065-1.598-2.622-.574-1.599-.574-3.607 0-1.968.615-3.484.656-1.558 1.721-2.623 1.066-1.107 2.46-1.64 1.393-.573 2.91-.573 2.008 0 3.237.573 1.271.533 1.722.861l-.779 1.844q-.615-.327-1.598-.696-.943-.41-2.583-.41-2.254 0-3.77 1.598-1.476 1.599-1.476 4.55 0 3.033 1.435 4.672 1.475 1.599 3.975 1.599 1.763 0 2.746-.37 1.025-.409 1.476-.696l.697 1.967q-.533.328-1.886.82-1.352.451-3.36.451zm13.689-8.402q0 3.525-1.148 6.27-1.147 2.747-3.074 4.673-1.885 1.886-4.426 2.91-2.5.984-5.246.984-2.747 0-5.288-.984-2.5-1.024-4.426-2.91-1.886-1.926-3.033-4.672-1.148-2.746-1.148-6.271 0-3.484 1.148-6.23Q22.115 24.61 24 22.725q1.926-1.885 4.426-2.869 2.541-1.024 5.288-1.024 2.746 0 5.246 1.024 2.541.984 4.426 2.87 1.927 1.885 3.074 4.672 1.148 2.746 1.148 6.23zm-2.418 0q0-2.828-.86-5.164-.862-2.337-2.378-3.976-1.517-1.68-3.648-2.582-2.09-.902-4.59-.902t-4.632.902q-2.09.901-3.607 2.582-1.516 1.64-2.377 3.976-.86 2.336-.86 5.164t.86 5.164q.86 2.336 2.377 4.017 1.517 1.64 3.607 2.582 2.131.902 4.632.902 2.5 0 4.59-.902 2.131-.943 3.648-2.582 1.516-1.68 2.377-4.017.86-2.336.86-5.164z" fill="#16181D" opacity=".9"/>
    <path d="M33.69 4.015v59.267h12.986c9.339 0 10.055-.963 10.298-10.317V14.332c0-9.358-.96-10.317-10.298-10.317z" fill="#dcdbdc" opacity=".1"/>
    <path d="M10.407 33.648v19.317c-.046 9.358.96 10.317 10.298 10.317h25.97c9.34 0 10.056-.963 10.299-10.317V33.648z" fill="#dcdbdc" opacity=".2"/>
    <path d="M41.099 63.282l15.875-15.875v5.949c-.014 8.994-1.006 9.926-10.1 9.926z" fill="#dcdbdc" opacity=".4"/>
    <path d="M20.705 4.015c-9.339 0-10.344.96-10.298 10.317v.53c-.046-9.358.96-10.318 10.298-10.318h25.97c9.34 0 10.299.96 10.299 10.317v-.529c0-9.358-.96-10.317-10.298-10.317z" fill="#dcdbdc" opacity=".6"/>
</svg>
