<svg width="256" height="256" viewBox="0 0 67.73 67.73" xmlns="http://www.w3.org/2000/svg">
    <defs>
        <linearGradient id="c" x1="529.655" x2="-35.31" y1="401.584" y2="119.093" gradientTransform="matrix(0 -.11989 .11989 0 .363 292.548)" gradientUnits="userSpaceOnUse">
            <stop offset="0" stop-color="#dcdbdc"/>
            <stop offset="1" stop-color="#dcdbdc"/>
        </linearGradient>
        <linearGradient id="b" x1="88" x2="488" y1="88" y2="488" gradientUnits="userSpaceOnUse">
            <stop offset="0" stop-opacity=".588"/>
            <stop offset=".88" stop-opacity="0"/>
            <stop offset="1"/>
        </linearGradient>
        <filter id="a" x="-.01" y="-.01" width="1.026" height="1.022" color-interpolation-filters="sRGB">
            <feGaussianBlur stdDeviation="2.12"/>
        </filter>
    </defs>
    <g transform="translate(0 -229.267)">
        <path d="M20.705 233.282c-9.339 0-10.344.959-10.298 10.317v38.632c-.046 9.358.96 10.317 10.298 10.317h25.97c9.34 0 10.299-.959 10.299-10.317V243.6c0-9.358-.96-10.317-10.298-10.317z" fill="none" opacity=".2" stroke-width="1.058" stroke="#16181D"/>
        <path transform="matrix(.1323 0 0 .1323 -4.41 223.757)" d="M189.843 74c-70.593 0-78.189 7.25-77.843 77.987v292.026c-.346 70.736 7.25 77.987 77.843 77.987h196.314c70.593 0 76.006-7.274 77.843-77.987V151.987C464 81.25 456.75 74 386.157 74z" filter="url(#a)" opacity=".1"/>
        <path transform="matrix(.1323 0 0 .1323 -4.41 223.757)" d="M189.843 74c-70.593 0-78.189 7.25-77.843 77.987v292.026c-.346 70.736 7.25 77.987 77.843 77.987h196.314C456.75 522 464 514.75 464 444.013V151.987C464 81.25 456.75 74 386.157 74z" fill="url(#b)" filter="url(#filter4380)" opacity=".3"/>
        <path d="M20.705 233.282c-9.339 0-10.344.959-10.298 10.317v38.632c-.046 9.358.96 10.317 10.298 10.317h25.97c9.34 0 10.299-.959 10.299-10.317V243.6c0-9.358-.96-10.317-10.298-10.317z" fill="url(#c)"/>
        <rect x="19.93" y="255.51" width="27.517" height="14.817" rx="1.058" ry="1.058" fill="none" stroke-width="2.117" stroke="#353431"/>
        <path d="M24.165 267.148v-8.466h2.117l2.646 3.307 2.646-3.307h2.116v8.466h-2.116v-5.16l-2.646 3.308-2.646-3.307v5.16zM40.04 267.148l-3.175-4.233h2.117v-4.233h2.117v4.233h2.116z" fill="#353431"/>
        <path d="M33.69 233.282v59.266h12.986c9.339 0 10.055-.962 10.298-10.317V243.6c0-9.358-.96-10.317-10.298-10.317z" fill="#dcdbdc" opacity=".1"/>
        <path d="M10.407 262.915v19.316c-.046 9.358.96 10.317 10.298 10.317h25.97c9.34 0 10.056-.962 10.299-10.317v-19.316z" fill="#dcdbdc" opacity=".2"/>
        <path d="M41.099 292.548l15.875-15.875v5.95c-.014 8.994-1.006 9.925-10.1 9.925z" fill="#dcdbdc" opacity=".4"/>
        <path d="M20.705 233.282c-9.339 0-10.344.959-10.298 10.317v.529c-.046-9.358.96-10.317 10.298-10.317h25.97c9.34 0 10.299.96 10.299 10.317v-.53c0-9.357-.96-10.316-10.298-10.316z" fill="#dcdbdc" opacity=".6"/>
    </g>
</svg>
