<svg width="256" height="256" viewBox="0 0 67.73 67.73" xmlns="http://www.w3.org/2000/svg">
    <defs>
        <linearGradient id="c" x1="529.655" x2="-35.31" y1="401.584" y2="119.093" gradientTransform="matrix(0 -.11989 .11989 0 .363 292.548)" gradientUnits="userSpaceOnUse">
            <stop offset="0" stop-color="#dcdbdc"/>
            <stop offset="1" stop-color="#dcdbdc"/>
        </linearGradient>
        <linearGradient id="b" x1="88" x2="488" y1="88" y2="488" gradientUnits="userSpaceOnUse">
            <stop offset="0" stop-opacity=".588"/>
            <stop offset=".88" stop-opacity="0"/>
            <stop offset="1"/>
        </linearGradient>
        <filter id="a" x="-.01" y="-.01" width="1.026" height="1.022" color-interpolation-filters="sRGB">
            <feGaussianBlur stdDeviation="2.12"/>
        </filter>
    </defs>
    <path d="M20.705 4.015c-9.339 0-10.344.96-10.298 10.317v38.633c-.046 9.357.96 10.317 10.298 10.317h25.97c9.34 0 10.299-.96 10.299-10.317V14.332c0-9.358-.96-10.317-10.298-10.317z" fill="none" opacity=".2" stroke-width="1.058" stroke="#16181D"/>
    <path transform="matrix(.1323 0 0 .1323 -4.41 -5.51)" d="M189.843 74c-70.593 0-78.189 7.25-77.843 77.987v292.026c-.346 70.736 7.25 77.987 77.843 77.987h196.314c70.593 0 76.006-7.274 77.843-77.987V151.987C464 81.25 456.75 74 386.157 74z" filter="url(#a)" opacity=".1"/>
    <path transform="matrix(.1323 0 0 .1323 -4.41 -5.51)" d="M189.843 74c-70.593 0-78.189 7.25-77.843 77.987v292.026c-.346 70.736 7.25 77.987 77.843 77.987h196.314C456.75 522 464 514.75 464 444.013V151.987C464 81.25 456.75 74 386.157 74z" fill="url(#b)" filter="url(#filter4380)" opacity=".3"/>
    <path d="M20.705 233.282c-9.339 0-10.344.959-10.298 10.317v38.632c-.046 9.358.96 10.317 10.298 10.317h25.97c9.34 0 10.299-.959 10.299-10.317V243.6c0-9.358-.96-10.317-10.298-10.317z" fill="url(#c)" transform="translate(0 -229.267)"/>
    <path d="M20.705 4.015c-9.339 0-10.344.96-10.298 10.317v.53c-.046-9.358.96-10.318 10.298-10.318h25.97c9.34 0 10.299.96 10.299 10.317v-.529c0-9.358-.96-10.317-10.298-10.317z" fill="#dcdbdc" opacity=".6"/>
    <path d="M33.028 20.42c-1.176 0-2.254.134-3.234.403-.955.27-1.69.551-2.204.845l.697 1.985c1.348-.735 2.842-1.103 4.484-1.103.588 0 1.151.05 1.69.147a3.555 3.555 0 0 1 1.397.552c.416.27.747.637.992 1.102.245.441.367 1.005.367 1.69 0 .76-.147 1.446-.44 2.058a9.083 9.083 0 0 1-1.103 1.69 27.463 27.463 0 0 1-1.433 1.544c-.515.49-.992 1.017-1.433 1.58a8.706 8.706 0 0 0-1.103 1.838c-.294.637-.44 1.372-.44 2.205 0 .294.011.587.036.881.024.27.061.527.11.772h1.911a1.87 1.87 0 0 1-.037-.367v-.625c0-.808.16-1.543.478-2.205a8.234 8.234 0 0 1 1.213-1.837 25.248 25.248 0 0 1 1.543-1.69 20.491 20.491 0 0 0 1.58-1.69 8.692 8.692 0 0 0 1.213-1.912c.318-.686.478-1.47.478-2.352 0-.637-.11-1.286-.331-1.947s-.588-1.25-1.103-1.764c-.514-.54-1.212-.968-2.094-1.286-.858-.343-1.935-.515-3.234-.515zm-.478 22.415c-.636 0-1.139.196-1.506.588-.343.392-.515.87-.515 1.433 0 .564.172 1.041.515 1.433.367.392.87.588 1.506.588.637 0 1.127-.196 1.47-.588.368-.392.551-.87.551-1.433 0-.563-.183-1.04-.55-1.433-.344-.392-.834-.588-1.47-.588z" fill="gray" opacity=".5"/>
    <path d="M33.69 4.015v59.267h12.986c9.339 0 10.055-.963 10.298-10.317V14.332c0-9.358-.96-10.317-10.298-10.317z" fill="#dcdbdc" opacity=".1"/>
    <path d="M10.407 33.648v19.317c-.046 9.358.96 10.317 10.298 10.317h25.97c9.34 0 10.056-.963 10.299-10.317V33.648z" fill="#dcdbdc" opacity=".2"/>
    <path d="M41.099 63.282l15.875-15.875v5.949c-.014 8.994-1.006 9.926-10.1 9.926z" fill="#dcdbdc" opacity=".4"/>
</svg>
