<?xml version="1.0" encoding="UTF-8" standalone="no"?>
<svg
   xmlns:dc="http://purl.org/dc/elements/1.1/"
   xmlns:cc="http://creativecommons.org/ns#"
   xmlns:rdf="http://www.w3.org/1999/02/22-rdf-syntax-ns#"
   xmlns:svg="http://www.w3.org/2000/svg"
   xmlns="http://www.w3.org/2000/svg"
   xmlns:sodipodi="http://sodipodi.sourceforge.net/DTD/sodipodi-0.dtd"
   xmlns:inkscape="http://www.inkscape.org/namespaces/inkscape"
   width="256"
   height="256"
   viewBox="0 0 67.73 67.73"
   version="1.1"
   id="svg40"
   sodipodi:docname="video-x-generic.svg"
   inkscape:version="0.92.5 (2060ec1f9f, 2020-04-08)">
  <metadata
     id="metadata44">
    <rdf:RDF>
      <cc:Work
         rdf:about="">
        <dc:format>image/svg+xml</dc:format>
        <dc:type
           rdf:resource="http://purl.org/dc/dcmitype/StillImage" />
        <dc:title />
      </cc:Work>
    </rdf:RDF>
  </metadata>
  <sodipodi:namedview
     pagecolor="#97C378"
     bordercolor="#597981"
     borderopacity="1"
     objecttolerance="10"
     gridtolerance="10"
     guidetolerance="10"
     inkscape:pageopacity="0"
     inkscape:pageshadow="2"
     inkscape:window-width="1314"
     inkscape:window-height="716"
     id="namedview42"
     showgrid="false"
     inkscape:zoom="1.84375"
     inkscape:cx="119.02018"
     inkscape:cy="73.937454"
     inkscape:window-x="52"
     inkscape:window-y="24"
     inkscape:window-maximized="1"
     inkscape:current-layer="svg40" />
  <defs
     id="defs20">
    <clipPath
       id="d">
      <path
         d="M39.997 106.924c0-35.296 3.626-39.094 38.994-38.921h146.013c35.368-.173 38.993 3.625 38.993 38.921v98.157c0 35.297-3.625 38.922-38.993 38.922H78.99c-35.369 0-38.994-3.625-38.994-38.922z"
         fill="url(#linearGradient1105)"
         id="path2" />
    </clipPath>
    <linearGradient
       id="c"
       x1="529.655"
       x2="-35.31"
       y1="401.584"
       y2="119.093"
       gradientTransform="matrix(.11989 0 0 .11989 4.187 232.365)"
       gradientUnits="userSpaceOnUse">
      <stop
         offset="0"
         stop-color="#16181D"
         id="stop5" />
      <stop
         offset="1"
         stop-color="#16181D"
         id="stop7" />
    </linearGradient>
    <linearGradient
       id="b"
       x1="88"
       x2="488"
       y1="88"
       y2="488"
       gradientUnits="userSpaceOnUse">
      <stop
         offset="0"
         stop-opacity=".588"
         id="stop10" />
      <stop
         offset=".88"
         stop-opacity="0"
         id="stop12" />
      <stop
         offset="1"
         id="stop14" />
    </linearGradient>
    <filter
       id="a"
       x="-.01"
       y="-.01"
       width="1.026"
       height="1.022"
       color-interpolation-filters="sRGB">
      <feGaussianBlur
         stdDeviation="2.12"
         id="feGaussianBlur17" />
    </filter>
    <linearGradient
       id="c-7"
       x1="529.65503"
       x2="-35.310001"
       y1="401.58401"
       y2="119.093"
       gradientTransform="matrix(0.11989,0,0,0.11989,4.1869428,3.0978843)"
       gradientUnits="userSpaceOnUse">
      <stop
         offset="0"
         stop-color="#16181D"
         id="stop5-0" />
      <stop
         offset="1"
         stop-color="#16181D"
         id="stop7-0" />
    </linearGradient>
  </defs>
  <path
     transform="matrix(0 -.1323 .1323 0 -5.602 74.789)"
     d="M189.843 74c-70.593 0-78.189 7.25-77.843 77.987v292.026c-.346 70.736 7.25 77.987 77.843 77.987h196.314c70.593 0 76.006-7.274 77.843-77.987V151.987C464 81.25 456.75 74 386.157 74z"
     filter="url(#a)"
     opacity=".1"
     id="path22" />
  <path
     transform="matrix(0 -.1323 .1323 0 -5.602 74.789)"
     d="M189.843 74c-70.593 0-78.189 7.25-77.843 77.987v292.026c-.346 70.736 7.25 77.987 77.843 77.987h196.314C456.75 522 464 514.75 464 444.013V151.987C464 81.25 456.75 74 386.157 74z"
     fill="url(#b)"
     filter="url(#filter4380)"
     opacity=".3"
     id="path24" />
  <path
     d="M63.454 252.707c0-9.339-.96-10.344-10.317-10.298H14.504c-9.358-.046-10.317.96-10.317 10.298v25.97c0 9.34.96 10.299 10.317 10.299h38.633c9.358 0 10.317-.96 10.317-10.298z"
     id="path26"
     transform="translate(0 -229.267)"
     fill="url(#c)" />
  <path
     d="M23.238 23.725v25.4s12.037-5.207 22.564-12.708l-.003-.007a.026.026 0 0 0-.005-.008l-.005-.008a.016.016 0 0 1-.003-.008c-11.103-7.74-22.548-12.66-22.548-12.66z"
     fill="#dcdbdc"
     opacity=".6"
     id="path28" />
  <path
     d="M4.187 36.426h59.267V49.41c0 9.339-.962 10.055-10.317 10.298H14.504c-9.358 0-10.317-.96-10.317-10.298z"
     fill="#dcdbdc"
     opacity=".04"
     id="path32" />
  <path
     d="M33.82 13.142h19.317c9.358-.045 10.317.96 10.317 10.298v25.97c0 9.34-.962 10.056-10.317 10.299H33.82z"
     id="path34"
     fill="#dcdbdc"
     opacity=".04" />
  <path
     d="M14.504 13.142c-9.358-.046-10.317.96-10.317 10.298v.53c0-9.34.96-10.344 10.317-10.299h38.633c9.358-.045 10.317.96 10.317 10.298v-.529c0-9.339-.96-10.344-10.317-10.298H33.82z"
     fill="#dcdbdc"
     opacity=".2"
     id="path36" />
  <path
     d="M4.187 48.882v.53c0 9.338.959 10.297 10.317 10.297h38.633c9.358 0 10.317-.959 10.317-10.298v-.529c0 9.339-.96 10.298-10.317 10.298H14.504c-9.358 0-10.317-.959-10.317-10.298z"
     opacity=".2"
     id="path38" />
  <path
     inkscape:connector-curvature="0"
     style="opacity:0.74522292;fill:#9b9b9a;fill-opacity:1;stroke-width:1"
     d="m 59.218737,13.51829 v 3.85694 H 63.06069 C 62.568068,15.093521 61.493219,14.010291 59.218737,13.51829 Z M 8.4196863,13.518819 C 6.1467953,14.01113 5.0721757,15.094634 4.5797995,17.37523 H 8.4196863 Z M 4.2981769,19.491792 C 4.2139019,20.606671 4.187078,21.909228 4.187078,23.439677 v 0.285757 h 4.2326083 v -4.233642 z m 54.9205601,0 v 4.233642 h 4.235192 v -0.285757 c 0,-1.530369 -0.02682,-2.833053 -0.111099,-3.947885 z M 4.187078,25.841997 v 4.233125 h 4.2326083 v -4.233125 z m 55.031659,0 v 4.233125 h 4.235192 V 25.841997 Z M 4.187078,32.191684 v 4.233641 h 4.2326083 v -4.233641 z m 55.031659,0 v 4.233641 h 4.235192 V 32.191684 Z M 4.187078,38.541887 v 4.233126 h 4.2326083 v -4.233126 z m 55.031659,0 v 4.233126 h 4.235192 V 38.541887 Z M 4.187078,44.891576 v 4.233643 h 4.2326083 v -4.233643 z m 55.031659,0 v 4.233643 h 4.235192 V 44.891576 Z M 4.2056805,51.241782 c 0.036201,1.736959 0.1370656,3.130721 0.3767026,4.233125 h 3.8373032 v -4.233125 z m 55.0130565,0 v 4.233125 h 3.839887 c 0.239616,-1.102486 0.340547,-2.496028 0.376703,-4.233125 z M 5.4443037,57.591469 c 0.6343864,0.888771 1.576647,1.416391 2.9753826,1.720739 v -1.720739 z m 53.7744333,0 v 1.721258 c 1.40026,-0.304243 2.343165,-0.83218 2.977967,-1.721258 z"
     id="path26-1" />
</svg>
